<svg width="23" height="13" viewBox="0 0 35 18" fill="none" xmlns="http://www.w3.org/2000/svg">
<path d="M11.9415 17.6709V14.5119C10.9045 16.6837 8.76376 18 6.02091 18C2.37491 18 0 15.9927 0 12.8665C0 9.47715 2.74286 7.70018 8.09477 7.70018C9.16516 7.70018 9.96794 7.766 11.7073 7.89762V6.44972C11.7073 3.55393 10.1352 1.84278 7.45923 1.84278C4.58258 1.84278 2.77631 3.58684 2.74286 6.41682H0.602091C0.702439 2.56673 3.41185 0 7.42578 0C11.5401 0 13.9484 2.36929 13.9484 6.38391V17.6709H11.9415ZM2.24112 12.8007C2.24112 14.9068 3.88014 16.3218 6.3554 16.3218C9.63345 16.3218 11.7073 14.2157 11.7073 10.958V9.41133C10.2021 9.27971 9.16516 9.2468 8.19512 9.2468C4.18118 9.2468 2.24112 10.3985 2.24112 12.8007Z" fill="black"/>
<path d="M26.6042 18C21.754 18 18.2418 14.2157 18.2418 8.98355C18.2418 3.78428 21.754 0.0329063 26.6042 0.0329063C31.4878 0.0329063 35 3.78428 35 8.98355C35 14.2157 31.4878 18 26.6042 18ZM26.6042 15.9927C30.0495 15.9927 32.6251 13.2943 32.6251 8.98355C32.6251 4.73857 30.0495 2.04022 26.6042 2.04022C23.1923 2.04022 20.6167 4.73857 20.6167 8.98355C20.6167 13.2943 23.1923 15.9927 26.6042 15.9927Z" fill="black"/>
</svg>

