<svg width="32" height="30" viewBox="0 0 769 769" fill="none" xmlns="http://www.w3.org/2000/svg">
<circle cx="384.5" cy="384.5" r="384.5" fill="#3ABF2E"/>
<path d="M278.5 467.4C265.5 467.4 253.7 463.8 243.1 456.6C232.5 449.4 224 439.6 217.6 427.2C211.2 414.8 208 400.7 208 384.9C208 369.1 211.2 355 217.6 342.6C224 330.2 232.7 320.5 243.7 313.5C254.7 306.5 267.1 303 280.9 303C288.9 303 296.2 304.2 302.8 306.6C309.4 308.8 315.2 312 320.2 316.2C325.2 320.4 329.3 325.2 332.5 330.6C335.9 336 338.2 341.8 339.4 348L331.3 345.9V306.3H368.5V464.4H331V426.6L339.7 425.1C338.3 430.5 335.7 435.8 331.9 441C328.3 446 323.7 450.5 318.1 454.5C312.7 458.3 306.6 461.4 299.8 463.8C293.2 466.2 286.1 467.4 278.5 467.4ZM288.7 434.7C297.3 434.7 304.9 432.6 311.5 428.4C318.1 424.2 323.2 418.4 326.8 411C330.6 403.4 332.5 394.7 332.5 384.9C332.5 375.3 330.6 366.8 326.8 359.4C323.2 352 318.1 346.2 311.5 342C304.9 337.8 297.3 335.7 288.7 335.7C280.1 335.7 272.5 337.8 265.9 342C259.5 346.2 254.5 352 250.9 359.4C247.3 366.8 245.5 375.3 245.5 384.9C245.5 394.7 247.3 403.4 250.9 411C254.5 418.4 259.5 424.2 265.9 428.4C272.5 432.6 280.1 434.7 288.7 434.7Z" fill="white"/>
<path d="M480.58 467.4C464.78 467.4 450.68 463.9 438.28 456.9C425.88 449.7 416.08 439.9 408.88 427.5C401.68 415.1 398.08 401 398.08 385.2C398.08 369.4 401.68 355.3 408.88 342.9C416.08 330.5 425.88 320.8 438.28 313.8C450.68 306.6 464.78 303 480.58 303C496.18 303 510.18 306.6 522.58 313.8C534.98 320.8 544.68 330.5 551.68 342.9C558.88 355.3 562.48 369.4 562.48 385.2C562.48 401 558.88 415.1 551.68 427.5C544.68 439.9 534.98 449.7 522.58 456.9C510.18 463.9 496.18 467.4 480.58 467.4ZM480.58 434.7C489.18 434.7 496.78 432.5 503.38 428.1C510.18 423.7 515.48 417.8 519.28 410.4C523.28 403 525.18 394.6 524.98 385.2C525.18 375.6 523.28 367.1 519.28 359.7C515.48 352.3 510.18 346.5 503.38 342.3C496.78 337.9 489.18 335.7 480.58 335.7C471.98 335.7 464.18 337.9 457.18 342.3C450.38 346.5 445.08 352.4 441.28 360C437.48 367.4 435.58 375.8 435.58 385.2C435.58 394.6 437.48 403 441.28 410.4C445.08 417.8 450.38 423.7 457.18 428.1C464.18 432.5 471.98 434.7 480.58 434.7Z" fill="white"/>
</svg>
