<svg width="17" height="14" viewBox="0 0 17 14" fill="none" xmlns="http://www.w3.org/2000/svg">
<path fill-rule="evenodd" clip-rule="evenodd" d="M13.4191 0.506802L13.4168 0.506513C13.3922 0.503574 13.3677 0.501709 13.3433 0.500795C13.302 0.499249 13.261 0.500512 13.2205 0.504593C13.211 0.505541 13.2015 0.506687 13.1921 0.507992C13.1832 0.509158 13.1744 0.510454 13.1656 0.511878L13.1533 0.514129C12.9731 0.545867 12.8028 0.63197 12.6701 0.767926L12.7012 0.738969C12.7057 0.734804 12.7103 0.730796 12.7149 0.726798L12.7204 0.722006C12.6276 0.803398 12.551 0.904835 12.4985 1.02237C12.4822 1.0585 12.4684 1.09579 12.4571 1.13401L12.4626 1.11659C12.4729 1.08416 12.4849 1.05273 12.4985 1.02237C12.5499 0.908054 12.6256 0.805429 12.7204 0.722006C12.8154 0.638751 12.9274 0.57647 13.0483 0.539387C13.0804 0.529618 13.1134 0.521542 13.1472 0.515279L13.1533 0.514129C13.1662 0.511859 13.1791 0.509778 13.1921 0.507992C13.2421 0.501396 13.2927 0.498948 13.3433 0.500795C13.3688 0.501747 13.394 0.50377 13.4191 0.506802Z" fill="url(#paint0_linear_179_35)"/>
<path d="M13.8127 0.654787C13.7068 0.582857 13.5908 0.53663 13.4721 0.514836M13.1472 0.515279C13.1134 0.521542 13.0804 0.529618 13.0483 0.539387M13.1472 0.515279C13.1492 0.514904 13.1513 0.514516 13.1533 0.514129M13.1472 0.515279L13.1533 0.514129M13.095 5.00636L14.1594 1.64057C14.2024 1.50462 14.2103 1.36611 14.188 1.23461M13.095 5.00636L14.5706 12.7833C14.6611 13.2601 15.1256 13.5741 15.6081 13.4847C16.0905 13.3953 16.4083 12.9363 16.3179 12.4595L14.188 1.23461M13.095 5.00636L10.604 12.8834C10.4576 13.3464 9.95906 13.6045 9.49051 13.4598C9.02196 13.3151 8.76083 12.8224 8.90725 12.3594L10.7064 6.67007M14.188 1.23461L14.1846 1.21671C14.1744 1.16254 14.1593 1.11048 14.1398 1.06088M14.188 1.23461C14.1782 1.17559 14.1621 1.11735 14.1398 1.06088M10.7064 6.67007L6.21977 13.119C5.94166 13.5188 5.38829 13.62 4.98377 13.3452C4.57925 13.0704 4.47677 12.5236 4.75488 12.1238L7.87311 7.64177M10.7064 6.67007L11.4517 4.31352L12.4571 1.13401M7.87311 7.64177L12.5767 0.880973C12.6051 0.84015 12.6364 0.80244 12.6701 0.767926M7.87311 7.64177C4.85112 10.4524 1.83128 13.261 1.83128 13.261C1.47381 13.5935 0.911285 13.5767 0.574843 13.2234C0.2384 12.8702 0.255446 12.3143 0.612917 11.9818L12.6701 0.767926M12.6701 0.767926L12.7012 0.738969C12.7057 0.734804 12.7103 0.730796 12.7149 0.726798M12.6701 0.767926C12.7767 0.658738 12.9076 0.581997 13.0483 0.539387M12.6701 0.767926C12.8028 0.63197 12.9731 0.545867 13.1533 0.514129M13.1656 0.511878C13.1615 0.512553 13.1574 0.513341 13.1533 0.514129M13.1656 0.511878C13.1744 0.510454 13.1832 0.509158 13.1921 0.507992M13.1656 0.511878L13.1533 0.514129M13.0483 0.539387C12.924 0.577217 12.8131 0.640431 12.7204 0.722006M13.0483 0.539387C12.9303 0.575283 12.8183 0.63602 12.7204 0.722006M13.0483 0.539387C12.9274 0.57647 12.8154 0.638751 12.7204 0.722006M13.0483 0.539387C13.0826 0.528863 13.1177 0.520498 13.1533 0.514129M12.7204 0.722006L12.7149 0.726798M12.7204 0.722006C12.6276 0.803398 12.551 0.904835 12.4985 1.02237M12.7204 0.722006C12.6256 0.805429 12.5499 0.908054 12.4985 1.02237M12.7204 0.722006C12.7186 0.723608 12.7167 0.725202 12.7149 0.726798M12.4985 1.02237C12.4822 1.0585 12.4684 1.09579 12.4571 1.13401M12.4985 1.02237C12.4849 1.05273 12.4729 1.08416 12.4626 1.11659L12.4571 1.13401M12.4985 1.02237C12.5489 0.910254 12.6227 0.809338 12.7149 0.726798M12.4985 1.02237C12.55 0.907148 12.6245 0.807361 12.7149 0.726798M14.1398 1.06088C14.0994 0.958342 14.0386 0.86162 13.9577 0.776594C13.8229 0.635064 13.6518 0.547534 13.4721 0.514836M14.1398 1.06088C14.0276 0.774039 13.7714 0.569381 13.4721 0.514836M14.1398 1.06088C14.0453 0.820391 13.8447 0.623158 13.5761 0.540217C13.5416 0.529547 13.5069 0.521148 13.4721 0.514836M13.4721 0.514836C13.4572 0.51212 13.4422 0.509777 13.4271 0.507814C13.4244 0.507461 13.4218 0.50713 13.4191 0.506802M13.4191 0.506802L13.4168 0.506513C13.3922 0.503574 13.3677 0.501709 13.3433 0.500795M13.4191 0.506802C13.394 0.50377 13.3688 0.501747 13.3433 0.500795M13.1533 0.514129C13.1662 0.511859 13.1791 0.509778 13.1921 0.507992M13.3433 0.500795C13.302 0.499249 13.261 0.500512 13.2205 0.504593C13.211 0.505541 13.2015 0.506687 13.1921 0.507992M13.3433 0.500795C13.2927 0.498948 13.2421 0.501396 13.1921 0.507992" stroke="black" stroke-width="0.5" stroke-linecap="round"/>
<defs>
<linearGradient id="paint0_linear_179_35" x1="13.6651" y1="0.321789" x2="15.4032" y2="13.3295" gradientUnits="userSpaceOnUse">
<stop/>
<stop offset="1" stop-color="#FF0000"/>
</linearGradient>
</defs>
</svg>
