<svg width="50" height="50" viewBox="0 0 50 50" fill="none" xmlns="http://www.w3.org/2000/svg">
<path fill-rule="evenodd" clip-rule="evenodd" d="M25.0026 2.02701C12.2246 2.02701 1.86599 12.3113 1.86599 24.9977V25.0023C1.86599 37.6886 12.2246 47.973 25.0026 47.973C37.7805 47.973 48.1391 37.6886 48.1391 25.0023V24.9977C48.1391 12.3113 37.7805 2.02701 25.0026 2.02701ZM0.504883 24.9977C0.504883 11.565 11.4729 0.675659 25.0026 0.675659C38.5323 0.675659 49.5003 11.565 49.5003 24.9977V25.0023C49.5003 38.435 38.5323 49.3243 25.0026 49.3243C11.4729 49.3243 0.504883 38.435 0.504883 25.0023V24.9977Z" fill="#222326"/>
<path d="M11.3938 31.7567H15.9222L16.8464 29.2693L14.767 25.0316L11.3938 31.7567Z" fill="#222326"/>
<path d="M23.408 28.3942L18.3712 18.3063L16.8464 21.7611L21.6059 31.7567H25.0343L23.408 28.3942Z" fill="#222326"/>
<path fill-rule="evenodd" clip-rule="evenodd" d="M31.8228 31.7567C35.572 31.7567 38.6113 28.7316 38.6113 25C38.6113 21.2684 35.572 18.2432 31.8228 18.2432C28.0736 18.2432 25.0343 21.2684 25.0343 25C25.0343 28.7316 28.0736 31.7567 31.8228 31.7567ZM31.8228 29.1046C34.1005 29.1046 35.9467 27.2669 35.9467 25C35.9467 22.7331 34.1005 20.8954 31.8228 20.8954C29.5453 20.8954 27.6989 22.7331 27.6989 25C27.6989 27.2669 29.5453 29.1046 31.8228 29.1046Z" fill="#222326"/>
</svg>
