<svg width="252" height="253" viewBox="0 0 252 253" fill="none" xmlns="http://www.w3.org/2000/svg">
<path d="M231.332 162.21L251.912 158.526L233.263 137.649L249.415 128.625L228.984 113.392L242.124 81.8018H213.376L220.929 50.7769L190.131 66.5758L198.575 25.6784L167.458 51.3427L164.155 11.8597L140.627 47.3824L125.952 0L111.292 47.3824L87.7706 11.8456L84.475 51.3285L53.3582 25.6643L61.7739 66.5616L30.9683 50.7769L38.5282 81.8018H9.79472L22.9345 113.392L2.50349 128.625L18.6489 137.649L0 158.526L20.5795 162.21L6.43552 189.084L24.6813 195.894L19.4763 213.192L34.2709 209.932L35.749 231.254L48.0471 224.989L49.1645 244.543L58.9522 241.282C58.9522 241.282 76.2856 259.274 111.108 250.122C113.115 249.618 114.98 248.661 116.56 247.325C118.14 245.989 119.393 244.309 120.224 242.414C122.034 238.171 121.433 232.966 109.814 231.056C89.3405 227.69 61.0172 231.636 50.7416 205.937C50.6688 205.756 50.6537 205.558 50.6984 205.368C50.7431 205.179 50.8454 205.008 50.9912 204.879C51.1371 204.751 51.3192 204.67 51.5126 204.649C51.706 204.628 51.9011 204.668 52.0711 204.763C64.7088 211.912 94.3122 218.369 96.7803 204.855C99.4111 190.449 86.7663 185.689 79.6166 181.75C72.4668 177.811 40.0134 167.288 41.4985 147.932C42.9836 128.576 64.1289 133.753 68.9166 137.607C73.2305 140.436 115.875 166.659 115.875 166.659C115.875 166.659 100.415 187.167 125.952 187.167C151.489 187.167 136.044 166.659 136.044 166.659C136.044 166.659 178.674 140.422 183.002 137.607C187.79 133.753 208.921 128.59 210.42 147.932C211.919 167.274 179.431 177.776 172.288 181.75C165.145 185.725 152.486 190.449 155.131 204.855C157.607 218.362 187.189 211.927 199.833 204.763C200.004 204.667 200.2 204.626 200.395 204.647C200.59 204.668 200.773 204.749 200.919 204.879C201.065 205.009 201.168 205.182 201.211 205.372C201.255 205.563 201.238 205.763 201.163 205.944C190.901 231.636 162.564 227.69 142.091 231.056C130.478 232.966 129.87 238.128 131.688 242.414C132.516 244.308 133.767 245.988 135.344 247.324C136.922 248.66 138.784 249.617 140.789 250.122C175.626 259.274 192.967 241.282 192.967 241.282L202.754 244.543L203.872 224.989L216.163 231.254L217.648 209.939L232.442 213.199L227.237 195.894L245.455 189.126L231.332 162.21ZM98.7109 134.849C95.9401 134.849 93.2315 134.027 90.9276 132.488C88.6237 130.948 86.8281 128.76 85.7677 126.2C84.7074 123.641 84.4299 120.824 84.9705 118.106C85.5111 115.388 86.8454 112.892 88.8046 110.933C90.7639 108.974 93.2602 107.639 95.9778 107.099C98.6954 106.558 101.512 106.836 104.072 107.896C106.632 108.956 108.82 110.752 110.36 113.056C111.899 115.36 112.721 118.068 112.721 120.839C112.721 124.555 111.245 128.118 108.617 130.746C105.99 133.373 102.427 134.849 98.7109 134.849ZM153.201 134.849C150.43 134.849 147.721 134.027 145.417 132.488C143.113 130.948 141.318 128.76 140.257 126.2C139.197 123.641 138.92 120.824 139.46 118.106C140.001 115.388 141.335 112.892 143.294 110.933C145.254 108.974 147.75 107.639 150.468 107.099C153.185 106.558 156.002 106.836 158.562 107.896C161.122 108.956 163.31 110.752 164.849 113.056C166.389 115.36 167.21 118.068 167.21 120.839C167.211 122.679 166.849 124.501 166.146 126.202C165.442 127.902 164.41 129.446 163.109 130.748C161.808 132.049 160.263 133.081 158.563 133.784C156.863 134.488 155.041 134.85 153.201 134.849Z" fill="#AB9AFF"/>
</svg>
