<svg width="2502" height="2502" viewBox="0 0 2502 2502" fill="none" xmlns="http://www.w3.org/2000/svg">
<path fill-rule="evenodd" clip-rule="evenodd" d="M2009.18 1004.59H113.727V890.864H2009.18C2040.59 890.864 2066.05 916.322 2066.05 947.727C2066.05 979.132 2040.59 1004.59 2009.18 1004.59Z" fill="url(#paint0_linear_7_127)"/>
<path fill-rule="evenodd" clip-rule="evenodd" d="M2291.63 1156H54V1043H2291.63C2323.87 1043 2350 1068.3 2350 1099.5C2350 1130.7 2323.87 1156 2291.63 1156Z" fill="url(#paint1_linear_7_127)"/>
<path fill-rule="evenodd" clip-rule="evenodd" d="M1627.61 1308H44V1194H1627.61C1660.41 1194 1687 1219.52 1687 1251C1687 1282.48 1660.41 1308 1627.61 1308Z" fill="url(#paint2_linear_7_127)"/>
<path fill-rule="evenodd" clip-rule="evenodd" d="M1893.3 1459H54V1346H1893.3C1925.72 1346 1952 1371.3 1952 1402.5C1952 1433.7 1925.72 1459 1893.3 1459Z" fill="url(#paint3_linear_7_127)"/>
<path fill-rule="evenodd" clip-rule="evenodd" d="M1401.23 1611H69V1497H1401.23C1433.69 1497 1460 1522.52 1460 1554C1460 1585.48 1433.69 1611 1401.23 1611Z" fill="url(#paint4_linear_7_127)"/>
<path fill-rule="evenodd" clip-rule="evenodd" d="M1743.82 1762.77H113.727V1649.04H1743.82C1775.22 1649.04 1800.68 1674.5 1800.68 1705.91C1800.68 1737.31 1775.22 1762.77 1743.82 1762.77Z" fill="url(#paint5_linear_7_127)"/>
<path d="M86.4862 835.698C75.288 839.145 66.37 847.71 62.6999 858.837C22.015 982.186 0 1114.02 0 1251C0 1941.91 560.092 2502 1251 2502C1694.11 2502 2083.41 2271.63 2305.66 1924.12C2314.77 1909.87 2312.77 1891.28 2301.15 1878.98C2283.94 1860.76 2254.03 1864.2 2240.48 1885.29C2031.48 2210.64 1666.41 2426.18 1251 2426.18C601.965 2426.18 75.8182 1900.04 75.8182 1251C75.8182 1123.37 96.164 1000.49 133.789 885.433C143.401 856.04 116.042 826.602 86.4862 835.698Z" fill="url(#paint6_linear_7_127)"/>
<path d="M1605.69 122.943C1597.94 125.328 1589.67 125.322 1581.89 123.043C1476.93 92.3054 1365.89 75.8182 1251 75.8182C885.593 75.8182 559.138 242.59 343.598 504.172C338.452 510.418 331.619 515.07 323.884 517.45C287.261 528.722 258.313 488.641 282.589 458.993C512.007 178.809 860.622 0 1251 0C1374.68 0 1494.18 17.9494 1607.01 51.3853C1643.75 62.2717 1642.31 111.672 1605.69 122.943Z" fill="url(#paint7_linear_7_127)"/>
<path d="M1980.14 252.882C1950.6 261.974 1944.52 301.67 1968.98 320.572C2247.08 535.493 2426.18 872.331 2426.18 1251C2426.18 1339.46 2416.41 1425.64 2397.88 1508.51C2395.02 1521.33 2398.54 1534.79 2407.56 1544.33C2428.22 1566.21 2464.63 1557.19 2471.26 1527.83C2491.38 1438.78 2502 1346.13 2502 1251C2502 846.791 2310.3 487.358 2012.85 258.657C2003.55 251.51 1991.35 249.432 1980.14 252.882Z" fill="url(#paint8_linear_7_127)"/>
<defs>
<linearGradient id="paint0_linear_7_127" x1="197.35" y1="947.727" x2="2086.29" y2="1058.68" gradientUnits="userSpaceOnUse">
<stop stop-color="#EEEEEE"/>
<stop offset="1" stop-color="#272B48"/>
</linearGradient>
<linearGradient id="paint1_linear_7_127" x1="152.719" y1="1099.5" x2="2379.5" y2="1254.9" gradientUnits="userSpaceOnUse">
<stop stop-color="#EEEEEE"/>
<stop offset="1" stop-color="#272B48"/>
</linearGradient>
<linearGradient id="paint2_linear_7_127" x1="113.865" y1="1251" x2="1693.69" y2="1328.35" gradientUnits="userSpaceOnUse">
<stop stop-color="#EEEEEE"/>
<stop offset="1" stop-color="#272B48"/>
</linearGradient>
<linearGradient id="paint3_linear_7_127" x1="135.146" y1="1402.5" x2="1968.41" y2="1507.67" gradientUnits="userSpaceOnUse">
<stop stop-color="#EEEEEE"/>
<stop offset="1" stop-color="#272B48"/>
</linearGradient>
<linearGradient id="paint4_linear_7_127" x1="127.775" y1="1554" x2="1457.74" y2="1608.78" gradientUnits="userSpaceOnUse">
<stop stop-color="#EEEEEE"/>
<stop offset="1" stop-color="#272B48"/>
</linearGradient>
<linearGradient id="paint5_linear_7_127" x1="185.643" y1="1705.91" x2="1811.58" y2="1788.04" gradientUnits="userSpaceOnUse">
<stop stop-color="#EEEEEE"/>
<stop offset="1" stop-color="#272B48"/>
</linearGradient>
<linearGradient id="paint6_linear_7_127" x1="2217.68" y1="2103.95" x2="132.682" y2="-37.9113" gradientUnits="userSpaceOnUse">
<stop offset="0.0583252" stop-color="#272A47"/>
<stop offset="1" stop-color="#BFC0C5"/>
</linearGradient>
<linearGradient id="paint7_linear_7_127" x1="2217.68" y1="2103.95" x2="132.682" y2="-37.9113" gradientUnits="userSpaceOnUse">
<stop offset="0.0583252" stop-color="#272A47"/>
<stop offset="1" stop-color="#BFC0C5"/>
</linearGradient>
<linearGradient id="paint8_linear_7_127" x1="2217.68" y1="2103.95" x2="132.682" y2="-37.9113" gradientUnits="userSpaceOnUse">
<stop offset="0.0583252" stop-color="#272A47"/>
<stop offset="1" stop-color="#BFC0C5"/>
</linearGradient>
</defs>
</svg>
