<svg width="89" height="90" viewBox="0 0 89 90" fill="none" xmlns="http://www.w3.org/2000/svg">
<path d="M56.6525 40.4304C56.9286 40.4304 57.1525 40.2065 57.1525 39.9304C57.1525 39.6542 56.9286 39.4304 56.6525 39.4304V40.4304ZM61.1316 42.8193C61.4078 42.8193 61.6316 42.5954 61.6316 42.3193C61.6316 42.0431 61.4078 41.8193 61.1316 41.8193V42.8193ZM50.6803 45.2081C50.9564 45.2081 51.1803 44.9843 51.1803 44.7081C51.1803 44.432 50.9564 44.2081 50.6803 44.2081V45.2081ZM54.8608 47.597C55.137 47.597 55.3608 47.3732 55.3608 47.097C55.3608 46.8209 55.137 46.597 54.8608 46.597V47.597ZM47.097 49.9859C47.3731 49.9859 47.597 49.762 47.597 49.4859C47.597 49.2098 47.3731 48.9859 47.097 48.9859V49.9859ZM52.472 52.3748C52.7481 52.3748 52.972 52.1509 52.972 51.8748C52.972 51.5986 52.7481 51.3748 52.472 51.3748V52.3748ZM26.7915 40.4304H56.6525V39.4304H26.7915V40.4304ZM26.7915 42.8193H61.1316V41.8193H26.7915V42.8193ZM26.7915 45.2081H50.6803V44.2081H26.7915V45.2081ZM26.7915 47.597H54.8608V46.597H26.7915V47.597ZM26.7915 49.9859H47.097V48.9859H26.7915V49.9859ZM26.7915 52.3748H52.472V51.3748H26.7915V52.3748Z" fill="#4A4A4A"/>
<path d="M50.149 26.459L50.2961 26.9369L50.149 26.459C50.1231 26.4669 50.0928 26.4677 50.0616 26.4586C48.363 25.9611 46.5663 25.6944 44.7083 25.6944C38.796 25.6944 33.5137 28.3935 30.0272 32.6248C30.0066 32.6498 29.9811 32.6661 29.9554 32.674C29.9119 32.6874 29.8851 32.6824 29.8697 32.677C29.8514 32.6706 29.8355 32.6584 29.8246 32.643C29.8137 32.6277 29.8109 32.6141 29.811 32.6051C29.8111 32.5999 29.8118 32.5807 29.8388 32.5477C33.3621 28.2447 38.7145 25.5 44.7083 25.5C46.6082 25.5 48.4428 25.7757 50.1748 26.2889C50.2157 26.301 50.227 26.3165 50.23 26.3208C50.2351 26.328 50.2404 26.3408 50.24 26.3595C50.2396 26.3784 50.2333 26.3975 50.2217 26.4131C50.212 26.4263 50.1925 26.4456 50.149 26.459ZM26.4626 38.6867C26.4684 38.6692 26.484 38.6513 26.5096 38.6435C26.5297 38.6373 26.5436 38.6386 26.5551 38.642C26.5689 38.6461 26.5863 38.6556 26.6027 38.673C26.6367 38.709 26.6458 38.753 26.6325 38.7937C26.0235 40.6559 25.6944 42.6441 25.6944 44.7083C25.6944 55.2093 34.2072 63.7221 44.7083 63.7221C51.4299 63.7221 57.3366 60.2338 60.7171 54.9712C60.7379 54.9388 60.7705 54.9199 60.8063 54.916C60.8408 54.9123 60.8683 54.9231 60.8888 54.9448C60.9189 54.9767 60.9185 55.0176 60.9021 55.0432C57.4887 60.3802 51.5113 63.9165 44.7083 63.9165C34.0998 63.9165 25.5 55.3167 25.5 44.7083C25.5 42.6042 25.8381 40.5801 26.4626 38.6867ZM56.325 29.6547C56.2911 29.6285 56.274 29.5872 56.2818 29.5384C56.2856 29.5149 56.2946 29.4972 56.3038 29.4861C56.3114 29.4768 56.3221 29.468 56.3422 29.4618C56.3677 29.4539 56.3909 29.4599 56.4057 29.4713C60.9739 32.9836 63.9165 38.5022 63.9165 44.7083C63.9165 46.1696 63.7534 47.5923 63.4446 48.9593C63.4395 48.9818 63.4313 48.9925 63.425 48.9987C63.4175 49.0062 63.4058 49.0136 63.3899 49.0176C63.3588 49.0255 63.3235 49.0192 63.2922 48.9862C63.2676 48.96 63.2542 48.9189 63.2642 48.8742C63.564 47.533 63.7221 46.1388 63.7221 44.7083C63.7221 38.5813 60.8235 33.1311 56.325 29.6547Z" fill="#5D5D5D" stroke="#4A4A4A"/>
</svg>
