<svg width="152" height="30" viewBox="0 0 76 15" fill="none" xmlns="http://www.w3.org/2000/svg">
<path fill-rule="evenodd" clip-rule="evenodd" d="M7 1.59718C3.73996 1.59718 1.09718 4.23996 1.09718 7.5C1.09718 10.76 3.73996 13.4028 7 13.4028C10.26 13.4028 12.9028 10.76 12.9028 7.5C12.9028 4.23996 10.26 1.59718 7 1.59718ZM0 7.5C0 3.63401 3.13401 0.5 7 0.5C10.866 0.5 14 3.63401 14 7.5C14 11.366 10.866 14.5 7 14.5C3.13401 14.5 0 11.366 0 7.5Z" fill="#5A5A5A"/>
<path d="M8.22884 9.82602C8.18495 9.78213 8.18495 9.69436 8.14107 9.60658C8.14107 9.51881 8.09718 9.43103 8.09718 9.34326C8.0094 9.43103 7.92163 9.47492 7.83386 9.5627C7.74608 9.65047 7.61442 9.69436 7.52665 9.73824C7.39498 9.78213 7.30721 9.82602 7.13166 9.8699C7 9.91379 6.82445 9.91379 6.69279 9.91379C6.42947 9.91379 6.21003 9.86991 5.9906 9.78213C5.77116 9.69436 5.59561 9.60658 5.42006 9.47492C5.24451 9.34326 5.15674 9.16771 5.06897 8.99216C4.98119 8.81661 4.9373 8.59718 4.9373 8.37774C4.9373 7.8511 5.15674 7.41222 5.55172 7.1489C5.94671 6.84169 6.56113 6.71003 7.3511 6.71003H8.09718V6.40282C8.09718 6.1395 8.0094 5.96395 7.87774 5.83229C7.70219 5.70063 7.48276 5.61285 7.17555 5.61285C6.91223 5.61285 6.73668 5.65674 6.60502 5.7884C6.47335 5.92006 6.42947 6.05172 6.42947 6.22727H5.11285C5.11285 6.00784 5.15674 5.7884 5.24451 5.61285C5.33229 5.4373 5.46395 5.26175 5.68339 5.08621C5.85893 4.95454 6.07837 4.82288 6.34169 4.73511C6.60502 4.64734 6.91223 4.60345 7.26332 4.60345C7.57053 4.60345 7.83386 4.64734 8.09718 4.73511C8.3605 4.82288 8.57994 4.91066 8.79937 5.08621C8.97492 5.21787 9.15047 5.4373 9.23825 5.65674C9.32602 5.87617 9.41379 6.1395 9.41379 6.44671V8.64107C9.41379 8.90439 9.41379 9.12382 9.45768 9.29937C9.50157 9.47492 9.54545 9.65047 9.58934 9.73824V9.82602H8.22884ZM6.95611 8.90439C7.08777 8.90439 7.21944 8.90439 7.30721 8.8605C7.43887 8.81661 7.52665 8.77273 7.61442 8.72884C7.70219 8.68495 7.78997 8.64106 7.83386 8.55329C7.87774 8.5094 7.96552 8.42163 8.00941 8.37774V7.5H7.3511C7.13166 7.5 6.95611 7.5 6.82445 7.54389C6.69279 7.58777 6.56113 7.63166 6.47335 7.71943C6.38558 7.80721 6.29781 7.8511 6.25392 7.98276C6.21003 8.07053 6.21003 8.20219 6.21003 8.28997C6.21003 8.46552 6.25392 8.59718 6.38558 8.72884C6.51724 8.8605 6.73668 8.90439 6.95611 8.90439Z" fill="#5A5A5A"/>
<path d="M22.6602 10.5C22.6315 10.4141 22.6094 10.319 22.5938 10.2148C22.5781 10.1081 22.5677 10 22.5625 9.89062C22.4818 9.98958 22.388 10.0807 22.2812 10.1641C22.1745 10.2474 22.0573 10.3203 21.9297 10.3828C21.8047 10.4427 21.6693 10.4896 21.5234 10.5234C21.3776 10.5599 21.2253 10.5781 21.0664 10.5781C20.8685 10.5781 20.6836 10.5495 20.5117 10.4922C20.3424 10.4349 20.194 10.3542 20.0664 10.25C19.9414 10.1458 19.8424 10.0208 19.7695 9.875C19.6992 9.72656 19.6641 9.5612 19.6641 9.37891C19.6641 9.13672 19.7174 8.93099 19.8242 8.76172C19.931 8.59245 20.0755 8.45573 20.2578 8.35156C20.4401 8.24479 20.651 8.16667 20.8906 8.11719C21.1302 8.06771 21.3815 8.04297 21.6445 8.04297H22.5586V7.5625C22.556 7.40365 22.5247 7.26432 22.4648 7.14453C22.4049 7.02214 22.3229 6.92057 22.2188 6.83984C22.1172 6.75651 21.9948 6.69401 21.8516 6.65234C21.7109 6.61068 21.5573 6.58984 21.3906 6.58984C21.2396 6.58984 21.0951 6.60938 20.957 6.64844C20.8216 6.6875 20.7005 6.74349 20.5938 6.81641C20.4896 6.88932 20.4049 6.97917 20.3398 7.08594C20.2747 7.1901 20.2396 7.30859 20.2344 7.44141L19.7656 7.4375C19.7734 7.25781 19.8203 7.09245 19.9062 6.94141C19.9948 6.79036 20.1133 6.66016 20.2617 6.55078C20.4102 6.4388 20.582 6.35156 20.7773 6.28906C20.9753 6.22656 21.1862 6.19531 21.4102 6.19531C21.6341 6.19531 21.8438 6.22396 22.0391 6.28125C22.237 6.33854 22.4076 6.42448 22.5508 6.53906C22.6966 6.65365 22.8112 6.79688 22.8945 6.96875C22.9805 7.14062 23.0247 7.34115 23.0273 7.57031V9.61719C23.0273 9.75781 23.0391 9.89974 23.0625 10.043C23.0885 10.1862 23.1198 10.3229 23.1562 10.4531L23.1602 10.5H22.6602ZM21.1172 10.1641C21.2812 10.1667 21.4375 10.1471 21.5859 10.1055C21.737 10.0638 21.875 10.0065 22 9.93359C22.125 9.85807 22.2357 9.76953 22.332 9.66797C22.4284 9.5638 22.5039 9.45052 22.5586 9.32812V8.40234H21.707C21.5013 8.40234 21.3034 8.41797 21.1133 8.44922C20.9232 8.48047 20.7552 8.53255 20.6094 8.60547C20.4635 8.67578 20.3464 8.77083 20.2578 8.89062C20.1719 9.01042 20.1289 9.16016 20.1289 9.33984C20.1289 9.46745 20.1549 9.58203 20.207 9.68359C20.2591 9.78516 20.3294 9.8724 20.418 9.94531C20.5065 10.0156 20.6107 10.0703 20.7305 10.1094C20.8503 10.1458 20.9792 10.1641 21.1172 10.1641Z" fill="#5A5A5A"/>
<path d="M27.7555 6.19531C27.8727 6.19531 27.9898 6.20312 28.107 6.21875C28.2242 6.23177 28.3219 6.2513 28.4 6.27734L28.3414 6.72656C28.232 6.70312 28.1227 6.6849 28.0133 6.67188C27.9039 6.65885 27.7919 6.65234 27.6773 6.65234C27.2815 6.65234 26.9456 6.74609 26.6695 6.93359C26.3935 7.12109 26.1995 7.40885 26.0875 7.79688L26.0914 10.5H25.607V6.27344H26.0562L26.0875 7.00781V7.09375C26.2594 6.8151 26.4872 6.59635 26.7711 6.4375C27.0549 6.27604 27.3831 6.19531 27.7555 6.19531Z" fill="#5A5A5A"/>
<path d="M30.675 9.12891L30.8 9.87891L30.9562 9.12891L31.6711 6.27344H31.9992L32.7141 9.12891L32.8703 9.89844L33.007 9.12891L33.5852 6.27344H34.0187L33.0812 10.5H32.7023L31.9562 7.60938L31.8312 6.93359L31.7062 7.60938L30.968 10.5H30.5891L29.6516 6.27344H30.0852L30.675 9.12891Z" fill="#5A5A5A"/>
<path d="M37.1727 10.5781C36.8784 10.5781 36.6102 10.5234 36.368 10.4141C36.1258 10.3047 35.9174 10.1562 35.743 9.96875C35.5711 9.78125 35.437 9.5625 35.3406 9.3125C35.2469 9.0599 35.1987 8.79167 35.1961 8.50781V8.33984C35.1987 8.03776 35.2482 7.75651 35.3445 7.49609C35.4435 7.23568 35.5776 7.00911 35.7469 6.81641C35.9161 6.6237 36.1154 6.47266 36.3445 6.36328C36.5737 6.2513 36.8198 6.19531 37.0828 6.19531C37.3641 6.19531 37.6128 6.24609 37.8289 6.34766C38.0451 6.44922 38.226 6.58854 38.3719 6.76562C38.5203 6.9401 38.6323 7.14453 38.7078 7.37891C38.7859 7.61328 38.8263 7.86458 38.8289 8.13281V8.41797H35.6648V8.50781C35.6674 8.72917 35.7052 8.94141 35.7781 9.14453C35.851 9.34505 35.9539 9.52214 36.0867 9.67578C36.2195 9.82943 36.3797 9.95312 36.5672 10.0469C36.7547 10.138 36.963 10.1836 37.1922 10.1836C37.4526 10.1862 37.6883 10.138 37.8992 10.0391C38.1102 9.9401 38.2898 9.79688 38.4383 9.60938L38.7352 9.83203C38.657 9.94141 38.5646 10.043 38.4578 10.1367C38.351 10.2279 38.2313 10.306 38.0984 10.3711C37.9682 10.4362 37.825 10.487 37.6688 10.5234C37.5125 10.5599 37.3471 10.5781 37.1727 10.5781ZM37.0828 6.59375C36.8927 6.59375 36.7182 6.63021 36.5594 6.70312C36.4005 6.77344 36.2612 6.8724 36.1414 7C36.0216 7.1276 35.9227 7.27865 35.8445 7.45312C35.7664 7.625 35.713 7.8138 35.6844 8.01953H38.3602V7.96875C38.3549 7.79427 38.3224 7.625 38.2625 7.46094C38.2052 7.29427 38.1219 7.14714 38.0125 7.01953C37.9057 6.89193 37.7742 6.78906 37.618 6.71094C37.4617 6.63281 37.2833 6.59375 37.0828 6.59375Z" fill="#5A5A5A"/>
<path d="M43.4789 10.5C43.4503 10.4141 43.4281 10.319 43.4125 10.2148C43.3969 10.1081 43.3865 10 43.3812 9.89062C43.3005 9.98958 43.2068 10.0807 43.1 10.1641C42.9932 10.2474 42.876 10.3203 42.7484 10.3828C42.6234 10.4427 42.488 10.4896 42.3422 10.5234C42.1964 10.5599 42.044 10.5781 41.8852 10.5781C41.6872 10.5781 41.5023 10.5495 41.3305 10.4922C41.1612 10.4349 41.0128 10.3542 40.8852 10.25C40.7602 10.1458 40.6612 10.0208 40.5883 9.875C40.518 9.72656 40.4828 9.5612 40.4828 9.37891C40.4828 9.13672 40.5362 8.93099 40.643 8.76172C40.7497 8.59245 40.8943 8.45573 41.0766 8.35156C41.2589 8.24479 41.4698 8.16667 41.7094 8.11719C41.949 8.06771 42.2003 8.04297 42.4633 8.04297H43.3773V7.5625C43.3747 7.40365 43.3435 7.26432 43.2836 7.14453C43.2237 7.02214 43.1417 6.92057 43.0375 6.83984C42.9359 6.75651 42.8135 6.69401 42.6703 6.65234C42.5297 6.61068 42.376 6.58984 42.2094 6.58984C42.0583 6.58984 41.9138 6.60938 41.7758 6.64844C41.6404 6.6875 41.5193 6.74349 41.4125 6.81641C41.3083 6.88932 41.2237 6.97917 41.1586 7.08594C41.0935 7.1901 41.0583 7.30859 41.0531 7.44141L40.5844 7.4375C40.5922 7.25781 40.6391 7.09245 40.725 6.94141C40.8135 6.79036 40.932 6.66016 41.0805 6.55078C41.2289 6.4388 41.4008 6.35156 41.5961 6.28906C41.794 6.22656 42.0049 6.19531 42.2289 6.19531C42.4529 6.19531 42.6625 6.22396 42.8578 6.28125C43.0557 6.33854 43.2263 6.42448 43.3695 6.53906C43.5154 6.65365 43.6299 6.79688 43.7133 6.96875C43.7992 7.14062 43.8435 7.34115 43.8461 7.57031V9.61719C43.8461 9.75781 43.8578 9.89974 43.8812 10.043C43.9073 10.1862 43.9385 10.3229 43.975 10.4531L43.9789 10.5H43.4789ZM41.9359 10.1641C42.1 10.1667 42.2562 10.1471 42.4047 10.1055C42.5557 10.0638 42.6937 10.0065 42.8187 9.93359C42.9437 9.85807 43.0544 9.76953 43.1508 9.66797C43.2471 9.5638 43.3227 9.45052 43.3773 9.32812V8.40234H42.5258C42.32 8.40234 42.1221 8.41797 41.932 8.44922C41.7419 8.48047 41.574 8.53255 41.4281 8.60547C41.2823 8.67578 41.1651 8.77083 41.0766 8.89062C40.9906 9.01042 40.9477 9.16016 40.9477 9.33984C40.9477 9.46745 40.9737 9.58203 41.0258 9.68359C41.0779 9.78516 41.1482 9.8724 41.2367 9.94531C41.3253 10.0156 41.4294 10.0703 41.5492 10.1094C41.669 10.1458 41.7979 10.1641 41.9359 10.1641Z" fill="#5A5A5A"/>
<path d="M47.3984 9.86719L47.418 9.94922L47.4414 9.86719L48.8945 6.27344H49.3828L47.6055 10.5H47.2227L45.4414 6.27344H45.9297L47.3984 9.86719Z" fill="#5A5A5A"/>
<path d="M52.7867 10.5781C52.4925 10.5781 52.2242 10.5234 51.982 10.4141C51.7398 10.3047 51.5315 10.1562 51.357 9.96875C51.1852 9.78125 51.051 9.5625 50.9547 9.3125C50.8609 9.0599 50.8128 8.79167 50.8102 8.50781V8.33984C50.8128 8.03776 50.8622 7.75651 50.9586 7.49609C51.0576 7.23568 51.1917 7.00911 51.3609 6.81641C51.5302 6.6237 51.7294 6.47266 51.9586 6.36328C52.1878 6.2513 52.4339 6.19531 52.6969 6.19531C52.9781 6.19531 53.2268 6.24609 53.443 6.34766C53.6591 6.44922 53.8401 6.58854 53.9859 6.76562C54.1344 6.9401 54.2464 7.14453 54.3219 7.37891C54.4 7.61328 54.4404 7.86458 54.443 8.13281V8.41797H51.2789V8.50781C51.2815 8.72917 51.3193 8.94141 51.3922 9.14453C51.4651 9.34505 51.568 9.52214 51.7008 9.67578C51.8336 9.82943 51.9938 9.95312 52.1813 10.0469C52.3688 10.138 52.5771 10.1836 52.8063 10.1836C53.0667 10.1862 53.3023 10.138 53.5133 10.0391C53.7242 9.9401 53.9039 9.79688 54.0523 9.60938L54.3492 9.83203C54.2711 9.94141 54.1786 10.043 54.0719 10.1367C53.9651 10.2279 53.8453 10.306 53.7125 10.3711C53.5823 10.4362 53.4391 10.487 53.2828 10.5234C53.1266 10.5599 52.9612 10.5781 52.7867 10.5781ZM52.6969 6.59375C52.5068 6.59375 52.3323 6.63021 52.1734 6.70312C52.0146 6.77344 51.8753 6.8724 51.7555 7C51.6357 7.1276 51.5367 7.27865 51.4586 7.45312C51.3805 7.625 51.3271 7.8138 51.2984 8.01953H53.9742V7.96875C53.969 7.79427 53.9365 7.625 53.8766 7.46094C53.8193 7.29427 53.7359 7.14714 53.6266 7.01953C53.5198 6.89193 53.3883 6.78906 53.232 6.71094C53.0758 6.63281 52.8974 6.59375 52.6969 6.59375Z" fill="#5A5A5A"/>
<path d="M57.55 10.168C57.55 10.0586 57.5852 9.96615 57.6555 9.89062C57.7284 9.8125 57.826 9.77344 57.9484 9.77344C58.0734 9.77344 58.1711 9.8125 58.2414 9.89062C58.3143 9.96615 58.3508 10.0586 58.3508 10.168C58.3508 10.2773 58.3143 10.3685 58.2414 10.4414C58.1711 10.5117 58.0734 10.5469 57.9484 10.5469C57.826 10.5469 57.7284 10.5117 57.6555 10.4414C57.5852 10.3685 57.55 10.2773 57.55 10.168Z" fill="#5A5A5A"/>
<path d="M61.1492 8.32422C61.1518 8.03776 61.1961 7.76562 61.282 7.50781C61.368 7.25 61.4904 7.02474 61.6492 6.83203C61.8107 6.63672 62.0073 6.48177 62.2391 6.36719C62.4734 6.2526 62.7378 6.19531 63.032 6.19531C63.3289 6.19531 63.5932 6.2526 63.825 6.36719C64.0594 6.48177 64.2573 6.63672 64.4187 6.83203C64.5802 7.02474 64.7039 7.25 64.7898 7.50781C64.8758 7.76562 64.9201 8.03776 64.9227 8.32422V8.45312C64.9201 8.73958 64.8758 9.01172 64.7898 9.26953C64.7065 9.52734 64.5841 9.75391 64.4227 9.94922C64.2612 10.1419 64.0646 10.2956 63.8328 10.4102C63.601 10.5221 63.3367 10.5781 63.0398 10.5781C62.743 10.5781 62.4773 10.5221 62.243 10.4102C62.0112 10.2956 61.8146 10.1419 61.6531 9.94922C61.4917 9.75391 61.368 9.52734 61.282 9.26953C61.1961 9.01172 61.1518 8.73958 61.1492 8.45312V8.32422ZM61.618 8.45312C61.618 8.67708 61.6492 8.89323 61.7117 9.10156C61.7742 9.3099 61.8654 9.49479 61.9852 9.65625C62.1049 9.8151 62.2521 9.94271 62.4266 10.0391C62.6036 10.1354 62.8081 10.1836 63.0398 10.1836C63.269 10.1836 63.4708 10.1354 63.6453 10.0391C63.8224 9.94271 63.9695 9.8151 64.0867 9.65625C64.2065 9.49479 64.2977 9.3099 64.3602 9.10156C64.4227 8.89323 64.4539 8.67708 64.4539 8.45312V8.32422C64.4539 8.10286 64.4227 7.88802 64.3602 7.67969C64.2977 7.47135 64.2065 7.28776 64.0867 7.12891C63.9669 6.96745 63.8185 6.83854 63.6414 6.74219C63.4643 6.64323 63.2612 6.59375 63.032 6.59375C62.8029 6.59375 62.5997 6.64323 62.4227 6.74219C62.2482 6.83854 62.101 6.96745 61.9813 7.12891C61.8641 7.28776 61.7742 7.47135 61.7117 7.67969C61.6492 7.88802 61.618 8.10286 61.618 8.32422V8.45312Z" fill="#5A5A5A"/>
<path d="M69.393 6.19531C69.5102 6.19531 69.6273 6.20312 69.7445 6.21875C69.8617 6.23177 69.9594 6.2513 70.0375 6.27734L69.9789 6.72656C69.8695 6.70312 69.7602 6.6849 69.6508 6.67188C69.5414 6.65885 69.4294 6.65234 69.3148 6.65234C68.919 6.65234 68.5831 6.74609 68.307 6.93359C68.031 7.12109 67.837 7.40885 67.725 7.79688L67.7289 10.5H67.2445V6.27344H67.6937L67.725 7.00781V7.09375C67.8969 6.8151 68.1247 6.59635 68.4086 6.4375C68.6924 6.27604 69.0206 6.19531 69.393 6.19531Z" fill="#5A5A5A"/>
<path d="M71.668 8.34766C71.668 8.06641 71.7018 7.79688 71.7695 7.53906C71.8372 7.27865 71.9401 7.04948 72.0781 6.85156C72.2188 6.65104 72.3932 6.49219 72.6016 6.375C72.8125 6.25521 73.0612 6.19531 73.3477 6.19531C73.6185 6.19531 73.8607 6.25391 74.0742 6.37109C74.2904 6.48568 74.4701 6.64844 74.6133 6.85938L74.6328 6.27344H75.0703V10.4258C75.0677 10.6836 75.0273 10.9206 74.9492 11.1367C74.8711 11.3529 74.7578 11.5378 74.6094 11.6914C74.4635 11.8477 74.2865 11.9688 74.0781 12.0547C73.8698 12.1406 73.6354 12.1836 73.375 12.1836C73.25 12.1836 73.1198 12.1693 72.9844 12.1406C72.849 12.112 72.7161 12.0677 72.5859 12.0078C72.4557 11.9479 72.3307 11.8724 72.2109 11.7812C72.0938 11.6927 71.9909 11.5859 71.9023 11.4609L72.1641 11.1797C72.5 11.5859 72.8932 11.7891 73.3438 11.7891C73.5443 11.7891 73.7227 11.7565 73.8789 11.6914C74.0352 11.6263 74.1654 11.5339 74.2695 11.4141C74.3763 11.2969 74.457 11.1549 74.5117 10.9883C74.569 10.8242 74.599 10.6432 74.6016 10.4453V9.96484C74.4531 10.1628 74.2708 10.3151 74.0547 10.4219C73.8411 10.526 73.6029 10.5781 73.3398 10.5781C73.0586 10.5781 72.8125 10.5182 72.6016 10.3984C72.3932 10.276 72.2201 10.1159 72.082 9.91797C71.944 9.71745 71.8398 9.48828 71.7695 9.23047C71.7018 8.97005 71.668 8.70312 71.668 8.42969V8.34766ZM72.1367 8.42969C72.1367 8.64062 72.1589 8.85026 72.2031 9.05859C72.25 9.26693 72.3242 9.45443 72.4258 9.62109C72.5273 9.78516 72.6602 9.91797 72.8242 10.0195C72.9883 10.1211 73.1888 10.1719 73.4258 10.1719C73.5586 10.1719 73.6849 10.1549 73.8047 10.1211C73.9245 10.0846 74.0339 10.0339 74.1328 9.96875C74.2344 9.90365 74.3242 9.82552 74.4023 9.73438C74.4831 9.64062 74.5495 9.53646 74.6016 9.42188V7.41016C74.5495 7.29297 74.4857 7.1849 74.4102 7.08594C74.3346 6.98698 74.2474 6.90234 74.1484 6.83203C74.0495 6.75911 73.9401 6.70312 73.8203 6.66406C73.7005 6.6224 73.5716 6.60156 73.4336 6.60156C73.194 6.60156 72.9922 6.65365 72.8281 6.75781C72.6641 6.85938 72.5299 6.99349 72.4258 7.16016C72.3242 7.32422 72.25 7.51042 72.2031 7.71875C72.1589 7.92708 72.1367 8.13672 72.1367 8.34766V8.42969Z" fill="#5A5A5A"/>
</svg>
