<svg width="38" height="34" viewBox="0 0 38 34" fill="none" xmlns="http://www.w3.org/2000/svg">
<g clip-path="url(#clip0_714_211)">
<path fill-rule="evenodd" clip-rule="evenodd" d="M18.5098 1.91802L14.6985 6.72365L17.842 11.7217H21.9839L25.1908 6.81329L18.5098 1.91802ZM26.1198 5.39155L19.05 0.211478C18.5746 -0.136822 17.9166 -0.0461201 17.5481 0.41848L13.7471 5.21105L10.876 0.646137C10.4458 -0.0378493 9.47242 -0.0478297 9.02893 0.627169L1.70377 11.7759C0.728635 11.9999 4.54502e-05 12.8917 4.54502e-05 13.9577L0 23.7125C0 24.5767 0.541726 25.3116 1.29649 25.5803C0.491315 26.4758 0 27.6753 0 28.9899C0 31.7484 2.16302 34 4.85008 34C7.53713 34 9.70015 31.7484 9.70015 28.9899C9.70015 27.7282 9.24747 26.5724 8.49902 25.6896H29.501C28.7525 26.5724 28.2998 27.7282 28.2998 28.9899C28.2998 31.7484 30.463 34 33.15 34C35.8369 34 38 31.7484 38 28.9899C38 27.6836 37.5148 26.491 36.7187 25.5972C37.4623 25.3505 38 24.6352 38 23.7917V14.8868C38 13.1674 36.661 11.7682 34.9923 11.7228L30.5273 3.16863C29.9331 2.03 28.3678 1.95078 27.6667 3.02385L26.1198 5.39155ZM34.914 13.4313C34.9122 13.4313 34.9104 13.4313 34.9086 13.4313H2.18401C1.90007 13.4313 1.66988 13.667 1.66988 13.9577L1.66983 23.7125C1.66983 23.8601 1.78679 23.98 1.93105 23.98H36.1463C36.2478 23.98 36.3302 23.8957 36.3302 23.7917V14.8868C36.3302 14.0848 35.6965 13.4343 34.914 13.4313ZM33.0984 11.7217H23.9928L29.0547 3.9744L33.0984 11.7217ZM4.85008 25.6896C6.59803 25.6896 8.03032 27.1585 8.03032 28.9899C8.03032 30.8215 6.59805 32.2904 4.85008 32.2904C3.1021 32.2904 1.66983 30.8215 1.66983 28.9899C1.66983 27.1585 3.10212 25.6896 4.85008 25.6896ZM3.75189 11.7217H15.8559L9.93608 2.30948L3.75189 11.7217ZM33.15 25.6896C31.4019 25.6896 29.9697 27.1585 29.9697 28.9899C29.9697 30.8215 31.4019 32.2904 33.15 32.2904C34.8979 32.2904 36.3302 30.8215 36.3302 28.9899C36.3302 27.1585 34.8979 25.6896 33.15 25.6896Z" fill="black"/>
</g>
<defs>
<clipPath id="clip0_714_211">
<rect width="38" height="34" fill="white"/>
</clipPath>
</defs>
</svg>
