<svg width="89" height="90" viewBox="0 0 89 90" fill="none" xmlns="http://www.w3.org/2000/svg">
<g clip-path="url(#clip0_714_210)">
<path fill-rule="evenodd" clip-rule="evenodd" d="M43.5098 29.918L39.6985 34.7236L42.842 39.7217H46.9839L50.1908 34.8133L43.5098 29.918ZM51.1198 33.3916L44.05 28.2115C43.5746 27.8632 42.9166 27.9539 42.5481 28.4185L38.7471 33.2111L35.876 28.6461C35.4458 27.9622 34.4724 27.9522 34.0289 28.6272L26.7038 39.7759C25.7286 39.9999 25 40.8917 25 41.9577L25 51.7125C25 52.5767 25.5417 53.3116 26.2965 53.5803C25.4913 54.4758 25 55.6753 25 56.9899C25 59.7484 27.163 62 29.8501 62C32.5371 62 34.7002 59.7484 34.7002 56.9899C34.7002 55.7282 34.2475 54.5724 33.499 53.6896H54.501C53.7525 54.5724 53.2998 55.7282 53.2998 56.9899C53.2998 59.7484 55.463 62 58.15 62C60.8369 62 63 59.7484 63 56.9899C63 55.6836 62.5148 54.491 61.7187 53.5972C62.4623 53.3505 63 52.6352 63 51.7917V42.8868C63 41.1674 61.661 39.7682 59.9923 39.7228L55.5273 31.1686C54.9331 30.03 53.3678 29.9508 52.6667 31.0238L51.1198 33.3916ZM59.914 41.4313C59.9122 41.4313 59.9104 41.4313 59.9086 41.4313H27.184C26.9001 41.4313 26.6699 41.667 26.6699 41.9577L26.6698 51.7125C26.6698 51.8601 26.7868 51.98 26.9311 51.98H61.1463C61.2478 51.98 61.3302 51.8957 61.3302 51.7917V42.8868C61.3302 42.0848 60.6965 41.4343 59.914 41.4313ZM58.0984 39.7217H48.9928L54.0547 31.9744L58.0984 39.7217ZM29.8501 53.6896C31.598 53.6896 33.0303 55.1585 33.0303 56.9899C33.0303 58.8215 31.5981 60.2904 29.8501 60.2904C28.1021 60.2904 26.6698 58.8215 26.6698 56.9899C26.6698 55.1585 28.1021 53.6896 29.8501 53.6896ZM28.7519 39.7217H40.8559L34.9361 30.3095L28.7519 39.7217ZM58.15 53.6896C56.4019 53.6896 54.9697 55.1585 54.9697 56.9899C54.9697 58.8215 56.4019 60.2904 58.15 60.2904C59.8979 60.2904 61.3302 58.8215 61.3302 56.9899C61.3302 55.1585 59.8979 53.6896 58.15 53.6896Z" fill="black"/>
</g>
<defs>
<clipPath id="clip0_714_210">
<rect width="38" height="34" fill="white" transform="translate(25 28)"/>
</clipPath>
</defs>
</svg>
