<svg width="4405" height="1286" viewBox="0 0 4405 1286" fill="none" xmlns="http://www.w3.org/2000/svg">
<path fill-rule="evenodd" clip-rule="evenodd" d="M3543.72 624.185C3543.72 544.242 3617.84 476.927 3712.86 476.927H3850.95C3945.98 476.927 4020.1 544.242 4020.1 624.185V1028.97H3939.58V624.185C3939.58 578.936 3898.29 544.764 3850.95 544.764H3712.86C3665.53 544.764 3624.24 578.936 3624.24 624.185V656.567H3543.72V624.185Z" fill="black"/>
<path fill-rule="evenodd" clip-rule="evenodd" d="M3506.89 867.054C3506.89 778.17 3589.25 703.606 3694.45 703.606H3979.84V771.442H3694.45C3636.95 771.442 3587.41 812.863 3587.41 867.054C3587.41 921.246 3636.95 962.667 3694.45 962.667H3748.95C3791.22 962.667 3832.13 947.914 3862.57 921.143L3950.76 843.59L4008.91 890.518L3920.72 968.072C3875.47 1007.86 3813.72 1030.5 3748.95 1030.5H3694.45C3589.25 1030.5 3506.89 955.939 3506.89 867.054Z" fill="black"/>
<path fill-rule="evenodd" clip-rule="evenodd" d="M2926.78 516.684C2957.51 501.563 2997.21 493.328 3038.92 493.328H3182.78C3224.49 493.328 3264.19 501.563 3294.93 516.684C3323.02 530.505 3356.31 557.149 3356.31 599.018V764.158C3356.31 806.026 3323.02 832.67 3294.93 846.492C3264.19 861.612 3224.49 869.847 3182.78 869.847H3038.92C2997.21 869.847 2957.51 861.612 2926.78 846.492C2898.68 832.67 2865.39 806.026 2865.39 764.158V599.018C2865.39 557.149 2898.68 530.505 2926.78 516.684ZM2943.94 600.634V762.542C2944.68 763.851 2948.08 768.788 2961.2 775.241C2979.06 784.028 3006.49 790.58 3038.92 790.58H3182.78C3215.21 790.58 3242.64 784.028 3260.5 775.241C3273.62 768.788 3277.02 763.851 3277.77 762.541V600.634C3277.02 599.325 3273.62 594.387 3260.5 587.934C3242.64 579.147 3215.21 572.595 3182.78 572.595H3038.92C3006.49 572.595 2979.06 579.147 2961.2 587.934C2948.08 594.387 2944.68 599.324 2943.94 600.634Z" fill="black"/>
<path fill-rule="evenodd" clip-rule="evenodd" d="M3389.46 476.927L3277.77 527.022V762.729H3356.31V578.535L3421.36 549.363L3389.46 476.927Z" fill="black"/>
<path fill-rule="evenodd" clip-rule="evenodd" d="M3346.5 1286H2983.21C2918.14 1286 2865.39 1232.77 2865.39 1167.1V1058.11V900.826L2997.34 789.858L3047.63 850.753L2943.94 937.953V978.84H3287.58C3320.12 978.84 3346.5 1005.46 3346.5 1038.29V1286ZM2943.94 1058.11V1167.1C2943.94 1188.99 2961.52 1206.73 2983.21 1206.73H3267.95V1058.11H2943.94Z" fill="black"/>
<path fill-rule="evenodd" clip-rule="evenodd" d="M2737.09 894.824C2737.09 973.636 2650.59 1030.5 2555.15 1030.5H2405.82C2310.38 1030.5 2223.88 973.636 2223.88 894.824V621.013H2308.98V894.824C2308.98 927.438 2347.3 960.899 2405.82 960.899H2555.15C2613.67 960.899 2651.99 927.438 2651.99 894.824V866.001H2737.09V894.824Z" fill="black"/>
<path fill-rule="evenodd" clip-rule="evenodd" d="M2737.09 621.013C2737.09 540.065 2653.92 476.927 2555.15 476.927H2405.82C2307.05 476.927 2223.88 540.065 2223.88 621.013H2308.98C2308.98 581.25 2350.62 546.531 2405.82 546.531H2555.15C2610.35 546.531 2651.99 581.25 2651.99 621.013V652.237H2737.09V621.013Z" fill="black"/>
<path fill-rule="evenodd" clip-rule="evenodd" d="M2285.89 781.304V711.7L2651.99 711.7L2651.99 646.822H2737.09L2737.09 779.304C2737.09 780.408 2736.19 781.304 2735.09 781.304L2285.89 781.304Z" fill="black"/>
<path fill-rule="evenodd" clip-rule="evenodd" d="M1886.04 476.787V306.596H1796.21V900.11C1796.21 974.236 1887.4 1030.5 1992.9 1030.5H2095.58V967.555H1992.9C1930.76 967.555 1886.04 935.248 1886.04 900.11V539.735H2095.58V476.787H1886.04Z" fill="black"/>
<path fill-rule="evenodd" clip-rule="evenodd" d="M1154.71 618.583C1154.71 541.656 1234.78 476.927 1337.37 476.927H1485.26C1587.84 476.927 1667.91 541.656 1667.91 618.583V888.847C1667.91 965.775 1587.84 1030.5 1485.26 1030.5H1337.37C1234.78 1030.5 1154.71 965.775 1154.71 888.847V618.583ZM1243.96 618.583V888.847C1243.96 931.331 1287.48 963.403 1337.37 963.403H1485.26C1535.14 963.403 1578.66 931.331 1578.66 888.847V618.583C1578.66 576.1 1535.14 544.027 1485.26 544.027H1337.37C1287.48 544.027 1243.96 576.1 1243.96 618.583Z" fill="black"/>
<path fill-rule="evenodd" clip-rule="evenodd" d="M94.8708 723.051V638.512C42.4755 638.512 0 676.36 0 723.051V951.065C0 997.755 42.4755 1035.6 94.8708 1035.6H684.891C863.729 1035.6 1008.28 906.323 1008.28 747.428C1008.28 588.022 863.155 459.253 684.459 459.253V543.792C810.952 543.792 913.413 634.884 913.413 747.428C913.413 859.719 811.237 951.065 684.891 951.065H94.8708V723.051Z" fill="black"/>
<path d="M470.812 832.065L537.896 891.844L774.718 680.812L537.932 469.366L470.777 529.081L598.053 642.736L94.8708 638.512V723.051L593.307 722.91L470.812 832.065Z" fill="black"/>
<path fill-rule="evenodd" clip-rule="evenodd" d="M705.091 418.544C834.881 418.544 939.939 324.926 939.939 209.271C939.939 93.6154 834.88 0 705.091 0H94.8708C42.4751 0 0 37.8495 0 84.5393V525.655H94.8708V84.5393H705.091C782.486 84.5393 845.068 140.306 845.068 209.271C845.068 278.236 782.485 334.004 705.091 334.004V418.544Z" fill="black"/>
<path d="M444.62 224.606L377.536 164.828L140.213 376.306L377.571 587.369L444.584 527.528L322.023 418.544H705.091V334.004H321.852L444.62 224.606Z" fill="black"/>
<path d="M4191.17 817.59H4333.72H4405V888.561V1030.5H4191.17V924.047V870.818V817.59Z" fill="#0DBD29"/>
</svg>
