<svg width="9" height="11" viewBox="0 0 9 11" fill="none" xmlns="http://www.w3.org/2000/svg">
<path d="M2.04545 5.07692H6.95455C7.06304 5.07692 7.1671 5.03235 7.24382 4.95301C7.32054 4.87366 7.36364 4.76605 7.36364 4.65385V2.11538C7.36364 2.00318 7.32054 1.89557 7.24382 1.81622C7.1671 1.73688 7.06304 1.69231 6.95455 1.69231H2.04545C1.93696 1.69231 1.8329 1.73688 1.75618 1.81622C1.67946 1.89557 1.63636 2.00318 1.63636 2.11538V4.65385C1.63636 4.76605 1.67946 4.87366 1.75618 4.95301C1.8329 5.03235 1.93696 5.07692 2.04545 5.07692ZM2.45455 2.53846H6.54545V4.23077H2.45455V2.53846ZM8.18182 0H0.818182C0.601187 0 0.393079 0.0891481 0.23964 0.247833C0.086201 0.406517 0 0.62174 0 0.846154V10.1538C0 10.3783 0.086201 10.5935 0.23964 10.7522C0.393079 10.9109 0.601187 11 0.818182 11H8.18182C8.39881 11 8.60692 10.9109 8.76036 10.7522C8.9138 10.5935 9 10.3783 9 10.1538V0.846154C9 0.62174 8.9138 0.406517 8.76036 0.247833C8.60692 0.0891481 8.39881 0 8.18182 0ZM8.18182 10.1538H0.818182V0.846154H8.18182V10.1538ZM3.06818 6.55769C3.06818 6.68321 3.03219 6.8059 2.96477 6.91027C2.89734 7.01463 2.8015 7.09597 2.68937 7.144C2.57725 7.19203 2.45386 7.2046 2.33483 7.18011C2.2158 7.15563 2.10646 7.09519 2.02064 7.00643C1.93482 6.91768 1.87638 6.8046 1.8527 6.6815C1.82902 6.5584 1.84117 6.4308 1.88762 6.31484C1.93406 6.19887 2.01272 6.09976 2.11363 6.03003C2.21454 5.9603 2.33318 5.92308 2.45455 5.92308C2.61729 5.92308 2.77337 5.98994 2.88845 6.10895C3.00353 6.22797 3.06818 6.38938 3.06818 6.55769ZM5.11364 6.55769C5.11364 6.68321 5.07765 6.8059 5.01022 6.91027C4.94279 7.01463 4.84696 7.09597 4.73483 7.144C4.6227 7.19203 4.49932 7.2046 4.38029 7.18011C4.26125 7.15563 4.15191 7.09519 4.06609 7.00643C3.98027 6.91768 3.92183 6.8046 3.89815 6.6815C3.87448 6.5584 3.88663 6.4308 3.93307 6.31484C3.97952 6.19887 4.05817 6.09976 4.15908 6.03003C4.25999 5.9603 4.37863 5.92308 4.5 5.92308C4.66275 5.92308 4.81883 5.98994 4.93391 6.10895C5.04899 6.22797 5.11364 6.38938 5.11364 6.55769ZM7.15909 6.55769C7.15909 6.68321 7.1231 6.8059 7.05567 6.91027C6.98825 7.01463 6.89241 7.09597 6.78028 7.144C6.66816 7.19203 6.54477 7.2046 6.42574 7.18011C6.30671 7.15563 6.19737 7.09519 6.11155 7.00643C6.02573 6.91768 5.96729 6.8046 5.94361 6.6815C5.91993 6.5584 5.93208 6.4308 5.97853 6.31484C6.02497 6.19887 6.10362 6.09976 6.20454 6.03003C6.30545 5.9603 6.42409 5.92308 6.54545 5.92308C6.7082 5.92308 6.86428 5.98994 6.97936 6.10895C7.09444 6.22797 7.15909 6.38938 7.15909 6.55769ZM3.06818 8.67308C3.06818 8.79859 3.03219 8.92129 2.96477 9.02565C2.89734 9.13001 2.8015 9.21135 2.68937 9.25939C2.57725 9.30742 2.45386 9.31999 2.33483 9.2955C2.2158 9.27101 2.10646 9.21057 2.02064 9.12182C1.93482 9.03306 1.87638 8.91999 1.8527 8.79688C1.82902 8.67378 1.84117 8.54618 1.88762 8.43022C1.93406 8.31426 2.01272 8.21515 2.11363 8.14541C2.21454 8.07568 2.33318 8.03846 2.45455 8.03846C2.61729 8.03846 2.77337 8.10532 2.88845 8.22434C3.00353 8.34335 3.06818 8.50477 3.06818 8.67308ZM5.11364 8.67308C5.11364 8.79859 5.07765 8.92129 5.01022 9.02565C4.94279 9.13001 4.84696 9.21135 4.73483 9.25939C4.6227 9.30742 4.49932 9.31999 4.38029 9.2955C4.26125 9.27101 4.15191 9.21057 4.06609 9.12182C3.98027 9.03306 3.92183 8.91999 3.89815 8.79688C3.87448 8.67378 3.88663 8.54618 3.93307 8.43022C3.97952 8.31426 4.05817 8.21515 4.15908 8.14541C4.25999 8.07568 4.37863 8.03846 4.5 8.03846C4.66275 8.03846 4.81883 8.10532 4.93391 8.22434C5.04899 8.34335 5.11364 8.50477 5.11364 8.67308ZM7.15909 8.67308C7.15909 8.79859 7.1231 8.92129 7.05567 9.02565C6.98825 9.13001 6.89241 9.21135 6.78028 9.25939C6.66816 9.30742 6.54477 9.31999 6.42574 9.2955C6.30671 9.27101 6.19737 9.21057 6.11155 9.12182C6.02573 9.03306 5.96729 8.91999 5.94361 8.79688C5.91993 8.67378 5.93208 8.54618 5.97853 8.43022C6.02497 8.31426 6.10362 8.21515 6.20454 8.14541C6.30545 8.07568 6.42409 8.03846 6.54545 8.03846C6.7082 8.03846 6.86428 8.10532 6.97936 8.22434C7.09444 8.34335 7.15909 8.50477 7.15909 8.67308Z" fill="#484D5E"/>
</svg>
