<svg width="69" height="11" viewBox="0 0 69 11" fill="none" xmlns="http://www.w3.org/2000/svg">
<g clip-path="url(#clip0_173_270)">
<path d="M17.5706 2.55763L17.9731 0.0736646C17.9821 0.0180898 17.8957 -0.0197186 17.8299 0.0109652L15.033 1.31367L10.7357 3.11227C10.7016 3.12654 10.6839 3.15456 10.6918 3.18212L11.3049 5.34791C11.3112 5.37004 11.3011 5.39288 11.2782 5.40852L9.0154 6.95114C8.99714 6.96358 8.98682 6.98076 8.98682 6.99872V10.9339C8.98682 10.9969 9.09939 11.0241 9.15343 10.9741L10.6535 9.58684C10.666 9.57532 10.6727 9.56117 10.6727 9.54666V8.72276C10.6727 8.66556 10.7683 8.63547 10.828 8.67389L11.3979 9.04048C11.4349 9.06434 11.492 9.06306 11.5268 9.0376L13.0713 7.91068C13.1336 7.86521 13.0785 7.7896 12.9902 7.7995L12.3427 7.8722C12.3225 7.87445 12.3018 7.87194 12.2839 7.86503L11.6808 7.63279C11.6055 7.6038 11.6209 7.52403 11.7044 7.51049L14.1439 7.11493C14.1591 7.11249 14.1731 7.10736 14.1847 7.10005L15.7741 6.1028C15.8383 6.06257 15.7982 5.9874 15.7126 5.9874H14.7601C14.7391 5.9874 14.7187 5.98235 14.7023 5.97308L13.838 5.48528C13.7726 5.44833 13.8038 5.37358 13.8871 5.36795L15.9133 5.23136C15.9416 5.22945 15.9671 5.2185 15.9825 5.20161L17.1362 3.9403C17.1763 3.89641 17.132 3.8384 17.0583 3.8384H15.9726C15.8891 3.8384 15.848 3.76637 15.9078 3.7251L17.543 2.59741C17.5584 2.58681 17.5681 2.57275 17.5706 2.55763Z" fill="#21263F"/>
<path d="M0.403174 2.55763L0.000650437 0.0736646C-0.00835539 0.0180898 0.0780282 -0.0197186 0.143904 0.0109652L2.94073 1.31367L7.2381 3.11227C7.27218 3.12654 7.28982 3.15456 7.282 3.18212L6.66882 5.34791C6.66255 5.37004 6.67265 5.39288 6.69556 5.40852L8.95836 6.95114C8.97661 6.96358 8.98691 6.98076 8.98691 6.99872V10.9339C8.98691 10.9969 8.87437 11.0241 8.82033 10.9741L7.32025 9.58684C7.30778 9.57532 7.30103 9.56117 7.30103 9.54666V8.72276C7.30103 8.66556 7.20546 8.63547 7.14574 8.67389L6.5759 9.04048C6.53883 9.06434 6.48181 9.06306 6.44695 9.0376L4.90245 7.91068C4.84016 7.86521 4.8953 7.7896 4.98357 7.7995L5.63109 7.8722C5.65126 7.87445 5.67192 7.87194 5.68988 7.86503L6.29295 7.63279C6.36827 7.6038 6.35286 7.52403 6.26935 7.51049L3.82987 7.11493C3.81471 7.11249 3.80066 7.10736 3.78904 7.10005L2.19963 6.1028C2.13551 6.06257 2.17558 5.9874 2.26114 5.9874H3.21363C3.23463 5.9874 3.25501 5.98235 3.27144 5.97308L4.13572 5.48528C4.20116 5.44833 4.16991 5.37358 4.08666 5.36795L2.06039 5.23136C2.03216 5.22945 2.0067 5.2185 1.99126 5.20161L0.837579 3.9403C0.797437 3.89641 0.841795 3.8384 0.915492 3.8384H2.00121C2.08463 3.8384 2.12578 3.76637 2.06593 3.7251L0.430742 2.59741C0.415365 2.58681 0.405623 2.57275 0.403174 2.55763Z" fill="#21263F"/>
<path d="M8.90739 1.58269C8.93413 1.5163 9.03959 1.5163 9.06633 1.58269L10.483 5.10024C10.5123 5.1729 10.4143 5.2329 10.3485 5.18259L9.04191 4.18229C9.01026 4.15807 8.96346 4.15807 8.93181 4.18229L7.62522 5.18259C7.55946 5.2329 7.46142 5.1729 7.49067 5.10024L8.90739 1.58269Z" fill="#21263F"/>
<path d="M8.94071 6.31833C8.96875 6.3346 9.00493 6.3346 9.03296 6.31833L10.3933 5.52864C10.476 5.48066 10.4148 5.36702 10.321 5.39423L9.01301 5.77389C8.996 5.77884 8.97767 5.77884 8.96067 5.77389L7.65264 5.39423C7.55884 5.36702 7.49769 5.48066 7.58035 5.52861L8.94071 6.31833Z" fill="#21263F"/>
</g>
<g clip-path="url(#clip1_173_270)">
<path d="M22.0239 7.34826C22.4476 6.57577 22.8712 5.79517 23.2986 5.0105C23.7525 4.1811 24.2064 3.34764 24.6603 2.51825H28.9684L28.0871 4.0754C27.5084 4.0754 26.9259 4.0754 26.3359 4.0754C25.7496 4.0754 25.1671 4.0754 24.5922 4.0754L24.9288 4.64865C24.5733 5.30322 24.2215 5.94558 23.8735 6.57577C23.8092 6.69774 23.7449 6.81564 23.6768 6.93356C23.692 6.93356 23.8244 6.93761 24.0816 6.93761C24.3388 6.93761 24.6414 6.93761 24.9893 6.93761C25.3373 6.93761 25.655 6.93761 25.9425 6.93761C26.2262 6.93761 26.404 6.93761 26.472 6.93761L26.2375 7.34826L25.5945 8.49475H22.8258L22.0239 7.34826Z" fill="#21263F"/>
<path d="M33.8436 2.51825L31.351 6.93761L30.4697 8.49475H27.5269L26.8877 7.34826L27.1222 6.93761L28.7335 4.0754L29.6148 2.51825C31.0257 2.51825 32.4365 2.51825 33.8436 2.51825ZM29.8456 6.93761L31.4606 4.0754H29.5657L29.9212 4.64459L28.6276 6.93761H29.8456Z" fill="#21263F"/>
<path d="M37.7172 2.51825L38.3564 3.66477L36.2761 7.34418L34.9787 8.49475H31.4346C31.8733 7.68977 32.3424 6.82379 32.8454 5.90493C33.2955 5.07555 33.7267 4.28681 34.1352 3.5306L33.3674 2.51825C34.8161 2.51825 36.2685 2.51825 37.7172 2.51825ZM36.6127 4.08353V4.07946C36.2799 4.07946 35.9432 4.0754 35.6104 4.0754C35.2813 4.0754 34.9485 4.0754 34.6156 4.0754L34.9522 4.64865C34.5929 5.3073 34.2374 5.95779 33.8894 6.59203C33.8251 6.70995 33.7608 6.82784 33.6965 6.94574C33.9159 6.94574 34.1352 6.94169 34.3508 6.94169C34.5664 6.93761 34.7858 6.93761 35.0014 6.93761L36.6127 4.08353Z" fill="#21263F"/>
<path d="M43.5949 2.51825L42.7174 4.0754H39.4229L39.7822 4.64865H41.0039L40.0961 6.23834H38.4432L38.8555 6.93761H41.1022L40.8678 7.34826L40.2323 8.47849L40.2247 8.49475H37.6262L36.8281 7.34826L37.0626 6.93761L39.5553 2.51825H43.5949Z" fill="#21263F"/>
<path d="M48.5382 2.51825L47.6872 4.0754H47.0367L47.3733 4.64865C47.014 5.3073 46.6621 5.95374 46.3141 6.58797C45.97 7.21408 45.622 7.85239 45.2702 8.49475L44.4684 7.34826L45.0773 6.23426C44.8239 6.23426 44.5705 6.23426 44.3171 6.23426C44.0637 6.23426 43.8102 6.23426 43.5568 6.23426C43.4471 6.43753 43.3374 6.63675 43.2277 6.83597C42.9289 7.38078 42.6263 7.93371 42.3199 8.49475L41.5181 7.34826C41.9795 6.5026 42.4448 5.6488 42.9138 4.79095C43.3298 4.03067 43.7421 3.27446 44.1544 2.51825H45.588L44.7369 4.0754H44.0863L44.423 4.64865C44.6764 4.64865 44.9298 4.64865 45.1832 4.64865C45.4367 4.64865 45.6901 4.64865 45.9435 4.64865L47.1048 2.51825H48.5382Z" fill="#21263F"/>
<path d="M49.17 2.51825H53.4744L52.6272 4.0754H51.9842L52.3131 4.64865C51.9651 5.28291 51.6171 5.92119 51.2692 6.55545C50.9137 7.2019 50.5619 7.84831 50.2064 8.49475L49.4083 7.34826L50.0136 6.23426H48.4968C48.4361 6.34403 48.3757 6.45787 48.3151 6.56764C47.9671 7.2019 47.6155 7.84426 47.2598 8.49475L46.458 7.34826L46.4619 7.34418L49.17 2.51825ZM50.6904 4.99017L51.1899 4.0754H49.6731C49.5747 4.25835 49.4764 4.44131 49.3742 4.62019C49.3138 4.73403 49.2495 4.84787 49.1852 4.96577L49.1739 4.99017H50.6904Z" fill="#21263F"/>
<path d="M57.0189 4.50635L58.1043 2.51825H59.5378C58.997 3.5062 58.4598 4.49009 57.919 5.47805C57.3705 6.48226 56.8183 7.49054 56.2698 8.49475C54.912 8.49475 53.5578 8.49475 52.2 8.49475L51.3979 7.34826L52.1961 5.88462L52.4307 5.45771L54.0343 2.51825H55.468L54.6169 4.0754H53.9664L54.303 4.64865C53.9473 5.29917 53.5957 5.94153 53.2514 6.56764C53.2212 6.62862 53.1871 6.68961 53.153 6.7506L53.051 6.93761C53.2893 6.93761 53.5087 6.93761 53.709 6.93761C53.9437 6.50665 54.1781 6.07977 54.4089 5.66101C54.5942 5.32356 54.7757 4.9861 54.961 4.64865H56.387L55.1389 6.93761C55.3771 6.93761 55.5625 6.93761 55.6874 6.94169C56.0958 6.19361 56.5044 5.44958 56.9092 4.70557C56.9469 4.63646 56.9848 4.5714 57.0189 4.50635Z" fill="#21263F"/>
<path d="M64.3379 2.51825C63.9974 3.13216 63.6531 3.74608 63.3051 4.35186C63.2067 4.52668 63.1084 4.69744 63.0139 4.8682L60.9865 6.04317L62.6925 8.49475H61.1644L59.5985 6.04725C59.5001 6.23018 59.3979 6.41314 59.2996 6.59203C58.9555 7.22221 58.6075 7.85647 58.2595 8.49475L57.4575 7.34826C57.8775 6.57577 58.3047 5.79517 58.7322 5.0105C59.1862 4.1811 59.6401 3.34764 60.0939 2.51825H61.5237L60.6765 4.0754H60.0257L60.3626 4.64865C60.2263 4.90072 60.0902 5.14873 59.954 5.39267L61.9096 4.25022L62.8665 2.51825H64.3379Z" fill="#21263F"/>
<path d="M64.8408 2.51825H68.9865L68.1354 4.0754H64.7879L65.2381 4.66898H67.814L65.7223 8.49475H62.8211L62.2612 6.93761H65.0754L65.4915 6.23426H63.7894L63.2334 5.2707L64.8408 2.51825Z" fill="#21263F"/>
</g>
<defs>
<clipPath id="clip0_173_270">
<rect width="18" height="11" fill="white"/>
</clipPath>
<clipPath id="clip1_173_270">
<rect width="47" height="6" fill="white" transform="translate(22 2.5)"/>
</clipPath>
</defs>
</svg>
