<svg width="24" height="23" viewBox="0 0 24 23" fill="none" xmlns="http://www.w3.org/2000/svg">
<g clip-path="url(#clip0_173_60)">
<mask id="mask0_173_60" style="mask-type:luminance" maskUnits="userSpaceOnUse" x="0" y="0" width="24" height="23">
<path d="M23.6667 11.5C23.6667 5.14873 18.518 0 12.1667 0C5.81547 0 0.666748 5.14873 0.666748 11.5C0.666748 17.8513 5.81547 23 12.1667 23C18.518 23 23.6667 17.8513 23.6667 11.5Z" fill="white"/>
</mask>
<g mask="url(#mask0_173_60)">
<path d="M20.8823 0.931437L20.8842 0.929559C21.7439 0.0515161 22.5301 -1.03039 23.2444 -2.3128L26.4579 -0.71848C25.9015 0.380956 25.238 1.46511 24.4671 2.5339L24.4666 2.53453C23.6732 3.64167 22.7051 4.5637 21.5611 5.30174C20.4382 6.02608 19.0717 6.39446 17.4491 6.39446C16.1451 6.39446 15.0291 6.11933 14.0921 5.57899C13.1456 5.02214 12.2736 4.37274 11.4758 3.63076C10.6773 2.87039 9.89623 2.20346 9.13253 1.63067C8.33711 1.0341 7.46392 0.731182 6.519 0.731182C5.24022 0.731182 4.13786 1.21389 3.22458 2.16646C2.3826 3.027 1.60592 4.09968 0.892863 5.3808L-2.31661 3.81339C-1.74503 2.71237 -1.09123 1.62716 -0.354992 0.557794C0.438333 -0.56732 1.40587 -1.49778 2.54865 -2.23503C3.67101 -2.9591 5.04684 -3.32776 6.6889 -3.32776C8.07147 -3.32776 9.23504 -3.05138 10.1902 -2.5107L10.3134 -2.72827L10.1902 -2.5107C11.1732 -1.95431 12.0429 -1.30631 12.8006 -0.567169C13.5805 0.193662 14.3429 0.861018 15.088 1.43419C15.8636 2.0308 16.7092 2.33552 17.619 2.33552C18.8609 2.33552 19.9519 1.86184 20.8823 0.931437Z" stroke="black" stroke-width="0.5"/>
<path d="M6.6889 -0.255493C5.00877 -0.255493 3.58354 0.122078 2.41312 0.877162C1.24269 1.63225 0.251631 2.58559 -0.560103 3.73713C-1.35296 4.88864 -2.05144 6.05905 -2.65552 7.24836L0.997299 9.03229C1.73353 7.67309 2.53584 6.5499 3.40419 5.66264C4.27254 4.75651 5.31086 4.30344 6.519 4.30344C7.40627 4.30344 8.22744 4.58662 8.98253 5.15293C9.73762 5.71927 10.5116 6.38001 11.3045 7.1351C12.1162 7.89016 13.0035 8.5509 13.9662 9.11724C14.9478 9.68357 16.1088 9.96673 17.4491 9.96673C19.1104 9.96673 20.5262 9.58915 21.6966 8.83408C22.867 8.07899 23.8581 7.1351 24.6698 6.00242" stroke="black" stroke-width="0.5"/>
<path d="M26.7934 5.81335C26.2084 7.00266 25.5004 8.17308 24.6698 9.32459C23.8581 10.4573 22.867 11.4012 21.6966 12.1562C20.5262 12.9113 19.1104 13.2889 17.4491 13.2889C16.1088 13.2889 14.9478 13.0057 13.9662 12.4394C13.0035 11.8731 12.1162 11.2123 11.3045 10.4573C10.5116 9.70217 9.73762 9.04143 8.98253 8.47509C8.22744 7.90878 7.40627 7.6256 6.519 7.6256C5.31086 7.6256 4.27254 8.07868 3.40419 8.9848C2.53584 9.87206 1.73353 10.9953 0.997299 12.3545L-2.65552 10.5705C-2.05144 9.38122 -1.35296 8.2108 -0.560103 7.05929" stroke="black" stroke-width="0.5"/>
<path d="M26.7934 9.13562C26.2084 10.3249 25.5005 11.4953 24.6698 12.6469C23.8581 13.7795 22.867 14.7234 21.6966 15.4785C20.5262 16.2336 19.1104 16.6112 17.4492 16.6112C16.1088 16.6112 14.9479 16.328 13.9662 15.7617C13.0035 15.1953 12.1162 14.5346 11.3045 13.7795C10.5116 13.0244 9.73764 12.3637 8.98255 11.7974C8.22746 11.231 7.40628 10.9479 6.51902 10.9479C5.31088 10.9479 4.27256 11.4009 3.40421 12.3071C2.53586 13.1943 1.73354 14.3175 0.997314 15.6767" stroke="black" stroke-width="0.5"/>
<path d="M26.7934 12.4578C26.2084 13.6471 25.5004 14.8175 24.6698 15.969C23.8581 17.1017 22.867 18.0456 21.6966 18.8007C20.5262 19.5557 19.1104 19.9333 17.4491 19.9333C16.1088 19.9333 14.9478 19.6501 13.9662 19.0838C13.0035 18.5175 12.1162 17.8567 11.3045 17.1017C10.5116 16.3466 9.73762 15.6858 8.98253 15.1195C8.22744 14.5532 7.40627 14.27 6.519 14.27C5.31086 14.27 4.27254 14.7231 3.40419 15.6292C2.53584 16.5165 1.73353 17.6397 0.997299 18.9989L-2.65552 17.2149C-2.05144 16.0256 -1.35296 14.8552 -0.560103 13.7037" stroke="black" stroke-width="0.5"/>
<path d="M26.7934 15.78C26.2084 16.9693 25.5004 18.1398 24.6698 19.2913C23.8581 20.4239 22.867 21.3678 21.6966 22.1229C20.5262 22.878 19.1104 23.2556 17.4491 23.2556C16.1088 23.2556 14.9478 22.9724 13.9662 22.4061C13.0035 21.8397 12.1162 21.179 11.3045 20.4239C10.5116 19.6688 9.73762 19.0081 8.98253 18.4418C8.22744 17.8755 7.40627 17.5923 6.519 17.5923C5.31086 17.5923 4.27254 18.0453 3.40419 18.9515C2.53584 19.8387 1.73353 20.9619 0.997299 22.3211L-2.65552 20.5372C-2.05144 19.3479 -1.35296 18.1775 -0.560103 17.026" stroke="black" stroke-width="0.5"/>
</g>
<path d="M12.1667 0.25C18.38 0.25 23.4167 5.2868 23.4167 11.5C23.4167 17.7132 18.38 22.75 12.1667 22.75C5.95354 22.75 0.916748 17.7132 0.916748 11.5C0.916748 5.2868 5.95354 0.25 12.1667 0.25Z" stroke="black" stroke-width="0.5"/>
</g>
<defs>
<clipPath id="clip0_173_60">
<rect width="23" height="23" fill="white" transform="translate(0.666748)"/>
</clipPath>
</defs>
</svg>
