<svg width="600" height="600" viewBox="0 0 600 600" fill="none" xmlns="http://www.w3.org/2000/svg">
<path d="M246.366 137.227C263.503 134.572 281.262 133.177 299.51 133.177C316.591 133.177 333.243 134.399 349.358 136.733C347.343 128.03 342.985 120.172 336.953 113.798C324.687 112.551 312.19 111.909 299.51 111.909C285.609 111.909 271.928 112.681 258.53 114.175C252.567 120.602 248.291 128.498 246.366 137.227Z" fill="#18191A"/>
<path d="M223.306 141.635C224.019 133.503 226.146 125.756 229.451 118.622C97.8326 144.324 0 240.83 0 355.955C0 490.737 134.095 600 299.51 600C464.925 600 599.021 490.737 599.021 355.955C599.021 239.812 499.451 142.619 366.072 117.957C369.455 125.063 371.664 132.79 372.462 140.91C492.114 166.95 576.835 255.456 576.835 355.955C576.835 475.882 456.19 578.732 299.51 578.732C142.831 578.732 22.1859 475.882 22.1859 355.955C22.1859 256.369 105.374 168.559 223.306 141.635Z" fill="#18191A"/>
<path d="M501.792 3.57527C518.06 -4.67767 538.156 7.96274 535.737 24.3804C532.137 48.8264 528.323 82.2196 527.239 119.048C526.654 138.92 532.782 157.929 540.705 173.961C548.978 190.703 532.822 213.912 512.511 210.373C456.127 200.548 412.822 188.963 365.425 172.357C370.149 163.699 372.796 153.993 372.796 143.742C372.796 125.497 364.411 108.979 350.855 97.0247C398.164 61.0794 441.359 34.2321 501.792 3.57527Z" fill="#EBB9CE"/>
<path d="M232.334 111.844C171.576 81.6267 118.518 65.076 46.0564 45.7371C29.2499 41.2517 13.5592 55.0531 18.5012 69.917L39.8901 134.248C45.388 150.784 47.3002 168.087 45.5265 185.249L39.9578 239.128C38.435 253.862 55.3083 264.691 70.6778 258.771C139.451 232.281 187.262 210.864 236.228 181.19C227.911 170.548 223.041 157.647 223.041 143.742C223.041 132.174 226.412 121.3 232.334 111.844Z" fill="#EBB9CE"/>
<path d="M350.61 143.742C350.61 169.414 327.019 190.226 297.918 190.226C268.817 190.226 245.227 169.414 245.227 143.742C245.227 118.07 268.817 97.2585 297.918 97.2585C327.019 97.2585 350.61 118.07 350.61 143.742Z" fill="#EBB9CE"/>
<path fill-rule="evenodd" clip-rule="evenodd" d="M193.173 311.582C200.176 311.582 205.853 316.815 205.853 323.269V344.481C205.853 350.936 200.176 356.168 193.173 356.168C186.171 356.168 180.494 350.936 180.494 344.481V323.269C180.494 316.815 186.171 311.582 193.173 311.582ZM250.777 316.598C256.657 320.103 258.341 327.338 254.538 332.757L241.858 350.828C238.055 356.247 230.206 357.8 224.326 354.294C218.446 350.789 216.762 343.554 220.565 338.135L233.244 320.064C237.047 314.645 244.896 313.093 250.777 316.598ZM135.553 316.608C141.427 313.094 149.279 314.634 153.091 320.048L167.338 340.28C171.15 345.694 169.479 352.932 163.605 356.445C157.731 359.959 149.879 358.419 146.066 353.005L131.82 332.773C128.008 327.359 129.679 320.122 135.553 316.608Z" fill="#18191A"/>
<path d="M110.93 361.214C111.003 372.948 123.746 380.924 135.84 377.228C154.61 371.492 171.498 367.73 188.596 366.445C211.435 364.729 234.651 367.433 263.236 375.753C275.516 379.328 288.491 371.137 288.417 359.258C288.374 352.331 283.719 346.11 276.622 343.849C218.204 325.244 181.007 327.864 123.277 345.276C115.831 347.522 110.886 353.999 110.93 361.214Z" fill="#18191A"/>
<path fill-rule="evenodd" clip-rule="evenodd" d="M443.746 311.583C450.749 311.547 456.457 316.75 456.496 323.204L456.624 344.416C456.663 350.87 451.018 356.132 444.016 356.167C437.013 356.203 431.305 351 431.266 344.546L431.138 323.334C431.099 316.88 436.744 311.619 443.746 311.583ZM501.379 316.302C507.28 319.777 509.008 327.003 505.238 332.442L492.668 350.577C488.898 356.016 481.058 357.609 475.157 354.134C469.255 350.659 467.528 343.433 471.298 337.994L483.868 319.859C487.638 314.419 495.478 312.827 501.379 316.302ZM386.157 316.904C392.01 313.36 399.871 314.86 403.716 320.254L418.085 340.413C421.93 345.807 420.302 353.053 414.45 356.597C408.597 360.141 400.735 358.641 396.89 353.247L382.522 333.088C378.677 327.694 380.305 320.448 386.157 316.904Z" fill="#18191A"/>
<path d="M354.976 361.214C355.048 372.948 367.791 380.924 379.885 377.228C398.656 371.492 415.543 367.73 432.641 366.445C455.48 364.729 478.696 367.433 507.281 375.753C519.562 379.328 532.536 371.137 532.463 359.258C532.42 352.331 527.764 346.11 520.667 343.849C462.25 325.244 425.053 327.864 367.322 345.276C359.877 347.522 354.931 353.999 354.976 361.214Z" fill="#18191A"/>
<path fill-rule="evenodd" clip-rule="evenodd" d="M379.885 377.228C367.791 380.924 355.048 372.948 354.976 361.214C354.931 353.999 359.877 347.522 367.322 345.276C425.053 327.864 462.25 325.244 520.667 343.849C527.764 346.11 532.42 352.331 532.463 359.258C532.536 371.137 519.562 379.328 507.281 375.753C478.696 367.433 455.48 364.729 432.641 366.445C415.543 367.73 398.656 371.492 379.885 377.228Z" fill="#18191A"/>
</svg>
