<svg width="89" height="90" viewBox="0 0 89 90" fill="none" xmlns="http://www.w3.org/2000/svg">
<path d="M40.9653 33.3823C42.1454 33.1995 43.3684 33.1034 44.625 33.1034C45.8012 33.1034 46.948 33.1876 48.0576 33.3483C47.9189 32.749 47.6188 32.2079 47.2034 31.7689C46.3587 31.6831 45.4981 31.6389 44.625 31.6389C43.6677 31.6389 42.7256 31.692 41.803 31.7949C41.3923 32.2375 41.0979 32.7813 40.9653 33.3823Z" fill="black"/>
<path d="M39.3774 33.6859C39.4264 33.1259 39.5729 32.5924 39.8006 32.1012C30.737 33.871 24 40.5167 24 48.4445C24 57.7259 33.2341 65.25 44.625 65.25C56.0158 65.25 65.25 57.7259 65.25 48.4445C65.25 40.4467 58.3935 33.7537 49.2086 32.0554C49.4416 32.5447 49.5936 33.0768 49.6486 33.636C57.8881 35.4291 63.7222 41.5239 63.7222 48.4445C63.7222 56.7029 55.4143 63.7855 44.625 63.7855C33.8357 63.7855 25.5278 56.7029 25.5278 48.4445C25.5278 41.5867 31.2563 35.5399 39.3774 33.6859Z" fill="black"/>
<path d="M58.5544 24.1788C59.6747 23.6105 61.0586 24.4809 60.8921 25.6115C60.6441 27.2949 60.3815 29.5944 60.3068 32.1305C60.2666 33.4989 60.6886 34.8079 61.2341 35.9119C61.8039 37.0648 60.6913 38.663 59.2926 38.4193C55.41 37.7428 52.4279 36.945 49.1639 35.8015C49.4892 35.2053 49.6715 34.5369 49.6715 33.831C49.6715 32.5746 49.0941 31.4371 48.1606 30.6139C51.4185 28.1386 54.3929 26.2899 58.5544 24.1788Z" fill="#CECECE"/>
<path d="M39.9986 31.6344C35.8147 29.5536 32.161 28.4139 27.1711 27.0821C26.0138 26.7733 24.9333 27.7237 25.2736 28.7472L26.7465 33.1772C27.1251 34.3159 27.2568 35.5075 27.1347 36.6892L26.7512 40.3995C26.6463 41.4141 27.8082 42.1599 28.8666 41.7522C33.6025 39.928 36.8949 38.4532 40.2668 36.4098C39.694 35.6769 39.3587 34.7885 39.3587 33.831C39.3587 33.0344 39.5909 32.2856 39.9986 31.6344Z" fill="#CECECE"/>
<path d="M48.1437 33.831C48.1437 35.5988 46.5192 37.0319 44.5152 37.0319C42.5112 37.0319 40.8867 35.5988 40.8867 33.831C40.8867 32.0631 42.5112 30.63 44.5152 30.63C46.5192 30.63 48.1437 32.0631 48.1437 33.831Z" fill="#CECECE"/>
<path fill-rule="evenodd" clip-rule="evenodd" d="M37.3023 45.3889C37.7845 45.3889 38.1754 45.7491 38.1754 46.1937V47.6544C38.1754 48.0989 37.7845 48.4591 37.3023 48.4591C36.8201 48.4591 36.4292 48.0989 36.4292 47.6544V46.1937C36.4292 45.7491 36.8201 45.3889 37.3023 45.3889ZM41.269 45.7343C41.6739 45.9756 41.7898 46.4738 41.528 46.847L40.6548 48.0914C40.393 48.4646 39.8525 48.5716 39.4476 48.3302C39.0426 48.0888 38.9267 47.5906 39.1885 47.2173L40.0616 45.973C40.3235 45.5997 40.8642 45.4929 41.269 45.7343ZM33.3344 45.7349C33.7389 45.4929 34.2796 45.5991 34.5422 45.9719L35.5232 47.3651C35.7857 47.7378 35.6706 48.2364 35.2661 48.4782C34.8616 48.7202 34.3209 48.6142 34.0584 48.2414L33.0774 46.8481C32.8148 46.4753 32.9299 45.9769 33.3344 45.7349Z" fill="black"/>
<path d="M31.6387 48.8067C31.6437 49.6148 32.5212 50.164 33.354 49.9095C34.6466 49.5144 35.8095 49.2554 36.9869 49.167C38.5597 49.0487 40.1583 49.235 42.1269 49.8079C42.9725 50.054 43.8659 49.4899 43.8609 48.672C43.858 48.195 43.5373 47.7666 43.0486 47.6109C39.0258 46.3297 36.4644 46.5102 32.4889 47.7092C31.9762 47.8638 31.6356 48.3099 31.6387 48.8067Z" fill="black"/>
<mask id="mask0_714_170" style="mask-type:luminance" maskUnits="userSpaceOnUse" x="31" y="45" width="13" height="5">
<path fill-rule="evenodd" clip-rule="evenodd" d="M37.3023 45.3889C37.7845 45.3889 38.1754 45.7491 38.1754 46.1937V47.6544C38.1754 48.0989 37.7845 48.4591 37.3023 48.4591C36.8201 48.4591 36.4292 48.0989 36.4292 47.6544V46.1937C36.4292 45.7491 36.8201 45.3889 37.3023 45.3889ZM41.269 45.7343C41.6739 45.9756 41.7898 46.4738 41.528 46.847L40.6548 48.0914C40.393 48.4646 39.8525 48.5716 39.4476 48.3302C39.0426 48.0888 38.9267 47.5906 39.1885 47.2173L40.0616 45.973C40.3235 45.5997 40.8642 45.4929 41.269 45.7343ZM33.3344 45.7349C33.7389 45.4929 34.2796 45.5991 34.5422 45.9719L35.5232 47.3651C35.7857 47.7378 35.6706 48.2364 35.2661 48.4782C34.8616 48.7202 34.3209 48.6142 34.0584 48.2414L33.0774 46.8481C32.8148 46.4753 32.9299 45.9769 33.3344 45.7349Z" fill="black"/>
<path d="M31.6387 48.8067C31.6437 49.6147 32.5212 50.164 33.354 49.9094C34.6466 49.5144 35.8095 49.2554 36.9869 49.1669C38.5597 49.0487 40.1583 49.2349 42.1269 49.8078C42.9725 50.054 43.8659 49.4899 43.8609 48.6719C43.858 48.195 43.5373 47.7666 43.0486 47.6109C39.0258 46.3297 36.4644 46.5101 32.4889 47.7091C31.9762 47.8637 31.6356 48.3099 31.6387 48.8067Z" fill="black"/>
</mask>
<g mask="url(#mask0_714_170)">
<path fill-rule="evenodd" clip-rule="evenodd" d="M37.3023 45.3889C37.7845 45.3889 38.1754 45.7491 38.1754 46.1937V47.6544C38.1754 48.0989 37.7845 48.4591 37.3023 48.4591C36.8201 48.4591 36.4292 48.0989 36.4292 47.6544V46.1937C36.4292 45.7491 36.8201 45.3889 37.3023 45.3889ZM41.269 45.7343C41.6739 45.9756 41.7898 46.4738 41.528 46.847L40.6548 48.0914C40.393 48.4646 39.8525 48.5716 39.4476 48.3302C39.0426 48.0888 38.9267 47.5906 39.1885 47.2173L40.0616 45.973C40.3235 45.5997 40.8642 45.4929 41.269 45.7343ZM33.3344 45.7349C33.7389 45.4929 34.2796 45.5991 34.5422 45.9719L35.5232 47.3651C35.7857 47.7378 35.6706 48.2364 35.2661 48.4782C34.8616 48.7202 34.3209 48.6142 34.0584 48.2414L33.0774 46.8481C32.8148 46.4753 32.9299 45.9769 33.3344 45.7349Z" fill="black" stroke="black" stroke-width="2"/>
</g>
<mask id="mask1_714_170" style="mask-type:luminance" maskUnits="userSpaceOnUse" x="31" y="45" width="13" height="5">
<path fill-rule="evenodd" clip-rule="evenodd" d="M37.3023 45.3889C37.7845 45.3889 38.1754 45.7491 38.1754 46.1937V47.6544C38.1754 48.0989 37.7845 48.4591 37.3023 48.4591C36.8201 48.4591 36.4292 48.0989 36.4292 47.6544V46.1937C36.4292 45.7491 36.8201 45.3889 37.3023 45.3889ZM41.269 45.7343C41.6739 45.9756 41.7898 46.4738 41.528 46.847L40.6548 48.0914C40.393 48.4646 39.8525 48.5716 39.4476 48.3302C39.0426 48.0888 38.9267 47.5906 39.1885 47.2173L40.0616 45.973C40.3235 45.5997 40.8642 45.4929 41.269 45.7343ZM33.3344 45.7349C33.7389 45.4929 34.2796 45.5991 34.5422 45.9719L35.5232 47.3651C35.7857 47.7378 35.6706 48.2364 35.2661 48.4782C34.8616 48.7202 34.3209 48.6142 34.0584 48.2414L33.0774 46.8481C32.8148 46.4753 32.9299 45.9769 33.3344 45.7349Z" fill="black"/>
<path d="M31.6387 48.8067C31.6437 49.6147 32.5212 50.164 33.354 49.9094C34.6466 49.5144 35.8095 49.2554 36.9869 49.1669C38.5597 49.0487 40.1583 49.2349 42.1269 49.8078C42.9725 50.054 43.8659 49.4899 43.8609 48.6719C43.858 48.195 43.5373 47.7666 43.0486 47.6109C39.0258 46.3297 36.4644 46.5101 32.4889 47.7091C31.9762 47.8637 31.6356 48.3099 31.6387 48.8067Z" fill="black"/>
</mask>
<g mask="url(#mask1_714_170)">
<path d="M31.6387 48.8067C31.6437 49.6147 32.5212 50.164 33.354 49.9094C34.6466 49.5144 35.8095 49.2554 36.9869 49.1669C38.5597 49.0487 40.1583 49.2349 42.1269 49.8078C42.9725 50.054 43.8659 49.4899 43.8609 48.6719C43.858 48.195 43.5373 47.7666 43.0486 47.6109C39.0258 46.3297 36.4644 46.5101 32.4889 47.7091C31.9762 47.8637 31.6356 48.3099 31.6387 48.8067Z" fill="black" stroke="black" stroke-width="2"/>
</g>
<path fill-rule="evenodd" clip-rule="evenodd" d="M54.5578 45.3889C55.0401 45.3865 55.433 45.7447 55.4358 46.1891L55.4446 47.6499C55.4474 48.0943 55.0586 48.4567 54.5764 48.4591C54.0942 48.4616 53.7011 48.1033 53.6984 47.6589L53.6895 46.1982C53.6869 45.7537 54.0756 45.3913 54.5578 45.3889ZM58.5265 45.7139C58.9329 45.9531 59.0519 46.4509 58.7923 46.8253L57.9267 48.0741C57.6671 48.4487 57.1272 48.5584 56.7208 48.3192C56.3144 48.0798 56.1954 47.5822 56.4551 47.2077L57.3206 45.9588C57.5803 45.5843 58.1201 45.4746 58.5265 45.7139ZM50.5921 45.7554C50.9951 45.5113 51.5364 45.6146 51.8012 45.9861L52.7907 47.3742C53.0555 47.7456 52.9434 48.2446 52.5403 48.4888C52.1373 48.7327 51.596 48.6295 51.3312 48.2581L50.3417 46.8699C50.0769 46.4984 50.1891 45.9994 50.5921 45.7554Z" fill="black"/>
<path d="M48.4444 48.8067C48.4494 49.6148 49.327 50.164 50.1597 49.9095C51.4522 49.5144 52.6152 49.2554 53.7926 49.167C55.3653 49.0487 56.964 49.235 58.9326 49.8079C59.7782 50.054 60.6716 49.4899 60.6666 48.672C60.6637 48.195 60.343 47.7666 59.8543 47.6109C55.8315 46.3297 53.27 46.51 49.2946 47.7092C48.7818 47.8638 48.4413 48.3099 48.4444 48.8067Z" fill="black"/>
<path fill-rule="evenodd" clip-rule="evenodd" d="M50.1597 49.9095C49.327 50.164 48.4494 49.6148 48.4444 48.8067C48.4413 48.3099 48.7818 47.8638 49.2946 47.7092C53.27 46.51 55.8315 46.3297 59.8543 47.6109C60.343 47.7666 60.6637 48.195 60.6666 48.672C60.6716 49.4899 59.7782 50.054 58.9326 49.8079C56.964 49.235 55.3653 49.0487 53.7926 49.167C52.6152 49.2554 51.4522 49.5144 50.1597 49.9095Z" fill="black"/>
</svg>
