<svg width="33" height="33" viewBox="0 0 33 33" fill="none" xmlns="http://www.w3.org/2000/svg">
<g clip-path="url(#clip0_1081_7)">
<path d="M12.25 19.5859C13.0784 19.5859 13.75 18.9144 13.75 18.0859C13.75 17.2575 13.0784 16.5859 12.25 16.5859C11.4216 16.5859 10.75 17.2575 10.75 18.0859C10.75 18.9144 11.4216 19.5859 12.25 19.5859Z" fill="black"/>
<path d="M21.25 19.5859C22.0784 19.5859 22.75 18.9144 22.75 18.0859C22.75 17.2575 22.0784 16.5859 21.25 16.5859C20.4216 16.5859 19.75 17.2575 19.75 18.0859C19.75 18.9144 20.4216 19.5859 21.25 19.5859Z" fill="black"/>
<path d="M19.93 9.79619L20.555 7.34244C20.6174 7.09556 20.7706 6.88127 20.9839 6.74227C21.1973 6.60327 21.4552 6.54978 21.7062 6.59244L26.2113 7.33494C26.4058 7.36653 26.5869 7.45438 26.7322 7.58765C26.8775 7.72092 26.9805 7.89379 27.0287 8.08494L30.72 22.6312C30.7764 22.8599 30.7503 23.1011 30.6462 23.3124C30.5422 23.5237 30.3669 23.6915 30.1513 23.7862L21.7763 27.4987C21.6492 27.5564 21.5116 27.5873 21.372 27.5897C21.2325 27.592 21.094 27.5656 20.965 27.5121C20.8361 27.4587 20.7195 27.3793 20.6226 27.279C20.5256 27.1786 20.4502 27.0594 20.4013 26.9287L19.125 23.4674" stroke="black" stroke-width="2" stroke-linecap="round" stroke-linejoin="round"/>
<path d="M13.5691 9.79619L12.9441 7.34244C12.8817 7.09556 12.7285 6.88127 12.5152 6.74227C12.3018 6.60327 12.0439 6.54978 11.7928 6.59244L7.28784 7.33494C7.09325 7.36653 6.91216 7.45438 6.76689 7.58765C6.62163 7.72092 6.51854 7.89379 6.47034 8.08494L2.77909 22.6287C2.7227 22.8574 2.74883 23.0986 2.85287 23.3099C2.95692 23.5212 3.1322 23.689 3.34784 23.7837L11.7228 27.4962C11.8499 27.5539 11.9875 27.5848 12.1271 27.5872C12.2666 27.5895 12.4051 27.5631 12.5341 27.5096C12.663 27.4562 12.7796 27.3768 12.8765 27.2765C12.9735 27.1761 13.0488 27.0569 13.0978 26.9262L14.3741 23.4674" stroke="black" stroke-width="2" stroke-linecap="round" stroke-linejoin="round"/>
<path d="M10.75 10.375C12.705 9.84146 14.7235 9.57611 16.75 9.58622C18.7765 9.57611 20.795 9.84146 22.75 10.375" stroke="black" stroke-width="2" stroke-linecap="round" stroke-linejoin="round"/>
<path d="M22.75 22.7969C20.795 23.3304 18.7765 23.5957 16.75 23.5856C14.7235 23.5957 12.705 23.3304 10.75 22.7969" stroke="black" stroke-width="2" stroke-linecap="round" stroke-linejoin="round"/>
</g>
<defs>
<clipPath id="clip0_1081_7">
<rect width="32" height="32" fill="white" transform="translate(0.75 0.585938)"/>
</clipPath>
</defs>
</svg>
