<svg width="18" height="27" viewBox="0 0 12 18" fill="none" xmlns="http://www.w3.org/2000/svg">
<path fill-rule="evenodd" clip-rule="evenodd" d="M5.80313 17.1909C5.88806 17.188 5.97354 17.183 6.05952 17.1759C6.14386 17.1831 6.22768 17.1882 6.31095 17.1912C9.68392 17.3126 12.1428 14.0332 11.4103 10.6833C11.0529 9.04839 10.773 7.34453 10.5227 5.26717C10.4958 5.04367 10.4692 4.81585 10.4429 4.58332L7.80952 7.73147C7.7267 7.55564 7.64861 7.3897 7.57496 7.23259C6.36995 4.66231 6.34956 4.45441 6.15267 1.95806C6.15189 1.94809 6.1511 1.93808 6.15031 1.92804C6.12422 1.59731 6.09499 1.22667 6.05952 0.805542C5.91942 1.1536 5.78101 1.51718 5.6455 1.8891C4.76566 4.30384 4.0079 7.07045 3.70288 8.22726C3.61038 8.57809 3.55952 8.78085 3.55952 8.78085C3.55952 8.78085 3.39247 8.64207 3.1501 8.36459C2.75366 7.91072 2.1557 7.08576 1.75757 5.89004C1.62602 5.49494 1.51629 5.05937 1.44285 4.58332C1.3764 5.05157 1.3108 5.50039 1.24558 5.93227C0.986093 7.65036 0.732544 9.10019 0.455117 10.4373C-0.265958 13.9127 2.30908 17.3103 5.80313 17.1909ZM6.00284 16.1096L3.95859 9.24499L4.04449 8.9025L4.04771 8.88974L4.05761 8.8507C4.06639 8.81615 4.07951 8.76482 4.09671 8.69819C4.1311 8.56492 4.18182 8.37047 4.24684 8.12669C4.37693 7.63903 4.56417 6.95445 4.79261 6.16755C5.06319 5.23547 5.39023 4.16451 5.74734 3.10933C5.80073 3.66603 5.86062 4.10539 5.96097 4.52967C6.17013 5.41398 6.55449 6.24042 7.35719 7.94453L7.47101 8.18617L6.00284 16.1096ZM7.95063 8.34206L6.40318 16.6934C9.37373 16.7488 11.5882 13.8375 10.9219 10.7901C10.5875 9.26073 10.321 7.67465 10.0836 5.7921L7.95063 8.34206ZM3.47013 9.35663L5.65505 16.6936C2.58808 16.7102 0.290203 13.6933 0.94469 10.5389C1.17658 9.42124 1.39155 8.2273 1.60667 6.86914C1.81116 7.31547 2.03505 7.69651 2.24939 8.01209C2.50372 8.38654 2.74498 8.66946 2.92543 8.86114C3.01572 8.95703 3.09098 9.03029 3.14531 9.08095C3.17248 9.10628 3.19445 9.12598 3.21047 9.14006L3.22996 9.15696L3.2362 9.16225L3.23841 9.16411L3.23928 9.16484C3.23941 9.16495 3.23992 9.16537 3.36748 9.01193L3.23928 9.16484L3.47013 9.35663Z" fill="black"/>
</svg>
