<svg width="25" height="16" viewBox="0 0 25 16" fill="none" xmlns="http://www.w3.org/2000/svg">
<path fill-rule="evenodd" clip-rule="evenodd" d="M13.4337 12.5022V15.0725L19.5236 13.4883L19.5477 13.4838C22.1938 12.9855 24.1105 10.6743 24.1105 7.98171V3.64567C24.1105 2.02828 22.7993 0.717131 21.1819 0.717131H4.30279C2.32248 0.717131 0.717132 2.32248 0.717132 4.30279V8.91656C0.717132 10.8969 2.32249 12.5022 4.30279 12.5022H13.4337ZM12.7166 16V13.2193H4.30279C1.92642 13.2193 0 11.2929 0 8.91656V4.30279C0 1.92642 1.92642 0 4.30279 0H21.1819C23.1954 0 24.8276 1.63222 24.8276 3.64567V7.98171C24.8276 11.0192 22.6654 13.6265 19.6804 14.1885L12.7166 16Z" fill="#1F1F26"/>
<path fill-rule="evenodd" clip-rule="evenodd" d="M14.3449 8.27581C14.2255 8.55542 14.0683 8.79489 13.8852 8.99294C13.0483 9.89837 11.6706 9.93845 10.8886 8.99294C10.7592 8.83655 10.6462 8.65318 10.5546 8.4423C10.5309 8.38784 10.507 8.33236 10.4828 8.27581H14.3449Z" fill="#1F1F26"/>
<path fill-rule="evenodd" clip-rule="evenodd" d="M9.7656 7.55868V5.92179C9.7656 5.18027 9.16448 4.57915 8.42296 4.57915C7.82364 4.57915 7.3378 5.065 7.3378 5.66432V7.55868H9.7656ZM8.42296 3.86202C7.42758 3.86202 6.62066 4.66894 6.62066 5.66432V8.27581L10.4828 8.27581L10.4827 5.92179C10.4827 4.78421 9.56054 3.86202 8.42296 3.86202Z" fill="#1F1F26"/>
<path fill-rule="evenodd" clip-rule="evenodd" d="M17.4897 7.55868V5.92179C17.4897 5.18027 16.8886 4.57915 16.1471 4.57915C15.5478 4.57915 15.0619 5.065 15.0619 5.66432V7.55868H17.4897ZM16.1471 3.86202C15.1517 3.86202 14.3448 4.66894 14.3448 5.66432L14.3449 8.27581L18.2069 8.27581V5.92179C18.2069 4.78421 17.2847 3.86202 16.1471 3.86202Z" fill="#1F1F26"/>
<path fill-rule="evenodd" clip-rule="evenodd" d="M4.30279 0H21.1819C23.1954 0 24.8276 1.63222 24.8276 3.64567V7.98171C24.8276 11.0192 22.6654 13.6265 19.6804 14.1885L12.7166 16V13.2193H4.30279C1.92642 13.2193 0 11.2929 0 8.91656V4.30279C0 1.92642 1.92642 0 4.30279 0ZM19.5236 13.4883L19.5477 13.4838C22.1938 12.9855 24.1105 10.6743 24.1105 7.98171V3.64567C24.1105 2.02828 22.7993 0.717131 21.1819 0.717131H4.30279C2.32248 0.717131 0.717132 2.32248 0.717132 4.30279V8.91656C0.717132 10.8969 2.32249 12.5022 4.30279 12.5022H13.4337V15.0725L19.5236 13.4883ZM13.8852 8.99294C14.0683 8.79489 14.2255 8.55542 14.3449 8.27581L18.2069 8.27581V5.92179C18.2069 4.78421 17.2847 3.86202 16.1471 3.86202C15.1517 3.86202 14.3448 4.66894 14.3448 5.66432L14.3449 8.27581H10.4828L10.4827 5.92179C10.4827 4.78421 9.56054 3.86202 8.42296 3.86202C7.42758 3.86202 6.62066 4.66894 6.62066 5.66432V8.27581L10.4828 8.27581C10.507 8.33236 10.5309 8.38784 10.5546 8.4423C10.6462 8.65318 10.7592 8.83655 10.8886 8.99294C11.6706 9.93845 13.0483 9.89837 13.8852 8.99294ZM17.4897 5.92179V7.55868H15.0619V5.66432C15.0619 5.065 15.5478 4.57915 16.1471 4.57915C16.8886 4.57915 17.4897 5.18027 17.4897 5.92179ZM9.7656 7.55868V5.92179C9.7656 5.18027 9.16448 4.57915 8.42296 4.57915C7.82364 4.57915 7.3378 5.065 7.3378 5.66432V7.55868H9.7656Z" fill="#1F1F26"/>
</svg>
