<svg width="33" height="33" viewBox="0 0 33 33" fill="none" xmlns="http://www.w3.org/2000/svg">
<g clip-path="url(#clip0_1081_2)">
<path d="M15.4163 7.50781C14.8284 6.58791 14.0184 5.83088 13.0609 5.30657C12.1033 4.78226 11.0292 4.50756 9.9375 4.50781C9.4519 5.34738 9.16064 6.2851 9.08515 7.25204C9.00965 8.21899 9.15184 9.19055 9.50125 10.0953C8.81718 11.1027 8.44701 12.2902 8.4375 13.5078V14.5078C8.4375 16.0991 9.06964 17.6252 10.1949 18.7505C11.3201 19.8757 12.8462 20.5078 14.4375 20.5078H20.4375C22.0288 20.5078 23.5549 19.8757 24.6801 18.7505C25.8054 17.6252 26.4375 16.0991 26.4375 14.5078V13.5078C26.428 12.2902 26.0578 11.1027 25.3738 10.0953C25.7232 9.19055 25.8653 8.21899 25.7899 7.25204C25.7144 6.2851 25.4231 5.34738 24.9375 4.50781C23.8458 4.50756 22.7717 4.78226 21.8141 5.30657C20.8566 5.83088 20.0466 6.58791 19.4587 7.50781H15.4163Z" stroke="black" stroke-width="2" stroke-linecap="round" stroke-linejoin="round"/>
<path d="M13.4375 29.5078V24.5078C13.4375 23.4469 13.8589 22.4295 14.6091 21.6794C15.3592 20.9292 16.3766 20.5078 17.4375 20.5078C18.4984 20.5078 19.5158 20.9292 20.2659 21.6794C21.0161 22.4295 21.4375 23.4469 21.4375 24.5078V29.5078" stroke="black" stroke-width="2" stroke-linecap="round" stroke-linejoin="round"/>
<path d="M13.4375 26.5078H9.4375C8.37663 26.5078 7.35922 26.0864 6.60907 25.3362C5.85893 24.5861 5.4375 23.5687 5.4375 22.5078C5.4375 21.4469 5.01607 20.4295 4.26593 19.6794C3.51578 18.9292 2.49837 18.5078 1.4375 18.5078" stroke="black" stroke-width="2" stroke-linecap="round" stroke-linejoin="round"/>
</g>
<defs>
<clipPath id="clip0_1081_2">
<rect width="32" height="32" fill="white" transform="translate(0.4375 0.507812)"/>
</clipPath>
</defs>
</svg>
