<svg width="247" height="164" viewBox="0 0 247 164" fill="none" xmlns="http://www.w3.org/2000/svg">
<path d="M148.588 9H147.477V1.67285L145.189 2.5437V1.52871L148.498 0.255469H148.588V9ZM157.761 5.65474C157.761 6.21128 157.697 6.70576 157.569 7.13818C157.441 7.5666 157.257 7.92695 157.016 8.21924C156.776 8.51553 156.482 8.73975 156.134 8.89189C155.785 9.04404 155.387 9.12012 154.938 9.12012C154.494 9.12012 154.096 9.04604 153.743 8.8979C153.391 8.74575 153.093 8.51953 152.848 8.21924C152.604 7.92695 152.418 7.5666 152.29 7.13818C152.162 6.70576 152.098 6.21128 152.098 5.65474V3.60674C152.098 3.0502 152.162 2.55771 152.29 2.1293C152.418 1.69687 152.604 1.33252 152.848 1.03623C153.089 0.739941 153.383 0.515723 153.731 0.363574C154.084 0.207422 154.482 0.129346 154.926 0.129346C155.375 0.129346 155.773 0.207422 156.122 0.363574C156.474 0.515723 156.772 0.739941 157.016 1.03623C157.257 1.33252 157.441 1.69687 157.569 2.1293C157.697 2.55771 157.761 3.0502 157.761 3.60674V5.65474ZM153.215 5.43252L156.62 2.81997C156.588 2.53169 156.53 2.27744 156.446 2.05723C156.366 1.83301 156.256 1.64683 156.116 1.49868C155.979 1.34653 155.811 1.23242 155.611 1.15635C155.415 1.08027 155.187 1.04224 154.926 1.04224C154.662 1.04224 154.428 1.08428 154.224 1.16836C154.023 1.24844 153.853 1.36655 153.713 1.5227C153.545 1.7189 153.419 1.97314 153.335 2.28545C153.255 2.59375 153.215 2.9521 153.215 3.3605V4.82593C153.215 4.92603 153.215 5.02612 153.215 5.12622C153.215 5.22632 153.215 5.32842 153.215 5.43252ZM156.644 5.88896V4.65176C156.644 4.5917 156.644 4.47759 156.644 4.30942C156.644 4.13726 156.644 3.99512 156.644 3.88301L153.245 6.48354C153.281 6.77583 153.345 7.03408 153.437 7.2583C153.529 7.47852 153.649 7.66069 153.797 7.80483C153.933 7.94097 154.098 8.04507 154.29 8.11714C154.482 8.18521 154.698 8.21924 154.938 8.21924C155.191 8.21924 155.415 8.1812 155.611 8.10513C155.807 8.02905 155.973 7.91895 156.11 7.7748C156.294 7.57861 156.428 7.32236 156.512 7.00605C156.6 6.68975 156.644 6.31738 156.644 5.88896ZM165.048 5.65474C165.048 6.21128 164.984 6.70576 164.856 7.13818C164.728 7.5666 164.544 7.92695 164.304 8.21924C164.063 8.51553 163.769 8.73975 163.421 8.89189C163.072 9.04404 162.674 9.12012 162.226 9.12012C161.781 9.12012 161.383 9.04604 161.03 8.8979C160.678 8.74575 160.38 8.51953 160.136 8.21924C159.891 7.92695 159.705 7.5666 159.577 7.13818C159.449 6.70576 159.385 6.21128 159.385 5.65474V3.60674C159.385 3.0502 159.449 2.55771 159.577 2.1293C159.705 1.69687 159.891 1.33252 160.136 1.03623C160.376 0.739941 160.67 0.515723 161.018 0.363574C161.371 0.207422 161.769 0.129346 162.214 0.129346C162.662 0.129346 163.06 0.207422 163.409 0.363574C163.761 0.515723 164.059 0.739941 164.304 1.03623C164.544 1.33252 164.728 1.69687 164.856 2.1293C164.984 2.55771 165.048 3.0502 165.048 3.60674V5.65474ZM160.502 5.43252L163.907 2.81997C163.875 2.53169 163.817 2.27744 163.733 2.05723C163.653 1.83301 163.543 1.64683 163.403 1.49868C163.267 1.34653 163.098 1.23242 162.898 1.15635C162.702 1.08027 162.474 1.04224 162.214 1.04224C161.949 1.04224 161.715 1.08428 161.511 1.16836C161.311 1.24844 161.141 1.36655 161 1.5227C160.832 1.7189 160.706 1.97314 160.622 2.28545C160.542 2.59375 160.502 2.9521 160.502 3.3605V4.82593C160.502 4.92603 160.502 5.02612 160.502 5.12622C160.502 5.22632 160.502 5.32842 160.502 5.43252ZM163.931 5.88896V4.65176C163.931 4.5917 163.931 4.47759 163.931 4.30942C163.931 4.13726 163.931 3.99512 163.931 3.88301L160.532 6.48354C160.568 6.77583 160.632 7.03408 160.724 7.2583C160.816 7.47852 160.936 7.66069 161.084 7.80483C161.221 7.94097 161.385 8.04507 161.577 8.11714C161.769 8.18521 161.985 8.21924 162.226 8.21924C162.478 8.21924 162.702 8.1812 162.898 8.10513C163.094 8.02905 163.261 7.91895 163.397 7.7748C163.581 7.57861 163.715 7.32236 163.799 7.00605C163.887 6.68975 163.931 6.31738 163.931 5.88896ZM166.065 1.829C166.065 1.60078 166.099 1.38457 166.168 1.18037C166.24 0.972168 166.344 0.78999 166.48 0.633838C166.612 0.477685 166.778 0.355566 166.978 0.26748C167.179 0.17539 167.409 0.129346 167.669 0.129346C167.933 0.129346 168.165 0.17539 168.366 0.26748C168.57 0.355566 168.74 0.477685 168.876 0.633838C169.008 0.78999 169.108 0.972168 169.176 1.18037C169.249 1.38457 169.285 1.60078 169.285 1.829V2.29145C169.285 2.51968 169.249 2.73589 169.176 2.94009C169.108 3.14429 169.008 3.32246 168.876 3.47461C168.74 3.63076 168.572 3.75488 168.372 3.84697C168.171 3.93506 167.941 3.9791 167.681 3.9791C167.421 3.9791 167.189 3.93506 166.984 3.84697C166.784 3.75488 166.616 3.63076 166.48 3.47461C166.344 3.32246 166.24 3.14429 166.168 2.94009C166.099 2.73589 166.065 2.51968 166.065 2.29145V1.829ZM166.894 2.29145C166.894 2.41558 166.908 2.53569 166.936 2.65181C166.964 2.76392 167.01 2.86401 167.074 2.9521C167.138 3.04419 167.219 3.11826 167.315 3.17432C167.415 3.22637 167.537 3.25239 167.681 3.25239C167.821 3.25239 167.939 3.22637 168.035 3.17432C168.135 3.11826 168.216 3.04419 168.276 2.9521C168.336 2.86401 168.38 2.76392 168.408 2.65181C168.44 2.53569 168.456 2.41558 168.456 2.29145V1.829C168.456 1.70488 168.44 1.58477 168.408 1.46865C168.38 1.34854 168.336 1.24243 168.276 1.15034C168.212 1.06226 168.129 0.992187 168.029 0.940137C167.933 0.884082 167.813 0.856055 167.669 0.856055C167.529 0.856055 167.409 0.884082 167.309 0.940137C167.213 0.992187 167.134 1.06226 167.074 1.15034C167.01 1.24243 166.964 1.34854 166.936 1.46865C166.908 1.58477 166.894 1.70488 166.894 1.829V2.29145ZM169.675 6.97002C169.675 6.7418 169.709 6.52559 169.777 6.32139C169.849 6.11719 169.953 5.93701 170.089 5.78086C170.225 5.62471 170.394 5.50259 170.594 5.4145C170.794 5.32241 171.024 5.27637 171.285 5.27637C171.549 5.27637 171.781 5.32241 171.981 5.4145C172.181 5.50259 172.35 5.62471 172.486 5.78086C172.622 5.93701 172.724 6.11719 172.792 6.32139C172.864 6.52559 172.9 6.7418 172.9 6.97002V7.43848C172.9 7.6667 172.864 7.88291 172.792 8.08711C172.724 8.29131 172.622 8.46948 172.486 8.62163C172.35 8.77778 172.181 8.9019 171.981 8.99399C171.785 9.08208 171.557 9.12612 171.297 9.12612C171.032 9.12612 170.798 9.08208 170.594 8.99399C170.394 8.9019 170.225 8.77778 170.089 8.62163C169.953 8.46948 169.849 8.29131 169.777 8.08711C169.709 7.88291 169.675 7.6667 169.675 7.43848V6.97002ZM170.504 7.43848C170.504 7.5626 170.518 7.68271 170.546 7.79883C170.578 7.91494 170.626 8.01704 170.69 8.10513C170.75 8.19722 170.83 8.27129 170.93 8.32734C171.03 8.37939 171.152 8.40542 171.297 8.40542C171.437 8.40542 171.555 8.37939 171.651 8.32734C171.751 8.27129 171.831 8.19722 171.891 8.10513C171.951 8.01704 171.995 7.91494 172.023 7.79883C172.051 7.68271 172.065 7.5626 172.065 7.43848V6.97002C172.065 6.8459 172.051 6.72578 172.023 6.60967C171.995 6.49355 171.951 6.38945 171.891 6.29736C171.827 6.20928 171.745 6.13921 171.645 6.08716C171.545 6.0311 171.425 6.00308 171.285 6.00308C171.14 6.00308 171.018 6.0311 170.918 6.08716C170.822 6.13921 170.744 6.20928 170.684 6.29736C170.62 6.38945 170.574 6.49355 170.546 6.60967C170.518 6.72578 170.504 6.8459 170.504 6.97002V7.43848ZM168.192 7.8709L167.525 7.49854L170.93 1.27046L171.597 1.64282L168.192 7.8709ZM187.084 6.36943C187.032 6.77383 186.928 7.14619 186.772 7.48652C186.616 7.82285 186.413 8.11113 186.165 8.35137C185.913 8.59561 185.615 8.78579 185.27 8.92192C184.93 9.05405 184.55 9.12012 184.129 9.12012C183.769 9.12012 183.441 9.07007 183.144 8.96997C182.852 8.86587 182.592 8.72373 182.364 8.54355C182.131 8.36338 181.931 8.15117 181.763 7.90693C181.599 7.6627 181.463 7.39644 181.355 7.10815C181.242 6.81987 181.158 6.51758 181.102 6.20127C181.05 5.88496 181.022 5.56465 181.018 5.24033V4.02114C181.022 3.69683 181.05 3.37651 181.102 3.0602C181.158 2.7439 181.242 2.4416 181.355 2.15332C181.463 1.86504 181.599 1.59878 181.763 1.35454C181.931 1.1063 182.131 0.89209 182.364 0.711914C182.592 0.531738 182.852 0.391601 183.144 0.291504C183.437 0.187402 183.765 0.135351 184.129 0.135351C184.566 0.135351 184.956 0.203418 185.3 0.339551C185.645 0.47168 185.941 0.659863 186.189 0.904101C186.438 1.15234 186.636 1.44863 186.784 1.79297C186.936 2.1373 187.036 2.51768 187.084 2.93408H185.973C185.937 2.66982 185.875 2.42358 185.787 2.19536C185.699 1.96714 185.581 1.76694 185.433 1.59478C185.284 1.42261 185.102 1.28848 184.886 1.19238C184.674 1.09229 184.422 1.04224 184.129 1.04224C183.865 1.04224 183.631 1.08628 183.427 1.17437C183.226 1.25845 183.054 1.37456 182.91 1.5227C182.762 1.67085 182.638 1.84302 182.538 2.03921C182.442 2.2354 182.364 2.4436 182.303 2.66382C182.243 2.88403 182.199 3.11025 182.171 3.34248C182.147 3.5707 182.135 3.79292 182.135 4.00913V5.24033C182.135 5.45654 182.147 5.68076 182.171 5.91299C182.199 6.14121 182.243 6.36543 182.303 6.58564C182.364 6.80986 182.442 7.02007 182.538 7.21626C182.634 7.41245 182.756 7.58462 182.904 7.73276C183.052 7.88491 183.226 8.00503 183.427 8.09312C183.627 8.1772 183.861 8.21924 184.129 8.21924C184.422 8.21924 184.674 8.17319 184.886 8.0811C185.102 7.98901 185.284 7.85889 185.433 7.69072C185.581 7.52656 185.699 7.33237 185.787 7.10815C185.875 6.87993 185.937 6.63369 185.973 6.36943H187.084ZM194.395 5.13223C194.391 5.44453 194.363 5.76084 194.311 6.08115C194.263 6.39746 194.187 6.70376 194.083 7.00005C193.979 7.29634 193.845 7.57261 193.681 7.82886C193.521 8.08511 193.328 8.30933 193.104 8.50151C192.88 8.6937 192.622 8.84585 192.329 8.95796C192.041 9.06606 191.717 9.12012 191.356 9.12012C190.996 9.12012 190.67 9.06606 190.377 8.95796C190.089 8.84585 189.833 8.6937 189.609 8.50151C189.384 8.30933 189.19 8.08511 189.026 7.82886C188.862 7.5686 188.728 7.29033 188.624 6.99404C188.516 6.69775 188.436 6.39146 188.383 6.07515C188.331 5.75884 188.303 5.44453 188.299 5.13223V4.13525C188.303 3.82295 188.329 3.50864 188.377 3.19233C188.43 2.87202 188.51 2.56372 188.618 2.26743C188.722 1.97114 188.854 1.69487 189.014 1.43862C189.178 1.17837 189.372 0.950146 189.597 0.753955C189.821 0.561767 190.077 0.411621 190.365 0.303515C190.658 0.191406 190.984 0.135351 191.344 0.135351C191.705 0.135351 192.031 0.191406 192.323 0.303515C192.616 0.411621 192.874 0.561767 193.098 0.753955C193.322 0.946142 193.515 1.17236 193.675 1.43262C193.839 1.68887 193.975 1.96514 194.083 2.26143C194.187 2.55771 194.263 2.86602 194.311 3.18633C194.363 3.50664 194.391 3.82295 194.395 4.13525V5.13223ZM193.296 4.12324C193.292 3.91504 193.278 3.69883 193.254 3.47461C193.23 3.24639 193.19 3.02017 193.134 2.79595C193.074 2.57573 192.996 2.36553 192.9 2.16533C192.804 1.96113 192.684 1.78096 192.54 1.6248C192.395 1.47266 192.225 1.35254 192.029 1.26445C191.833 1.17236 191.605 1.12632 191.344 1.12632C191.088 1.12632 190.862 1.17236 190.666 1.26445C190.47 1.35654 190.299 1.47866 190.155 1.63081C190.011 1.78696 189.891 1.96714 189.795 2.17134C189.699 2.37153 189.623 2.58174 189.567 2.80195C189.507 3.02617 189.463 3.25239 189.435 3.48062C189.411 3.70483 189.396 3.91904 189.392 4.12324V5.13223C189.396 5.33643 189.411 5.55264 189.435 5.78086C189.463 6.00908 189.507 6.2333 189.567 6.45352C189.627 6.67773 189.705 6.89194 189.801 7.09614C189.897 7.30034 190.017 7.47852 190.161 7.63066C190.305 7.78682 190.476 7.91094 190.672 8.00303C190.868 8.09512 191.096 8.14116 191.356 8.14116C191.617 8.14116 191.845 8.09512 192.041 8.00303C192.241 7.91094 192.413 7.78682 192.558 7.63066C192.698 7.47852 192.814 7.30234 192.906 7.10215C193.002 6.89795 193.08 6.68374 193.14 6.45952C193.196 6.23931 193.234 6.01509 193.254 5.78687C193.278 5.55864 193.292 5.34043 193.296 5.13223V4.12324ZM197.214 0.255469L198.638 4.62773L200.175 0.255469H201.556V9H200.475V5.5106L200.565 1.85903L198.95 6.56763H198.313L196.83 1.98516L196.92 5.5106V9H195.839V0.255469H197.214ZM204.501 0.255469L205.925 4.62773L207.462 0.255469H208.844V9H207.763V5.5106L207.853 1.85903L206.237 6.56763H205.6L204.117 1.98516L204.207 5.5106V9H203.126V0.255469H204.501ZM216.059 0.255469L216.071 6.17725C216.071 6.58564 215.999 6.96802 215.855 7.32437C215.71 7.68071 215.512 7.99102 215.26 8.25527C215.008 8.52354 214.707 8.73574 214.359 8.89189C214.011 9.04404 213.628 9.12012 213.212 9.12012C212.788 9.12012 212.401 9.04404 212.053 8.89189C211.705 8.73975 211.406 8.52954 211.158 8.26128C210.91 7.99702 210.716 7.68672 210.575 7.33037C210.435 6.97002 210.363 6.58564 210.359 6.17725L210.371 0.255469H211.428L211.452 6.17725C211.456 6.4375 211.496 6.68774 211.572 6.92798C211.652 7.16821 211.767 7.38042 211.915 7.5646C212.059 7.74878 212.239 7.89692 212.455 8.00903C212.675 8.12114 212.928 8.1772 213.212 8.1772C213.496 8.1772 213.747 8.12314 213.963 8.01504C214.179 7.90293 214.361 7.75278 214.509 7.5646C214.653 7.38042 214.764 7.16821 214.84 6.92798C214.916 6.68774 214.958 6.4375 214.966 6.17725L214.984 0.255469H216.059ZM223.334 9H222.205L218.812 2.46562L218.794 9H217.67V0.255469H218.8L222.193 6.77783L222.211 0.255469H223.334V9ZM225.144 0.255469H230.429V1.22241H228.333V8.03906H230.429V9H225.144V8.03906H227.192V1.22241H225.144V0.255469ZM238.329 1.20439H235.626V9H234.545V1.20439H231.842V0.255469H238.329V1.20439ZM242.295 4.64575L244.289 0.255469H245.55L242.829 5.73882L242.811 9H241.778L241.76 5.73882L239.04 0.255469H240.307L242.295 4.64575Z" fill="#7A7A7A"/>
<path d="M140 5H94V28" stroke="#ABABAB"/>
<path d="M69.5 24.5018V24.5511V24.6902V24.8298V24.9699V25.1106V25.2517V25.3934V25.5355V25.6782V25.8213V25.965V26.1091V26.2537V26.3988V26.5444V26.6905V26.837V26.984V27.1315V27.2794V27.4278V27.5767V27.726V27.8758V28.026V28.1767V28.3278V28.4794V28.6313V28.7838V28.9366V29.0899V29.2436V29.3977V29.5523V29.7072V29.8626V30.0184V30.1746V30.3312V30.4882V30.6456V30.8033V30.9615V31.1201V31.279V31.4383V31.598V31.7581V31.9185V32.0793V32.2405V32.4021V32.564V32.7262V32.8888V33.0518V33.2151V33.3787V33.5427V33.707V33.8717V34.0367V34.202V34.3676V34.5336V34.6999V34.8665V35.0334V35.2006V35.3681V35.5359V35.704V35.8725V36.0412V36.2102V36.3795V36.549V36.7189V36.889V37.0594V37.2301V37.401V37.5722V37.7437V37.9154V38.0874V38.2597V38.4321V38.6049V38.7778V38.9511V39.1245V39.2982V39.4721V39.6463V39.8206V39.9952V40.17V40.345V40.5203V40.6957V40.8714V41.0472V41.2233V41.3995V41.5759V41.7526V41.9294V42.1064V42.2836V42.4609V42.6384V42.8161V42.994V43.172V43.3502V43.5286V43.7071V43.8858V44.0646V44.2435V44.4226V44.6019V44.7812V44.9608V45.1404V45.3202V45.5001V45.6801V45.8602V46.0404V46.2208V46.4013V46.5818V46.7625V46.9433V47.1241V47.3051V47.4862V47.6673V47.8485V48.0298V48.2112V48.3926V48.5742V48.7558V48.9374V49.1191V49.3009V49.4827V49.6646V49.8466V50.0285V50.2106V50.3926V50.5747V50.7568V50.939V51.1212V51.3034V51.4856V51.6679V51.8501V52.0324V52.2147V52.397V52.5793V52.7616V52.9439V53.1261V53.3084V53.4907V53.6729V53.8551V54.0373V54.2195V54.4016V54.5837V54.7658V54.9478V55.1298V55.3118V55.4937V55.6755V55.8573V56.0391V56.2207V56.4023V56.5839V56.7654V56.9468V57.1281V57.3093V57.4905V57.6716V57.8526V58.0335V58.2143V58.395V58.5756V58.7561V58.9365V59.1168V59.2969V59.477V59.6569V59.8367V60.0164V60.196V60.3754V60.5547V60.7338V60.9128V61.0917V61.2704V61.449V61.6274V61.8056V61.9837V62.1616V62.3394V62.517V62.6944V62.8716V63.0487V63.2256V63.4022V63.5787V63.7551V63.9312V64.1071V64.2828V64.4583V64.6336V64.8087V64.9836V65.1582V65.3327V65.5069V65.6809V65.8547V66.0282V66.2015V66.3745V66.5473V66.7199V66.8922V67.0643V67.2361V67.4077V67.579V67.75V67.9208V68.0913V68.2615V68.4314V68.6011V68.7705V68.9396V69.1084V69.2769V69.4451V69.613V69.7807V69.948V70.115V70.2817V70.4481V70.6141V70.7799V70.9453V71.1104V71.2752V71.4396V71.6037V71.7674V71.9309V72.0939V72.2567V72.419V72.5811V72.7427V72.904V73.0649V73.2255V73.3857V73.5455V73.705V73.864V74.0227V74.181V74.3389V74.4965V74.6536V74.8103V74.9666V75.1225V75.278V75.4331V75.5878V75.7421V75.8959V76.0494V76.2024V76.3549V76.5071V76.6588V76.81V76.9608V77.1112V77.2611V77.4106V77.5596V77.7082V77.8563V78.0039V78.1511V78.2978V78.444V78.5897V78.735V78.8798V79.0241V79.1679V79.3112V79.454V79.5963V79.7382V79.8795V80.0203V80.1606V80.3004V80.4396V80.5784V80.7166V80.8543V80.9914V81.1281V81.2642V81.3997V81.5347V81.6692V81.8031V81.9365V82.0693V82.2015V82.3332V82.4644V82.5949V82.7249V82.8543V82.9832V83.1114V83.2391V83.3662V83.4927V83.6186V83.7439V83.8686V83.9927V84.1162V84.2391V84.3614V84.4831V84.6041V84.7246V84.8444V84.9636V85.0821V85.2001V85.3173V85.434V85.55V85.6653V85.7801V85.8941V86.0075V86.1203V86.2323V86.3438V86.4545V86.5646V86.674V86.7827V86.8908V86.9981V87.1048V87.2108V87.3161V87.4207V87.5246V87.6278V87.7303V87.8321V87.9331V88.0335V88.1331V88.2321V88.3303V88.4277V88.5245V88.6205V88.7158V88.8103V88.9041V88.9971V89.0894V89.181V89.2718V89.3618V89.451V89.5396V89.6273V89.7142V89.8004V89.8859V89.9705V90.0543V90.1374V90.2197V90.3012V90.3818V90.4617V90.5408V90.6191V90.6966V90.7732V90.8491V90.9241V90.9983V91.0717V91.1442V91.216V91.2868V91.3569V91.4261V91.4945V91.562V91.6287V91.6945V91.7595V91.8236V91.8868V91.9492V92.0107V92.0714V92.1311V92.19V92.2481V92.3052V92.3614V92.4168V92.4712V92.5248V92.5775V92.6292V92.6801V92.73V92.7791V92.8272V92.8744V92.9207V92.9661V93.0105V93.054V93.0966V93.1382V93.1789V93.2186V93.2574V93.2953V93.3322V93.3681V93.4031V93.4372V93.4702V93.5023V93.5334V93.5636V93.5928V93.6209V93.6481V93.6744V93.6996V93.7238V93.7471V93.7693V93.7906V93.8108V93.83V93.8482V93.8654V93.8816V93.8968V93.9109V93.924V93.9361V93.9471V93.9571V93.9661V93.974V93.9809V93.9867V93.9915V93.9952V93.9979V93.9995C69.5 93.9998 69.5 94 70 94C70.5 94 70.5 93.9998 70.5 93.9995V93.9979V93.9952V93.9915V93.9867V93.9809V93.974V93.9661V93.9571V93.9471V93.9361V93.924V93.9109V93.8968V93.8816V93.8654V93.8482V93.83V93.8108V93.7906V93.7693V93.7471V93.7238V93.6996V93.6744V93.6481V93.6209V93.5928V93.5636V93.5334V93.5023V93.4702V93.4372V93.4031V93.3681V93.3322V93.2953V93.2574V93.2186V93.1789V93.1382V93.0966V93.054V93.0105V92.9661V92.9207V92.8744V92.8272V92.7791V92.73V92.6801V92.6292V92.5775V92.5248V92.4712V92.4168V92.3614V92.3052V92.2481V92.19V92.1311V92.0714V92.0107V91.9492V91.8868V91.8236V91.7595V91.6945V91.6287V91.562V91.4945V91.4261V91.3569V91.2868V91.216V91.1442V91.0717V90.9983V90.9241V90.8491V90.7732V90.6966V90.6191V90.5408V90.4617V90.3818V90.3012V90.2197V90.1374V90.0543V89.9705V89.8859V89.8004V89.7142V89.6273V89.5396V89.451V89.3618V89.2718V89.181V89.0894V88.9971V88.9041V88.8103V88.7158V88.6205V88.5245V88.4277V88.3303V88.2321V88.1331V88.0335V87.9331V87.8321V87.7303V87.6278V87.5246V87.4207V87.3161V87.2108V87.1048V86.9981V86.8908V86.7827V86.674V86.5646V86.4545V86.3438V86.2323V86.1203V86.0075V85.8941V85.7801V85.6653V85.55V85.434V85.3173V85.2001V85.0821V84.9636V84.8444V84.7246V84.6041V84.4831V84.3614V84.2391V84.1162V83.9927V83.8686V83.7439V83.6186V83.4927V83.3662V83.2391V83.1114V82.9832V82.8543V82.7249V82.5949V82.4644V82.3332V82.2015V82.0693V81.9365V81.8031V81.6692V81.5347V81.3997V81.2642V81.1281V80.9914V80.8543V80.7166V80.5784V80.4396V80.3004V80.1606V80.0203V79.8795V79.7382V79.5963V79.454V79.3112V79.1679V79.0241V78.8798V78.735V78.5897V78.444V78.2978V78.1511V78.0039V77.8563V77.7082V77.5596V77.4106V77.2611V77.1112V76.9608V76.81V76.6588V76.5071V76.3549V76.2024V76.0494V75.8959V75.7421V75.5878V75.4331V75.278V75.1225V74.9666V74.8103V74.6536V74.4965V74.3389V74.181V74.0227V73.864V73.705V73.5455V73.3857V73.2255V73.0649V72.904V72.7427V72.5811V72.419V72.2567V72.0939V71.9309V71.7674V71.6037V71.4396V71.2752V71.1104V70.9453V70.7799V70.6141V70.4481V70.2817V70.115V69.948V69.7807V69.613V69.4451V69.2769V69.1084V68.9396V68.7705V68.6011V68.4314V68.2615V68.0913V67.9208V67.75V67.579V67.4077V67.2361V67.0643V66.8922V66.7199V66.5473V66.3745V66.2015V66.0282V65.8547V65.6809V65.5069V65.3327V65.1582V64.9836V64.8087V64.6336V64.4583V64.2828V64.1071V63.9312V63.7551V63.5787V63.4022V63.2256V63.0487V62.8716V62.6944V62.517V62.3394V62.1616V61.9837V61.8056V61.6274V61.449V61.2704V61.0917V60.9128V60.7338V60.5547V60.3754V60.196V60.0164V59.8367V59.6569V59.477V59.2969V59.1168V58.9365V58.7561V58.5756V58.395V58.2143V58.0335V57.8526V57.6716V57.4905V57.3093V57.1281V56.9468V56.7654V56.5839V56.4023V56.2207V56.0391V55.8573V55.6755V55.4937V55.3118V55.1298V54.9478V54.7658V54.5837V54.4016V54.2195V54.0373V53.8551V53.6729V53.4907V53.3084V53.1261V52.9439V52.7616V52.5793V52.397V52.2147V52.0324V51.8501V51.6679V51.4856V51.3034V51.1212V50.939V50.7568V50.5747V50.3926V50.2106V50.0285V49.8466V49.6646V49.4827V49.3009V49.1191V48.9374V48.7558V48.5742V48.3926V48.2112V48.0298V47.8485V47.6673V47.4862V47.3051V47.1241V46.9433V46.7625V46.5818V46.4013V46.2208V46.0404V45.8602V45.6801V45.5001V45.3202V45.1404V44.9608V44.7812V44.6019V44.4226V44.2435V44.0646V43.8858V43.7071V43.5286V43.3502V43.172V42.994V42.8161V42.6384V42.4609V42.2836V42.1064V41.9294V41.7526V41.5759V41.3995V41.2233V41.0472V40.8714V40.6957V40.5203V40.345V40.17V39.9952V39.8206V39.6463V39.4721V39.2982V39.1245V38.9511V38.7778V38.6049V38.4321V38.2597V38.0874V37.9154V37.7437V37.5722V37.401V37.2301V37.0594V36.889V36.7189V36.549V36.3795V36.2102V36.0412V35.8725V35.704V35.5359V35.3681V35.2006V35.0334V34.8665V34.6999V34.5336V34.3676V34.202V34.0367V33.8717V33.707V33.5427V33.3787V33.2151V33.0518V32.8888V32.7262V32.564V32.4021V32.2405V32.0793V31.9185V31.7581V31.598V31.4383V31.279V31.1201V30.9615V30.8033V30.6456V30.4882V30.3312V30.1746V30.0184V29.8626V29.7072V29.5523V29.3977V29.2436V29.0899V28.9366V28.7838V28.6313V28.4794V28.3278V28.1767V28.026V27.8758V27.726V27.5767V27.4278V27.2794V27.1315V26.984V26.837V26.6905V26.5444V26.3988V26.2537V26.1091V25.965V25.8213V25.6782V25.5355V25.3934V25.2517V25.1106V24.9699V24.8298V24.6902V24.5511V24.5018C108.654 24.7706 139.5 55.783 139.5 94C139.5 132.384 108.384 163.5 70 163.5C31.6162 163.5 0.5 132.384 0.5 94C0.5 55.783 31.3464 24.7706 69.5 24.5018Z" fill="#FBEECF" stroke="#888888"/>
</svg>
