<svg width="32" height="16" viewBox="0 0 32 16" fill="none" xmlns="http://www.w3.org/2000/svg">
<path d="M30.1819 3.67003L31.4265 0.931396L19.9525 5.8682C19.4647 6.07793 19.0378 6.4116 18.7123 6.8373L16.0001 10.3848L13.2875 6.8373C12.9621 6.41196 12.5351 6.0783 12.0473 5.8682L0.57373 0.931396L1.81825 3.67003L11.1156 7.67036V8.69556L2.39713 4.9442L3.64165 7.68283L11.1156 10.8985V11.9237L4.22089 8.957L5.46577 11.6956L11.1156 14.127L13.3033 15.0682V10.5395L16.0001 14.0658L18.6972 10.5395V15.0686L20.8849 14.1274L26.5348 11.696L27.7796 8.95736L20.8849 11.9241V10.8989L28.3589 7.6832L29.6034 4.94456L20.8846 8.69556V7.67036L30.1819 3.67003Z" fill="black"/>
</svg>
