<svg width="91" height="10" viewBox="0 0 91 10" fill="none" xmlns="http://www.w3.org/2000/svg">
<path d="M0.860795 9V0.272727H4.13352C4.80398 0.272727 5.36648 0.389204 5.82102 0.622159C6.27841 0.855113 6.62358 1.18182 6.85653 1.60227C7.09233 2.01989 7.21023 2.5071 7.21023 3.06392C7.21023 3.62358 7.09091 4.10937 6.85227 4.52131C6.61648 4.9304 6.26847 5.24716 5.80824 5.47159C5.34801 5.69318 4.78267 5.80398 4.11222 5.80398H1.78125V4.49148H3.89915C4.29119 4.49148 4.61222 4.4375 4.86222 4.32955C5.11222 4.21875 5.29688 4.05824 5.41619 3.84801C5.53835 3.63494 5.59943 3.37358 5.59943 3.06392C5.59943 2.75426 5.53835 2.49006 5.41619 2.27131C5.29403 2.04972 5.10795 1.8821 4.85795 1.76847C4.60795 1.65199 4.28551 1.59375 3.89062 1.59375H2.44176V9H0.860795ZM5.36932 5.04545L7.52983 9H5.76562L3.64347 5.04545H5.36932ZM10.8013 9.12784C10.145 9.12784 9.57827 8.99148 9.10099 8.71875C8.62656 8.44318 8.26151 8.05398 8.00582 7.55114C7.75014 7.04545 7.6223 6.45028 7.6223 5.76562C7.6223 5.09233 7.75014 4.50142 8.00582 3.9929C8.26435 3.48153 8.62514 3.08381 9.08821 2.79972C9.55128 2.51278 10.0953 2.36932 10.7203 2.36932C11.1237 2.36932 11.5044 2.43466 11.8624 2.56534C12.2232 2.69318 12.5413 2.89205 12.8169 3.16193C13.0953 3.43182 13.3141 3.77557 13.4732 4.19318C13.6322 4.60795 13.7118 5.10227 13.7118 5.67614V6.14915H8.34673V5.10938H12.2331C12.2303 4.81392 12.1663 4.55114 12.0413 4.32102C11.9163 4.08807 11.7416 3.90483 11.5172 3.77131C11.2956 3.63778 11.0371 3.57102 10.7416 3.57102C10.4263 3.57102 10.1493 3.64773 9.91065 3.80114C9.67202 3.9517 9.48594 4.15057 9.35241 4.39773C9.22173 4.64205 9.15497 4.91051 9.15213 5.20312V6.1108C9.15213 6.49148 9.22173 6.81818 9.36094 7.09091C9.50014 7.3608 9.69474 7.56818 9.94474 7.71307C10.1947 7.85511 10.4874 7.92614 10.8226 7.92614C11.047 7.92614 11.2501 7.89489 11.432 7.83239C11.6138 7.76705 11.7714 7.67188 11.905 7.54688C12.0385 7.42188 12.1393 7.26705 12.2075 7.08239L13.6479 7.24432C13.557 7.625 13.3837 7.95739 13.128 8.24148C12.8751 8.52273 12.5513 8.74148 12.1564 8.89773C11.7615 9.05114 11.3098 9.12784 10.8013 9.12784ZM15.9594 5.16477V9H14.4168V2.45455H15.8913V3.56676H15.968C16.1185 3.20028 16.3586 2.90909 16.6881 2.69318C17.0205 2.47727 17.431 2.36932 17.9197 2.36932C18.3714 2.36932 18.7648 2.46591 19.1001 2.65909C19.4381 2.85227 19.6995 3.1321 19.8842 3.49858C20.0717 3.86506 20.164 4.30966 20.1612 4.83239V9H18.6185V5.07102C18.6185 4.63352 18.5049 4.29119 18.2776 4.04403C18.0532 3.79687 17.7421 3.6733 17.3444 3.6733C17.0745 3.6733 16.8344 3.73295 16.6242 3.85227C16.4168 3.96875 16.2535 4.13778 16.1342 4.35938C16.0177 4.58097 15.9594 4.84943 15.9594 5.16477ZM23.0129 9.1321C22.5981 9.1321 22.2245 9.05824 21.8921 8.91051C21.5626 8.75994 21.3012 8.53835 21.108 8.24574C20.9177 7.95312 20.8225 7.59233 20.8225 7.16335C20.8225 6.79403 20.8907 6.48864 21.0271 6.24716C21.1634 6.00568 21.3495 5.8125 21.5853 5.66761C21.8211 5.52273 22.0867 5.41335 22.3822 5.33949C22.6805 5.26278 22.9887 5.20739 23.3069 5.1733C23.6904 5.13352 24.0015 5.09801 24.2401 5.06676C24.4788 5.03267 24.6521 4.98153 24.76 4.91335C24.8708 4.84233 24.9262 4.73295 24.9262 4.58523V4.55966C24.9262 4.23864 24.831 3.99006 24.6407 3.81392C24.4504 3.63778 24.1762 3.54972 23.8183 3.54972C23.4404 3.54972 23.1407 3.6321 22.9191 3.79688C22.7004 3.96165 22.5526 4.15625 22.4759 4.38068L21.0356 4.17614C21.1492 3.77841 21.3367 3.44602 21.5981 3.17898C21.8594 2.90909 22.179 2.70739 22.5569 2.57386C22.9347 2.4375 23.3523 2.36932 23.8097 2.36932C24.1251 2.36932 24.439 2.40625 24.7515 2.48011C25.064 2.55398 25.3495 2.67614 25.608 2.84659C25.8665 3.0142 26.0739 3.2429 26.2302 3.53267C26.3893 3.82244 26.4688 4.18466 26.4688 4.61932V9H24.9859V8.10085H24.9347C24.841 8.28267 24.7089 8.45312 24.5384 8.61222C24.3708 8.76847 24.1592 8.89489 23.9035 8.99148C23.6506 9.08523 23.3538 9.1321 23.0129 9.1321ZM23.4134 7.99858C23.7231 7.99858 23.9915 7.9375 24.2188 7.81534C24.4461 7.69034 24.6208 7.52557 24.743 7.32102C24.868 7.11648 24.9305 6.89347 24.9305 6.65199V5.88068C24.8822 5.92045 24.7998 5.95739 24.6833 5.99148C24.5697 6.02557 24.4418 6.0554 24.2998 6.08097C24.1577 6.10653 24.0171 6.12926 23.8779 6.14915C23.7387 6.16903 23.618 6.18608 23.5157 6.20028C23.2856 6.23153 23.0796 6.28267 22.8978 6.35369C22.716 6.42472 22.5725 6.52415 22.4674 6.65199C22.3623 6.77699 22.3097 6.93892 22.3097 7.13778C22.3097 7.42188 22.4134 7.63636 22.6208 7.78125C22.8282 7.92614 23.0924 7.99858 23.4134 7.99858ZM32.5933 4.18466L31.187 4.33807C31.1472 4.19602 31.0776 4.0625 30.9782 3.9375C30.8816 3.8125 30.7509 3.71165 30.5862 3.63494C30.4214 3.55824 30.2197 3.51989 29.981 3.51989C29.66 3.51989 29.3901 3.58949 29.1714 3.72869C28.9555 3.8679 28.8489 4.0483 28.8518 4.26989C28.8489 4.46023 28.9185 4.61506 29.0606 4.73438C29.2055 4.85369 29.4441 4.9517 29.7765 5.02841L30.893 5.26705C31.5123 5.40057 31.9725 5.61222 32.2737 5.90199C32.5776 6.19176 32.731 6.57102 32.7339 7.03977C32.731 7.4517 32.6103 7.81534 32.3717 8.13068C32.1359 8.44318 31.8077 8.6875 31.3873 8.86364C30.9668 9.03977 30.4839 9.12784 29.9384 9.12784C29.1373 9.12784 28.4924 8.96023 28.0038 8.625C27.5151 8.28693 27.2239 7.81676 27.1302 7.21449L28.6344 7.0696C28.7026 7.36506 28.8475 7.58807 29.0691 7.73864C29.2907 7.8892 29.579 7.96449 29.9342 7.96449C30.3006 7.96449 30.5947 7.8892 30.8163 7.73864C31.0407 7.58807 31.1529 7.40199 31.1529 7.1804C31.1529 6.9929 31.0805 6.83807 30.9356 6.71591C30.7935 6.59375 30.5719 6.5 30.2708 6.43466L29.1543 6.20028C28.5265 6.0696 28.062 5.84943 27.7609 5.53977C27.4597 5.22727 27.3106 4.83239 27.3134 4.35511C27.3106 3.9517 27.42 3.60227 27.6415 3.30682C27.866 3.00852 28.1771 2.77841 28.5748 2.61648C28.9754 2.4517 29.437 2.36932 29.9597 2.36932C30.7268 2.36932 31.3305 2.53267 31.7708 2.85938C32.214 3.18608 32.4881 3.62784 32.5933 4.18466ZM36.261 9.12784C35.6076 9.12784 35.0465 8.98438 34.5778 8.69744C34.1119 8.41051 33.7525 8.0142 33.4996 7.50852C33.2496 7 33.1246 6.41477 33.1246 5.75284C33.1246 5.08807 33.2525 4.50142 33.5082 3.9929C33.7638 3.48153 34.1246 3.08381 34.5906 2.79972C35.0593 2.51278 35.6133 2.36932 36.2525 2.36932C36.7837 2.36932 37.2539 2.46733 37.663 2.66335C38.0749 2.85653 38.4031 3.13068 38.6474 3.4858C38.8917 3.83807 39.0309 4.25 39.065 4.72159H37.5906C37.5309 4.40625 37.3888 4.14347 37.1644 3.93324C36.9428 3.72017 36.646 3.61364 36.2738 3.61364C35.9585 3.61364 35.6815 3.69886 35.4428 3.86932C35.2042 4.03693 35.0181 4.27841 34.8846 4.59375C34.7539 4.90909 34.6886 5.28693 34.6886 5.72727C34.6886 6.1733 34.7539 6.55682 34.8846 6.87784C35.0153 7.19602 35.1985 7.44176 35.4343 7.61506C35.6729 7.78551 35.9528 7.87074 36.2738 7.87074C36.5011 7.87074 36.7042 7.82812 36.8832 7.7429C37.065 7.65483 37.217 7.52841 37.3391 7.36364C37.4613 7.19886 37.5451 6.99858 37.5906 6.76278H39.065C39.0281 7.22585 38.8917 7.63636 38.6559 7.99432C38.4201 8.34943 38.0991 8.62784 37.6928 8.82955C37.2866 9.02841 36.8093 9.12784 36.261 9.12784ZM42.6294 9.12784C41.9732 9.12784 41.4064 8.99148 40.9291 8.71875C40.4547 8.44318 40.0896 8.05398 39.834 7.55114C39.5783 7.04545 39.4504 6.45028 39.4504 5.76562C39.4504 5.09233 39.5783 4.50142 39.834 3.9929C40.0925 3.48153 40.4533 3.08381 40.9163 2.79972C41.3794 2.51278 41.9234 2.36932 42.5484 2.36932C42.9518 2.36932 43.3325 2.43466 43.6905 2.56534C44.0513 2.69318 44.3695 2.89205 44.645 3.16193C44.9234 3.43182 45.1422 3.77557 45.3013 4.19318C45.4604 4.60795 45.5399 5.10227 45.5399 5.67614V6.14915H40.1749V5.10938H44.0612C44.0584 4.81392 43.9945 4.55114 43.8695 4.32102C43.7445 4.08807 43.5697 3.90483 43.3453 3.77131C43.1237 3.63778 42.8652 3.57102 42.5697 3.57102C42.2544 3.57102 41.9774 3.64773 41.7388 3.80114C41.5001 3.9517 41.3141 4.15057 41.1805 4.39773C41.0499 4.64205 40.9831 4.91051 40.9803 5.20312V6.1108C40.9803 6.49148 41.0499 6.81818 41.1891 7.09091C41.3283 7.3608 41.5229 7.56818 41.7729 7.71307C42.0229 7.85511 42.3155 7.92614 42.6507 7.92614C42.8751 7.92614 43.0783 7.89489 43.2601 7.83239C43.4419 7.76705 43.5996 7.67188 43.7331 7.54688C43.8666 7.42188 43.9675 7.26705 44.0357 7.08239L45.476 7.24432C45.3851 7.625 45.2118 7.95739 44.9561 8.24148C44.7033 8.52273 44.3794 8.74148 43.9845 8.89773C43.5896 9.05114 43.1379 9.12784 42.6294 9.12784ZM47.7876 5.16477V9H46.245V2.45455H47.7194V3.56676H47.7961C47.9467 3.20028 48.1867 2.90909 48.5163 2.69318C48.8486 2.47727 49.2592 2.36932 49.7478 2.36932C50.1995 2.36932 50.593 2.46591 50.9282 2.65909C51.2663 2.85227 51.5276 3.1321 51.7123 3.49858C51.8998 3.86506 51.9921 4.30966 51.9893 4.83239V9H50.4467V5.07102C50.4467 4.63352 50.333 4.29119 50.1058 4.04403C49.8813 3.79687 49.5702 3.6733 49.1725 3.6733C48.9026 3.6733 48.6626 3.73295 48.4523 3.85227C48.245 3.96875 48.0816 4.13778 47.9623 4.35938C47.8458 4.58097 47.7876 4.84943 47.7876 5.16477ZM55.8126 9.12784C55.1592 9.12784 54.5981 8.98438 54.1293 8.69744C53.6634 8.41051 53.304 8.0142 53.0512 7.50852C52.8012 7 52.6762 6.41477 52.6762 5.75284C52.6762 5.08807 52.804 4.50142 53.0597 3.9929C53.3154 3.48153 53.6762 3.08381 54.1421 2.79972C54.6109 2.51278 55.1648 2.36932 55.804 2.36932C56.3353 2.36932 56.8055 2.46733 57.2146 2.66335C57.6265 2.85653 57.9546 3.13068 58.1989 3.4858C58.4433 3.83807 58.5825 4.25 58.6165 4.72159H57.1421C57.0825 4.40625 56.9404 4.14347 56.716 3.93324C56.4944 3.72017 56.1975 3.61364 55.8254 3.61364C55.51 3.61364 55.233 3.69886 54.9944 3.86932C54.7558 4.03693 54.5697 4.27841 54.4362 4.59375C54.3055 4.90909 54.2401 5.28693 54.2401 5.72727C54.2401 6.1733 54.3055 6.55682 54.4362 6.87784C54.5668 7.19602 54.7501 7.44176 54.9859 7.61506C55.2245 7.78551 55.5043 7.87074 55.8254 7.87074C56.0526 7.87074 56.2558 7.82812 56.4347 7.7429C56.6165 7.65483 56.7685 7.52841 56.8907 7.36364C57.0129 7.19886 57.0967 6.99858 57.1421 6.76278H58.6165C58.5796 7.22585 58.4433 7.63636 58.2075 7.99432C57.9717 8.34943 57.6506 8.62784 57.2444 8.82955C56.8381 9.02841 56.3609 9.12784 55.8126 9.12784ZM62.181 9.12784C61.5247 9.12784 60.958 8.99148 60.4807 8.71875C60.0062 8.44318 59.6412 8.05398 59.3855 7.55114C59.1298 7.04545 59.002 6.45028 59.002 5.76562C59.002 5.09233 59.1298 4.50142 59.3855 3.9929C59.644 3.48153 60.0048 3.08381 60.4679 2.79972C60.931 2.51278 61.475 2.36932 62.1 2.36932C62.5034 2.36932 62.8841 2.43466 63.242 2.56534C63.6028 2.69318 63.921 2.89205 64.1966 3.16193C64.475 3.43182 64.6937 3.77557 64.8528 4.19318C65.0119 4.60795 65.0915 5.10227 65.0915 5.67614V6.14915H59.7264V5.10938H63.6128C63.6099 4.81392 63.546 4.55114 63.421 4.32102C63.296 4.08807 63.1213 3.90483 62.8969 3.77131C62.6753 3.63778 62.4168 3.57102 62.1213 3.57102C61.806 3.57102 61.529 3.64773 61.2903 3.80114C61.0517 3.9517 60.8656 4.15057 60.7321 4.39773C60.6014 4.64205 60.5347 4.91051 60.5318 5.20312V6.1108C60.5318 6.49148 60.6014 6.81818 60.7406 7.09091C60.8798 7.3608 61.0744 7.56818 61.3244 7.71307C61.5744 7.85511 61.867 7.92614 62.2023 7.92614C62.4267 7.92614 62.6298 7.89489 62.8116 7.83239C62.9935 7.76705 63.1511 7.67188 63.2847 7.54688C63.4182 7.42188 63.519 7.26705 63.5872 7.08239L65.0276 7.24432C64.9366 7.625 64.7634 7.95739 64.5077 8.24148C64.2548 8.52273 63.931 8.74148 63.5361 8.89773C63.1412 9.05114 62.6895 9.12784 62.181 9.12784ZM65.8647 9V0.272727H67.4457V7.67472H71.2894V9H65.8647ZM73.8769 9.1321C73.4621 9.1321 73.0886 9.05824 72.7562 8.91051C72.4266 8.75994 72.1653 8.53835 71.9721 8.24574C71.7817 7.95312 71.6866 7.59233 71.6866 7.16335C71.6866 6.79403 71.7548 6.48864 71.8911 6.24716C72.0275 6.00568 72.2136 5.8125 72.4494 5.66761C72.6852 5.52273 72.9508 5.41335 73.2462 5.33949C73.5445 5.26278 73.8528 5.20739 74.171 5.1733C74.5545 5.13352 74.8656 5.09801 75.1042 5.06676C75.3428 5.03267 75.5161 4.98153 75.6241 4.91335C75.7349 4.84233 75.7903 4.73295 75.7903 4.58523V4.55966C75.7903 4.23864 75.6951 3.99006 75.5048 3.81392C75.3144 3.63778 75.0403 3.54972 74.6823 3.54972C74.3045 3.54972 74.0048 3.6321 73.7832 3.79688C73.5644 3.96165 73.4167 4.15625 73.34 4.38068L71.8996 4.17614C72.0133 3.77841 72.2008 3.44602 72.4621 3.17898C72.7235 2.90909 73.0431 2.70739 73.421 2.57386C73.7988 2.4375 74.2164 2.36932 74.6738 2.36932C74.9891 2.36932 75.3031 2.40625 75.6156 2.48011C75.9281 2.55398 76.2136 2.67614 76.4721 2.84659C76.7306 3.0142 76.938 3.2429 77.0942 3.53267C77.2533 3.82244 77.3329 4.18466 77.3329 4.61932V9H75.8499V8.10085H75.7988C75.705 8.28267 75.5729 8.45312 75.4025 8.61222C75.2349 8.76847 75.0232 8.89489 74.7675 8.99148C74.5147 9.08523 74.2178 9.1321 73.8769 9.1321ZM74.2775 7.99858C74.5871 7.99858 74.8556 7.9375 75.0829 7.81534C75.3102 7.69034 75.4849 7.52557 75.607 7.32102C75.732 7.11648 75.7945 6.89347 75.7945 6.65199V5.88068C75.7462 5.92045 75.6639 5.95739 75.5474 5.99148C75.4337 6.02557 75.3059 6.0554 75.1639 6.08097C75.0218 6.10653 74.8812 6.12926 74.742 6.14915C74.6028 6.16903 74.482 6.18608 74.3798 6.20028C74.1496 6.23153 73.9437 6.28267 73.7619 6.35369C73.58 6.42472 73.4366 6.52415 73.3315 6.65199C73.2264 6.77699 73.1738 6.93892 73.1738 7.13778C73.1738 7.42188 73.2775 7.63636 73.4849 7.78125C73.6923 7.92614 73.9565 7.99858 74.2775 7.99858ZM78.3522 9V0.272727H79.8948V3.53693H79.9587C80.0383 3.37784 80.1505 3.20881 80.2954 3.02983C80.4403 2.84801 80.6363 2.69318 80.8835 2.56534C81.1306 2.43466 81.446 2.36932 81.8295 2.36932C82.3352 2.36932 82.7911 2.49858 83.1974 2.7571C83.6065 3.01278 83.9303 3.39205 84.169 3.89489C84.4104 4.39489 84.5312 5.00852 84.5312 5.7358C84.5312 6.45455 84.4133 7.06534 84.1775 7.56818C83.9417 8.07102 83.6207 8.45455 83.2144 8.71875C82.8082 8.98295 82.3479 9.11506 81.8337 9.11506C81.4587 9.11506 81.1477 9.05256 80.9005 8.92756C80.6533 8.80256 80.4545 8.65199 80.3039 8.47585C80.1562 8.29687 80.0411 8.12784 79.9587 7.96875H79.8693V9H78.3522ZM79.865 5.72727C79.865 6.15057 79.9246 6.52131 80.044 6.83949C80.1661 7.15767 80.3408 7.40625 80.5681 7.58523C80.7982 7.76136 81.0766 7.84943 81.4033 7.84943C81.7443 7.84943 82.0298 7.75852 82.2599 7.5767C82.49 7.39205 82.6633 7.14062 82.7798 6.82244C82.8991 6.50142 82.9587 6.13636 82.9587 5.72727C82.9587 5.32102 82.9005 4.96023 82.784 4.64489C82.6675 4.32955 82.4943 4.08239 82.2641 3.90341C82.034 3.72443 81.7471 3.63494 81.4033 3.63494C81.0738 3.63494 80.794 3.72159 80.5639 3.89489C80.3337 4.06818 80.159 4.31108 80.0397 4.62358C79.9232 4.93608 79.865 5.30398 79.865 5.72727ZM90.4159 4.18466L89.0097 4.33807C88.9699 4.19602 88.9003 4.0625 88.8008 3.9375C88.7043 3.8125 88.5736 3.71165 88.4088 3.63494C88.244 3.55824 88.0423 3.51989 87.8037 3.51989C87.4827 3.51989 87.2128 3.58949 86.994 3.72869C86.7781 3.8679 86.6716 4.0483 86.6744 4.26989C86.6716 4.46023 86.7412 4.61506 86.8832 4.73438C87.0281 4.85369 87.2668 4.9517 87.5991 5.02841L88.7156 5.26705C89.3349 5.40057 89.7952 5.61222 90.0963 5.90199C90.4003 6.19176 90.5537 6.57102 90.5565 7.03977C90.5537 7.4517 90.433 7.81534 90.1943 8.13068C89.9585 8.44318 89.6304 8.6875 89.2099 8.86364C88.7895 9.03977 88.3065 9.12784 87.7611 9.12784C86.9599 9.12784 86.3151 8.96023 85.8264 8.625C85.3378 8.28693 85.0466 7.81676 84.9528 7.21449L86.4571 7.0696C86.5253 7.36506 86.6702 7.58807 86.8918 7.73864C87.1133 7.8892 87.4017 7.96449 87.7568 7.96449C88.1233 7.96449 88.4173 7.8892 88.6389 7.73864C88.8633 7.58807 88.9756 7.40199 88.9756 7.1804C88.9756 6.9929 88.9031 6.83807 88.7582 6.71591C88.6162 6.59375 88.3946 6.5 88.0935 6.43466L86.977 6.20028C86.3491 6.0696 85.8847 5.84943 85.5835 5.53977C85.2824 5.22727 85.1332 4.83239 85.1361 4.35511C85.1332 3.9517 85.2426 3.60227 85.4642 3.30682C85.6886 3.00852 85.9997 2.77841 86.3974 2.61648C86.798 2.4517 87.2597 2.36932 87.7824 2.36932C88.5494 2.36932 89.1531 2.53267 89.5935 2.85938C90.0366 3.18608 90.3108 3.62784 90.4159 4.18466Z" fill="#1F1F41"/>
</svg>
