<svg width="19" height="18" viewBox="0 0 19 18" fill="none" xmlns="http://www.w3.org/2000/svg">
<path fill-rule="evenodd" clip-rule="evenodd" d="M4.36341 0H14.6366C16.7703 0 18.5 1.72971 18.5 3.86341V14.1366C18.5 16.2703 16.7703 18 14.6366 18H4.36341C2.22971 18 0.5 16.2703 0.5 14.1366V3.86341C0.5 1.72971 2.22971 0 4.36341 0ZM4.36341 0.702439C2.61766 0.702439 1.20244 2.11766 1.20244 3.86341V14.1366C1.20244 15.8823 2.61766 17.2976 4.36341 17.2976H14.6366C16.3823 17.2976 17.7976 15.8823 17.7976 14.1366V3.86341C17.7976 2.11766 16.3823 0.702439 14.6366 0.702439H4.36341Z" fill="black"/>
<path fill-rule="evenodd" clip-rule="evenodd" d="M11.0054 3.88582C10.926 3.88582 10.8659 3.91388 10.8576 3.91776C10.8386 3.92631 10.8227 3.93537 10.8143 3.9403C10.7968 3.95072 10.7805 3.9619 10.7688 3.97021C10.7439 3.9878 10.7147 4.01003 10.6856 4.03282C10.6261 4.07925 10.5519 4.13964 10.481 4.19818C10.4095 4.25712 10.3392 4.31589 10.2869 4.35981L10.2238 4.41299L10.1997 4.43339C10.0518 4.55886 10.0335 4.7805 10.159 4.92843C10.2845 5.07636 10.5062 5.09447 10.6542 4.969V5.17859C10.6542 5.24207 10.6199 5.30061 10.5647 5.3317L9.28099 6.05436L7.69909 6.8923C7.44045 7.0293 7.27871 7.29804 7.27875 7.59072L7.27881 8.09986C7.27883 8.29383 7.4361 8.45106 7.63007 8.45103C7.82405 8.45101 7.98127 8.29374 7.98125 8.09977L7.98119 7.59063C7.98118 7.55811 7.99915 7.52826 8.02789 7.51303L9.61774 6.67088L10.9093 5.94381C11.1857 5.78822 11.3566 5.49564 11.3566 5.17859V4.95995C11.505 5.06826 11.714 5.04403 11.8332 4.90091C11.9574 4.7519 11.9372 4.5304 11.7882 4.40622L11.765 4.38692L11.7041 4.33657C11.6538 4.29501 11.586 4.23937 11.5171 4.18355C11.4486 4.12814 11.3768 4.07086 11.3192 4.02673C11.2909 4.00509 11.2624 3.9838 11.2378 3.96685C11.2262 3.95885 11.21 3.94795 11.1923 3.93776C11.1839 3.93291 11.1687 3.92445 11.1497 3.91616L11.1487 3.91576C11.1394 3.91159 11.0816 3.88582 11.0054 3.88582ZM11.7946 10.0612C11.7946 9.86726 11.6373 9.71003 11.4433 9.71006C11.2494 9.71008 11.0921 9.86735 11.0921 10.0613L11.0922 10.5705C11.0922 10.603 11.0742 10.6328 11.0455 10.6481L9.45566 11.4902L7.89573 12.3684C7.7267 12.4635 7.66681 12.6777 7.76197 12.8467C7.85712 13.0157 8.07129 13.0756 8.24032 12.9805L9.79242 12.1067L11.3743 11.2688C11.6329 11.1318 11.7947 10.863 11.7947 10.5704L11.7946 10.0612Z" fill="black"/>
<path d="M11.6398 8.41635C11.8073 8.31848 11.8637 8.10338 11.7658 7.93591C11.668 7.76843 11.4529 7.71201 11.2854 7.80989L7.89617 9.79061C7.7287 9.88848 7.67227 10.1036 7.77015 10.2711C7.86802 10.4385 8.08312 10.4949 8.2506 10.3971L11.6398 8.41635Z" fill="black"/>
</svg>
