<svg width="20" height="14" viewBox="0 0 20 14" fill="none" xmlns="http://www.w3.org/2000/svg">
<path d="M1.44363 7.00005C1.44363 4.28148 3.64747 2.07764 6.36605 2.07764L13.5279 2.07764C13.5802 2.07764 13.6227 2.1201 13.6227 2.17247C13.6227 2.22484 13.5802 2.26729 13.5279 2.26729L6.36605 2.26729C3.75222 2.26729 1.63329 4.38622 1.63329 7.00005C1.63329 7.05242 1.59083 7.09488 1.53846 7.09488C1.48609 7.09488 1.44363 7.05242 1.44363 7.00005ZM18.5564 7.0531C18.5564 9.80098 16.3288 12.0286 13.5809 12.0286H6.47215C6.41978 12.0286 6.37732 11.9861 6.37732 11.9337C6.37732 11.8814 6.41978 11.8389 6.47215 11.8389H13.5809C16.224 11.8389 18.3667 9.69623 18.3667 7.0531C18.3667 7.00073 18.4092 6.95828 18.4615 6.95828C18.5139 6.95828 18.5564 7.00073 18.5564 7.0531ZM0.25 10.8727C0.25 10.6885 0.399338 10.5392 0.583554 10.5392H2.65252C2.83674 10.5392 2.98607 10.6885 2.98607 10.8727V12.9417C2.98607 13.1259 2.83674 13.2753 2.65252 13.2753H0.583555C0.399337 13.2753 0.25 13.1259 0.25 12.9417V10.8727ZM17.0139 1.05841C17.0139 0.874191 17.1633 0.724854 17.3475 0.724854H19.4164C19.6007 0.724854 19.75 0.87419 19.75 1.05841V3.12737C19.75 3.31159 19.6007 3.46093 19.4164 3.46093H17.3475C17.1633 3.46093 17.0139 3.31159 17.0139 3.12737V1.05841Z" stroke="black" stroke-width="0.5"/>
</svg>
