<svg width="20" height="19" viewBox="0 0 20 19" fill="none" xmlns="http://www.w3.org/2000/svg">
<path fill-rule="evenodd" clip-rule="evenodd" d="M17.7298 9.44231L9.53168 8.82585C6.54661 8.60139 3.72244 9.2922 2.02759 10.6353C4.96566 10.2665 7.64003 10.4656 9.93715 10.6366C10.3441 10.6669 10.7392 10.6963 11.1219 10.7215C13.8323 10.9001 16.0085 10.8911 18.179 9.85647C18.2707 9.81278 18.289 9.77773 18.2946 9.76061C18.3017 9.73888 18.3 9.70504 18.2671 9.66049C18.1994 9.56884 18.0201 9.46414 17.7298 9.44231ZM0.60916 10.5571C2.46356 8.78233 5.91678 7.84472 9.58329 8.12042L17.7814 8.73687C19.2805 8.8496 20.0987 9.89147 18.9796 10.4249C16.0929 11.801 13.1438 11.5832 9.85703 11.3405C7.40215 11.1593 4.75893 10.9641 1.81272 11.4087C1.03731 11.5257 0.195252 10.9532 0.60916 10.5571Z" fill="black"/>
<path fill-rule="evenodd" clip-rule="evenodd" d="M11.289 17.3048V8.29492C11.289 5.38917 10.267 2.7155 8.62278 1.29106C9.29143 4.23704 9.29376 6.98235 9.29574 9.32816C9.29616 9.82693 9.29657 10.3076 9.30336 10.7684C9.34277 13.4414 9.57355 15.6067 10.9601 17.6997C11.0069 17.7703 11.0375 17.7793 11.049 17.7817C11.0654 17.785 11.0934 17.7827 11.1304 17.754C11.2063 17.6949 11.289 17.546 11.289 17.3048ZM8.86575 0.107502C10.8452 1.71276 12.0833 4.86326 12.0833 8.29492V17.3048C12.0833 18.7207 11.0609 19.5604 10.4026 18.5668C8.50999 15.7098 8.50543 12.6683 8.50034 9.27089C8.49679 6.90618 8.49299 4.36903 7.85208 1.6016C7.64311 0.699286 8.31348 -0.340368 8.86575 0.107502Z" fill="black"/>
</svg>
