<svg width="19" height="19" viewBox="0 0 19 19" fill="none" xmlns="http://www.w3.org/2000/svg">
<mask id="mask0_416_3966" style="mask-type:luminance" maskUnits="userSpaceOnUse" x="0" y="0" width="19" height="19">
<path d="M19 0H0V19H19V0Z" fill="white"/>
</mask>
<g mask="url(#mask0_416_3966)">
<path d="M9.50006 18.174C14.2905 18.174 18.174 14.2905 18.174 9.5001C18.174 4.7096 14.2905 0.826172 9.50006 0.826172C4.70961 0.826172 0.826172 4.7096 0.826172 9.5001C0.826172 14.2905 4.70961 18.174 9.50006 18.174Z" fill="white"/>
<path fill-rule="evenodd" clip-rule="evenodd" d="M0 9.49995C0 4.25325 4.25329 0 9.49998 0C14.7467 0 19 4.25325 19 9.49995C19 14.7467 14.7467 19 9.49998 19C4.25329 19 0 14.7467 0 9.49995ZM9.49998 1.65218C5.16576 1.65218 1.65217 5.16575 1.65217 9.49995C1.65217 13.8343 5.16576 17.3477 9.49998 17.3477C13.8342 17.3477 17.3478 13.8343 17.3478 9.49995C17.3478 5.16575 13.8342 1.65218 9.49998 1.65218Z" fill="url(#paint0_linear_416_3966)"/>
<mask id="mask1_416_3966" style="mask-type:alpha" maskUnits="userSpaceOnUse" x="-2" y="-2" width="23" height="23">
<path d="M9.50006 18.174C14.2905 18.174 18.174 14.2905 18.174 9.5001C18.174 4.7096 14.2905 0.826172 9.50006 0.826172C4.70961 0.826172 0.826172 4.7096 0.826172 9.5001C0.826172 14.2905 4.70961 18.174 9.50006 18.174Z" fill="white" stroke="url(#paint1_linear_416_3966)" stroke-width="4"/>
</mask>
<g mask="url(#mask1_416_3966)">
<path fill-rule="evenodd" clip-rule="evenodd" d="M17.0655 15.3862C15.8806 16.8647 14.2097 17.9967 12.2077 18.5767L11.748 16.9897C13.4314 16.5021 14.8096 15.5592 15.7762 14.353L17.0655 15.3862Z" fill="url(#paint2_linear_416_3966)"/>
</g>
<path d="M10.7326 12.6778C10.6935 12.5995 10.6602 12.5094 10.6329 12.4077C10.6054 12.3058 10.5819 12.1981 10.5624 12.0846C10.4723 12.1825 10.3685 12.2745 10.251 12.3606C10.1336 12.4468 10.0024 12.5232 9.85747 12.5897C9.71651 12.6524 9.55984 12.7013 9.38757 12.7365C9.21531 12.7757 9.0293 12.7953 8.82961 12.7953C8.50459 12.7953 8.20502 12.7483 7.93095 12.6543C7.66075 12.5603 7.42772 12.4292 7.23198 12.2608C7.03617 12.0925 6.88345 11.8927 6.77381 11.6617C6.66416 11.4267 6.60938 11.1723 6.60938 10.8981C6.60938 10.2285 6.858 9.71168 7.35533 9.34748C7.85653 8.97938 8.60247 8.79538 9.59316 8.79538H10.5036V8.41948C10.5036 8.11398 10.4037 7.87318 10.204 7.69698C10.0044 7.51688 9.71651 7.42678 9.34059 7.42678C9.00777 7.42678 8.76497 7.49928 8.61225 7.64408C8.45958 7.78508 8.38318 7.97498 8.38318 8.21378H6.75033C6.75033 7.94368 6.80904 7.68718 6.92652 7.44448C7.04792 7.20168 7.22221 6.98828 7.4493 6.80418C7.6803 6.62008 7.96032 6.47528 8.28922 6.36958C8.62207 6.25988 9.00187 6.20508 9.4287 6.20508C9.81242 6.20508 10.1688 6.25208 10.4977 6.34608C10.8306 6.43998 11.1183 6.57908 11.3611 6.76308C11.6039 6.94708 11.7938 7.18008 11.9309 7.46198C12.0679 7.74008 12.1365 8.06308 12.1365 8.43118V11.1566C12.1365 11.4972 12.158 11.7791 12.2011 12.0024C12.2441 12.2256 12.3068 12.4174 12.389 12.5779V12.6778H10.7326ZM9.17612 11.5325C9.34063 11.5325 9.49329 11.5129 9.63425 11.4738C9.77524 11.4345 9.90247 11.3837 10.0161 11.321C10.1296 11.2583 10.2275 11.1879 10.3098 11.1096C10.392 11.0273 10.4566 10.9451 10.5036 10.8629V9.77038H9.66949C9.415 9.77038 9.19769 9.79588 9.01755 9.84668C8.8374 9.89368 8.69059 9.96218 8.57702 10.0523C8.46346 10.1384 8.37926 10.2442 8.32443 10.3695C8.26961 10.4909 8.24223 10.624 8.24223 10.7689C8.24223 10.9882 8.31858 11.1703 8.47125 11.3152C8.62792 11.46 8.86286 11.5325 9.17612 11.5325Z" fill="url(#paint3_linear_416_3966)"/>
</g>
<defs>
<linearGradient id="paint0_linear_416_3966" x1="17.5543" y1="3.30434" x2="2.68477" y2="15.0761" gradientUnits="userSpaceOnUse">
<stop stop-color="#FC2DA9"/>
<stop offset="0.180603" stop-color="#FE4664"/>
<stop offset="0.271298" stop-color="#B47495"/>
<stop offset="0.413607" stop-color="#5075B5"/>
<stop offset="0.643385" stop-color="#1682CD"/>
<stop offset="0.843759" stop-color="#18D3C0"/>
<stop offset="1" stop-color="#1AD4B7"/>
</linearGradient>
<linearGradient id="paint1_linear_416_3966" x1="17.5544" y1="3.30441" x2="1.65224" y2="16.1088" gradientUnits="userSpaceOnUse">
<stop stop-color="#FC2DA9"/>
<stop offset="0.180603" stop-color="#FE4664"/>
<stop offset="0.271298" stop-color="#B47495"/>
<stop offset="0.413607" stop-color="#5075B5"/>
<stop offset="0.704184" stop-color="#1682CD"/>
<stop offset="0.840632" stop-color="#18D3C0"/>
<stop offset="1" stop-color="#1AD4B7"/>
</linearGradient>
<linearGradient id="paint2_linear_416_3966" x1="10.7387" y1="18.7936" x2="17.3475" y2="14.2501" gradientUnits="userSpaceOnUse">
<stop offset="0.0118035" stop-color="#275CD1" stop-opacity="0"/>
<stop offset="0.171653" stop-color="#275CD1" stop-opacity="0"/>
<stop offset="0.452528" stop-color="#275CD1" stop-opacity="0.19"/>
<stop offset="0.676204" stop-color="#275CD1" stop-opacity="0.74"/>
<stop offset="0.868225" stop-color="#275CD1" stop-opacity="0"/>
</linearGradient>
<linearGradient id="paint3_linear_416_3966" x1="11.7552" y1="6.96548" x2="7.0052" y2="13.1009" gradientUnits="userSpaceOnUse">
<stop offset="0.0659487" stop-color="#5348F3"/>
<stop offset="0.25344" stop-color="#5248F2"/>
<stop offset="0.432741" stop-color="#004FB3"/>
<stop offset="0.581987" stop-color="#004FB3"/>
<stop offset="0.690412" stop-color="#0099E2"/>
<stop offset="0.876335" stop-color="#0099E2"/>
</linearGradient>
</defs>
</svg>
