<svg width="25" height="26" viewBox="0 0 25 26" fill="none" xmlns="http://www.w3.org/2000/svg">
<circle cx="12.375" cy="13" r="11.75" stroke="black" stroke-width="0.75"/>
<path d="M19.0233 9.24718C19.0233 8.77388 18.8621 8.36971 18.5436 8.04522C18.2222 7.71784 17.8183 7.55176 17.3424 7.55176C16.951 7.55176 16.6018 7.66312 16.3044 7.88297C16.0041 8.10474 15.7988 8.40235 15.6952 8.7662L14.9171 11.51L13.6785 8.48203C13.4387 7.88201 12.9715 7.55176 12.3632 7.55176C11.755 7.55176 11.2877 7.88297 11.0479 8.48395L9.81028 11.51L9.03222 8.76716C8.92764 8.40331 8.72329 8.1057 8.42301 7.88393C8.1256 7.66408 7.77542 7.55272 7.38495 7.55272C6.90909 7.55272 6.50423 7.7188 6.1838 8.04618C5.86624 8.37067 5.7041 8.77484 5.7041 9.24814C5.7041 9.46127 5.74344 9.69936 5.82211 9.95569L6.65198 12.6937L6.79588 13.1814C6.80644 13.2169 6.81795 13.2515 6.83138 13.2861L8.1208 17.539C8.30692 18.14 8.76455 18.4712 9.41021 18.4712C10.0089 18.4712 10.4655 18.1554 10.6977 17.5813L12.3642 13.4752L14.0316 17.5813C14.2638 18.1554 14.7204 18.4712 15.3191 18.4712C15.9648 18.4712 16.4224 18.141 16.6075 17.5409L16.9798 16.3131L18.9062 9.95569C18.9849 9.69456 19.0233 9.46223 19.0233 9.24718ZM6.35073 8.20938C6.38464 8.17474 6.41966 8.14221 6.45576 8.11179C6.57207 8.01381 6.69965 7.93779 6.83785 7.88393C6.87594 7.86908 6.91484 7.85592 6.95453 7.84444C7.08907 7.80553 7.23273 7.78601 7.38495 7.78601C7.43427 7.78601 7.48282 7.78803 7.53057 7.79207C7.69724 7.80619 7.85414 7.84489 7.99992 7.90795C8.04054 7.92552 8.08031 7.94498 8.11918 7.96633C8.17603 7.99756 8.23096 8.03282 8.28389 8.0721C8.37184 8.1372 8.45021 8.20978 8.51884 8.28956C8.6516 8.44389 8.74794 8.62517 8.80676 8.83149L9.66541 11.8604L9.27391 12.7866L9.21154 12.9342L9.08594 13.2313C9.03629 13.3487 8.97394 13.4481 8.90288 13.5315C8.87234 13.5673 8.8402 13.6001 8.80676 13.6302C8.68599 13.7388 8.54834 13.8108 8.40871 13.8534C8.36425 13.867 8.31959 13.8776 8.27521 13.8855C8.18476 13.9015 8.09548 13.9062 8.01143 13.9014C7.96745 13.8989 7.92233 13.8937 7.87667 13.8855C7.83258 13.8776 7.78799 13.867 7.74346 13.8534C7.46688 13.7693 7.19246 13.5722 7.053 13.215L6.87647 12.6275V12.6256L6.0466 9.88657C5.97561 9.65232 5.93915 9.43727 5.93915 9.24622C5.93848 8.96113 6.00588 8.70542 6.1394 8.48203C6.19741 8.38497 6.26791 8.294 6.35073 8.20938ZM10.4809 17.4929C10.2871 17.973 9.90622 18.237 9.41021 18.237C8.86816 18.237 8.49976 17.972 8.34434 17.4699L7.24872 13.8534C7.45786 14.0176 7.7169 14.1184 7.99992 14.1347C8.02676 14.1366 8.0527 14.1366 8.07859 14.1366C8.61584 14.1366 9.09074 13.8237 9.30276 13.3225L9.89854 11.9132V11.9113L11.2647 8.57132C11.4671 8.06442 11.8576 7.78505 12.3632 7.78505C12.8698 7.78505 13.2593 8.06346 13.4617 8.56844L14.5468 11.221C14.329 11.0828 14.069 11.0117 13.7937 11.0242C13.242 11.0501 12.7825 11.4092 12.6232 11.9382L12.2759 13.0883C12.2682 13.0979 12.2606 13.1084 12.2558 13.12L10.4809 17.4929ZM15.3191 18.237C14.8221 18.237 14.4422 17.973 14.2484 17.4939L12.4946 13.1747L12.8467 12.0073C13.005 11.4821 13.4454 11.2767 13.8052 11.2594C14.163 11.2412 14.6226 11.4053 14.8298 11.9132L14.8308 11.9161L16.7438 16.2871L16.384 17.4728C16.2286 17.972 15.8611 18.237 15.3191 18.237ZM18.6827 9.88657L16.8483 15.9406L15.062 11.8594L15.9206 8.83053C16.0098 8.51755 16.1864 8.26218 16.4435 8.07114C16.6996 7.88201 17.0018 7.78601 17.3424 7.78601C17.753 7.78601 18.1013 7.92809 18.3766 8.20938C18.6501 8.48875 18.7892 8.83821 18.7892 9.24718C18.7901 9.43919 18.7546 9.64848 18.6827 9.88657Z" fill="black"/>
<path d="M18.6328 7.95765L18.6328 7.95765C18.9753 8.30659 19.1483 8.74266 19.1483 9.24718C19.1483 9.4772 19.1072 9.7219 19.0259 9.99175L19.0259 9.99194L17.0994 16.3493L17.0994 16.3493L16.7272 17.5772L16.727 17.5778C16.6276 17.9 16.4524 18.1568 16.2092 18.3324C15.9661 18.5079 15.6635 18.5962 15.3191 18.5962C14.6672 18.5962 14.1661 18.2473 13.9157 17.6281L12.3642 13.8075L10.8136 17.6281L18.6328 7.95765ZM18.6328 7.95765C18.287 7.60538 17.8505 7.42676 17.3424 7.42676C16.926 7.42676 16.5503 7.54572 16.2301 7.78242C15.9073 8.02084 15.686 8.34191 15.5749 8.73197L15.5749 8.7321L14.8957 11.1274M18.6328 7.95765L14.8957 11.1274M14.8957 11.1274L13.7946 8.43564C13.7945 8.4355 13.7945 8.43537 13.7944 8.43523C13.5371 7.79183 13.0265 7.42676 12.3632 7.42676C11.6998 7.42676 11.1893 7.79295 10.932 8.43714C10.9319 8.4373 10.9319 8.43746 10.9318 8.43762L9.83169 11.1274L9.15247 8.73305L9.15235 8.73264C9.04038 8.34302 8.82028 8.02195 8.49731 7.78341C8.17705 7.54667 7.80045 7.42772 7.38495 7.42772C6.87701 7.42772 6.43946 7.60627 6.09447 7.95874L6.09446 7.95875C5.75315 8.30751 5.5791 8.74345 5.5791 9.24814C5.5791 9.47619 5.6211 9.72674 5.70255 9.99216C5.70257 9.99223 5.70259 9.9923 5.70261 9.99236L6.53209 12.7291L6.53235 12.73L6.67599 13.2168L6.67606 13.217C6.68693 13.2536 6.69897 13.29 6.71311 13.3268L8.00117 17.5753L8.00139 17.576C8.10129 17.8986 8.27659 18.1558 8.51993 18.3318C8.76306 18.5076 9.06567 18.5962 9.41021 18.5962C10.0621 18.5962 10.5631 18.2473 10.8135 17.6283L14.8957 11.1274ZM7.053 13.215L6.87647 12.6275V12.6256L6.0466 9.88657C5.97561 9.65232 5.93915 9.43727 5.93915 9.24622L6.45576 8.11179C6.57207 8.01381 6.69965 7.93779 6.83785 7.88393C6.87594 7.86908 6.91484 7.85592 6.95453 7.84444C7.08907 7.80553 7.23273 7.78601 7.38495 7.78601C7.43427 7.78601 7.48282 7.78803 7.53057 7.79207C7.69724 7.80619 7.85414 7.84489 7.99992 7.90795C8.04054 7.92552 8.08031 7.94498 8.11918 7.96633C8.17603 7.99756 8.23096 8.03282 8.28389 8.0721C8.37184 8.1372 8.45021 8.20978 8.51884 8.28956C8.6516 8.44389 8.74794 8.62517 8.80676 8.83149M7.053 13.215C7.19246 13.5722 7.46688 13.7693 7.74346 13.8534C7.78799 13.867 7.83258 13.8776 7.87667 13.8855C7.92233 13.8937 7.96745 13.8989 8.01143 13.9014M7.053 13.215L7.16944 13.1696C7.17003 13.1711 7.17063 13.1726 7.17123 13.1741M7.053 13.215L7.17271 13.179L7.17123 13.1741M8.01143 13.9014C8.09548 13.9062 8.18476 13.9015 8.27521 13.8855C8.31959 13.8776 8.36425 13.867 8.40871 13.8534C8.54834 13.8108 8.68599 13.7388 8.80676 13.6302C8.8402 13.6001 8.87234 13.5673 8.90288 13.5315C8.97394 13.4481 9.03629 13.3487 9.08594 13.2313L9.21154 12.9342L9.27391 12.7866L9.66541 11.8604L8.80676 8.83149M8.01143 13.9014L8.01861 13.7766M8.01143 13.9014L8.01847 13.7766L8.01861 13.7766M8.80676 8.83149L8.6865 8.86558L8.68655 8.86576M8.80676 8.83149L8.68655 8.86576M7.17123 13.1741L7.00147 12.6091V12.607L6.9961 12.5893L6.16623 9.85032L6.16623 9.85031C6.09778 9.62446 6.06415 9.42191 6.06415 9.24622L6.06415 9.24593C6.06353 8.98148 6.12582 8.7484 6.24669 8.54616C6.29943 8.45793 6.3638 8.37473 6.44006 8.29682L7.89869 13.7624C7.85935 13.7554 7.81956 13.7459 7.77984 13.7338C7.53497 13.6594 7.29512 13.4872 7.17123 13.1741ZM8.01861 13.7766C8.09318 13.7808 8.17272 13.7767 8.25339 13.7624C8.29295 13.7554 8.3327 13.746 8.37219 13.7339C8.49617 13.696 8.6173 13.6325 8.72319 13.5373C8.75255 13.5109 8.78083 13.4819 8.80775 13.4504C8.87029 13.377 8.926 13.2886 8.97082 13.1826L9.0964 12.8855L9.15877 12.738L9.53317 11.8522L8.68655 8.86576M8.01861 13.7766L8.68655 8.86576M8.68655 8.86576C8.63243 8.6759 8.54441 8.51096 8.42408 8.37108C8.36173 8.2986 8.29026 8.23233 8.20952 8.17256L8.2094 8.17248C8.16098 8.13654 8.11082 8.10435 8.059 8.07589C8.02356 8.05643 7.98732 8.03869 7.95029 8.02267C7.8176 7.96528 7.67396 7.92966 7.52002 7.91663C7.47588 7.91289 7.43085 7.91101 7.38495 7.91101C7.24348 7.91101 7.1116 7.92914 6.98925 7.96452C6.95313 7.97497 6.91779 7.98693 6.88324 8.0004C6.7581 8.04917 6.64235 8.11805 6.5363 8.20739C6.50333 8.23516 6.47124 8.26496 6.44006 8.29682L8.68655 8.86576ZM12.4946 13.1747L12.8467 12.0073C13.005 11.4821 13.4454 11.2767 13.8052 11.2594C14.163 11.2412 14.6226 11.4053 14.8298 11.9132M12.4946 13.1747L14.2484 17.4939C14.4422 17.973 14.8221 18.237 15.3191 18.237C15.8611 18.237 16.2286 17.972 16.384 17.4728M12.4946 13.1747L12.6143 13.2108L12.6271 13.1685M12.4946 13.1747L12.6105 13.1277L12.6271 13.1685M16.384 17.4728L16.7438 16.2871M16.384 17.4728L16.2647 17.4356L16.6108 16.295M16.384 17.4728L16.2644 17.4365L16.2645 17.4361C16.1934 17.6642 16.0768 17.8305 15.9236 17.9406C15.7699 18.051 15.5695 18.112 15.3191 18.112C14.8758 18.112 14.54 17.8814 14.3643 17.447L14.3642 17.4469L12.6271 13.1685M16.7438 16.2871L14.8308 11.9161L14.8298 11.9132M16.7438 16.2871L16.6242 16.2508L16.6108 16.295M16.7438 16.2871L16.6293 16.3372L16.6108 16.295M14.8298 11.9132L14.7112 11.9527L14.7121 11.9555L14.7121 11.9556M14.8298 11.9132L14.7873 11.9305L14.7141 11.9604C14.7134 11.9588 14.7127 11.9572 14.7121 11.9556M7.99186 14.2595C8.02287 14.2617 8.05228 14.2616 8.077 14.2616H8.07859C8.66614 14.2616 9.18633 13.9185 9.41788 13.3712L9.4179 13.3712L10.0137 11.9619L10.0235 11.9385V11.9359L11.3804 8.61864L11.3804 8.61864L11.3808 8.61768C11.5662 8.15336 11.9138 7.91005 12.3632 7.91005C12.8137 7.91005 13.1604 8.15262 13.3457 8.61495L13.346 8.61576L14.3094 10.9708C14.1456 10.9162 13.9696 10.8911 13.788 10.8993L13.7878 10.8993C13.1831 10.9278 12.678 11.3225 12.5035 11.9021L12.1625 13.0315C12.155 13.0425 12.1469 13.0562 12.1404 13.0719L12.1399 13.073L10.3651 17.4459L10.365 17.4461C10.1892 17.8814 9.85257 18.112 9.41021 18.112C9.15975 18.112 8.95915 18.051 8.8053 17.9403C8.65182 17.8298 8.53498 17.6629 8.46386 17.4333C8.46382 17.4332 8.46378 17.4331 8.46375 17.4329L7.46284 14.1291C7.62549 14.2034 7.80402 14.2485 7.99186 14.2595ZM7.99186 14.2595C7.99158 14.2595 7.99129 14.2594 7.991 14.2594L7.99992 14.1347L7.99272 14.2595C7.99243 14.2595 7.99215 14.2595 7.99186 14.2595ZM14.7121 11.9556L14.7116 11.9557L14.7162 11.9662L16.6108 16.295M14.7121 11.9556C14.5286 11.512 14.1285 11.3681 13.8115 11.3843L13.8112 11.3843C13.4905 11.3997 13.1058 11.581 12.9664 12.0434L12.9664 12.0434L12.6271 13.1685M18.6642 9.24718L18.6642 9.24781C18.6651 9.42399 18.6325 9.62052 18.563 9.85041L16.827 15.58L15.1945 11.8504L16.0408 8.8648C16.0408 8.86476 16.0408 8.86473 16.0409 8.8647C16.1226 8.57804 16.2832 8.34603 16.5179 8.17155C16.7511 7.99949 17.0267 7.91101 17.3424 7.91101C17.7212 7.91101 18.0367 8.0408 18.2873 8.29682C18.5368 8.55171 18.6642 8.86929 18.6642 9.24718Z" stroke="black" stroke-width="0.25"/>
</svg>
